<svg id="Group_86" data-name="Group 86" xmlns="http://www.w3.org/2000/svg" xmlns:xlink="http://www.w3.org/1999/xlink" width="121.155" height="121.159" viewBox="0 0 121.155 121.159">
  <defs>
    <radialGradient id="radial-gradient" cx="0.5" cy="0.5" r="0.5" gradientTransform="translate(0)" gradientUnits="objectBoundingBox">
      <stop offset="0.18" stop-color="#ffc800"/>
      <stop offset="0.19" stop-color="#ffc802"/>
      <stop offset="0.37" stop-color="#ffd84d"/>
      <stop offset="0.54" stop-color="#ffe68c"/>
      <stop offset="0.69" stop-color="#fff0be"/>
      <stop offset="0.82" stop-color="#fff8e1"/>
      <stop offset="0.93" stop-color="#fffdf7"/>
      <stop offset="1" stop-color="#fff"/>
    </radialGradient>
    <filter id="Subtraction_1">
      <feOffset dy="3" input="SourceAlpha"/>
      <feGaussianBlur stdDeviation="3" result="blur"/>
      <feFlood flood-opacity="0.161" result="color"/>
      <feComposite operator="out" in="SourceGraphic" in2="blur"/>
      <feComposite operator="in" in="color"/>
      <feComposite operator="in" in2="SourceGraphic"/>
    </filter>
    <linearGradient id="linear-gradient" x1="0.5" x2="0.5" y2="1" gradientUnits="objectBoundingBox">
      <stop offset="0" stop-color="#ffd300"/>
      <stop offset="1" stop-color="#ff6c00"/>
    </linearGradient>
  </defs>
  <path id="Path_23" data-name="Path 23" d="M2836.5,471.579A60.578,60.578,0,1,1,2775.912,411,60.585,60.585,0,0,1,2836.5,471.579Z" transform="translate(-2715.34 -411)" opacity="0.7" fill="url(#radial-gradient)" style="mix-blend-mode: multiply;isolation: isolate"/>
  <g id="Group_85" data-name="Group 85" transform="translate(21 21)">
    <g data-type="innerShadowGroup">
      <path id="Subtraction_1-2" data-name="Subtraction 1" d="M32.414,64.827a32.263,32.263,0,0,1-18.123-5.536A32.508,32.508,0,0,1,2.547,45.031a32.371,32.371,0,0,1,2.989-30.74A32.508,32.508,0,0,1,19.8,2.547a32.371,32.371,0,0,1,30.74,2.989A32.508,32.508,0,0,1,62.28,19.8a32.372,32.372,0,0,1-2.988,30.74A32.507,32.507,0,0,1,45.031,62.28,32.212,32.212,0,0,1,32.414,64.827ZM32.125,9.84a22.792,22.792,0,1,0,8.9,1.8A22.721,22.721,0,0,0,32.125,9.84Z" transform="matrix(0.259, -0.966, 0.966, 0.259, 0, 62.618)" fill="#e8e8e8"/>
      <g transform="matrix(1, 0, 0, 1, -21, -21)" filter="url(#Subtraction_1)">
        <path id="Subtraction_1-3" data-name="Subtraction 1" d="M32.414,64.827a32.263,32.263,0,0,1-18.123-5.536A32.508,32.508,0,0,1,2.547,45.031a32.371,32.371,0,0,1,2.989-30.74A32.508,32.508,0,0,1,19.8,2.547a32.371,32.371,0,0,1,30.74,2.989A32.508,32.508,0,0,1,62.28,19.8a32.372,32.372,0,0,1-2.988,30.74A32.507,32.507,0,0,1,45.031,62.28,32.212,32.212,0,0,1,32.414,64.827ZM32.125,9.84a22.792,22.792,0,1,0,8.9,1.8A22.721,22.721,0,0,0,32.125,9.84Z" transform="matrix(0.26, -0.97, 0.97, 0.26, 21, 83.62)" fill="#fff"/>
      </g>
    </g>
    <path id="Subtraction_3" data-name="Subtraction 3" d="M32.141,64.282a31.984,31.984,0,0,1-17.97-5.489A32.243,32.243,0,0,1,2.525,44.652,32.1,32.1,0,0,1,5.489,14.171,32.239,32.239,0,0,1,19.63,2.525,31.943,31.943,0,0,1,32.141,0V9.267l-.289,0A23.178,23.178,0,1,0,55.017,32.431c0-.745-.035-1.495-.105-2.229h9.313c.038.644.057,1.3.057,1.939a31.979,31.979,0,0,1-5.489,17.97A32.242,32.242,0,0,1,44.652,61.757,31.947,31.947,0,0,1,32.141,64.282Z" transform="matrix(0.259, -0.966, 0.966, 0.259, 0.354, 62.414)" fill="url(#linear-gradient)"/>
    <circle id="Ellipse_11" data-name="Ellipse 11" cx="24" cy="24" r="24" transform="translate(16 16.192)" fill="#fff"/>
    <text id="_75_" data-name="75%" transform="translate(26.749 46.068)" fill="#002538" font-size="19" font-family="Helvetica-Bold, Helvetica" font-weight="700" letter-spacing="-0.034em"><tspan x="0" y="0">75</tspan><tspan y="0" font-size="11.083" baseline-shift="6.332699871831665">%</tspan></text>
  </g>
</svg>
