<svg xmlns="http://www.w3.org/2000/svg" width="664.558" height="544.364" viewBox="0 0 664.558 544.364">
  <g id="Group_208" data-name="Group 208" opacity="0.067">
    <path id="Path_6" data-name="Path 6" d="M3199.455,702.779c10.068-17.089,14.811-37.616,7.424-56.774-9.775-25.32-38.691-41.459-65.088-31.451-23.762,9.025-38.828,33.848-36.4,59.106,2.521,26.069,23.219,46.845,48.648,51.28,20.295,3.533,42.75-11.127,45.432-32.152,2.688-21.212-10.494-41.647-32.158-45.428-2.986-.592-2.689-.436.887.435a16.26,16.26,0,0,1,8.016,3.892c1.373,1.509,2.74,3.035,4.109,4.544a17.512,17.512,0,0,1-2.205-3.423q2.49,4.646,4.992,9.29a17.694,17.694,0,0,1-1.369-3.844c.793,3.423,1.572,6.862,2.367,10.287-.516-4.03-.748-2.661-.732,4.11.574-2.989.4-2.693-.5.855a16.107,16.107,0,0,1-4.012,7.951q-7.605,6.281-2.289,2.647-4.644,2.5-9.291,5c.734-.3,1.449-.591,2.184-.9-3.428.8-6.865,1.572-10.289,2.366.76-.14,1.537-.3,2.3-.436a24.854,24.854,0,0,1-17.855-4.264,13.019,13.019,0,0,1-5.23-4.232q-3.888-4.507-1.365-1.028-2.5-4.644-5-9.29a23.607,23.607,0,0,1,1.975,4.871c-.789-3.424-1.564-6.864-2.361-10.288,1.061,5.836,1.865-8.108.59-3.439-1.184,4.265,4.2-9.151.824-2.179-1.643,3.409-3.359,6.708-5.289,9.977-4.795,8.138-4.172,21.663-1,30.1,3.393,9.027,11.471,18.318,20.574,21.991,9.449,3.813,20.451,5.12,30.1,1,10.166-4.342,16.4-11.111,21.988-20.574h0Z" transform="translate(-2968.101 -611.55)" fill="#002538"/>
    <path id="Path_7" data-name="Path 7" d="M3350.533,693.359c-7.25,29.584,12.717,57.349,42.412,61.457,26.906,3.72,56.445-15.812,63.418-42.33a53.522,53.522,0,0,0-34.8-64.415c-22.381-7.673-52,3.533-61.99,25.6-4.357,9.618-6.779,18.785-4.139,29.367,2.385,9.478,9.588,19.811,18.4,24.433,8.875,4.638,19.518,7.066,29.387,4.125,9.553-2.848,20.119-8.9,24.436-18.4a12.556,12.556,0,0,1,1.412-2.675c-2.162,2.77-4.326,5.556-6.49,8.325a18.894,18.894,0,0,1,3.209-3.19c-2.82,2.1-5.637,4.218-8.457,6.319a13.485,13.485,0,0,1,2.646-1.479c-3.158,1.245-6.314,2.506-9.492,3.752a20.4,20.4,0,0,1,4.406-1.09c-3.334.389-6.664.792-9.992,1.182a12.262,12.262,0,0,1,3.02.14c-3.33-.467-6.646-.918-9.979-1.385a11.545,11.545,0,0,1,2.9.888c-3.145-1.308-6.271-2.63-9.418-3.938a12.169,12.169,0,0,1,2.57,1.587c-2.77-2.164-5.559-4.327-8.322-6.489a14.154,14.154,0,0,1,2.143,2.132q-3.149-4.225-6.32-8.451a20.947,20.947,0,0,1,2.26,3.953c-1.244-3.159-2.5-6.319-3.752-9.494a13.32,13.32,0,0,1,.746,2.941c-.385-3.331-.789-6.661-1.18-9.992a12.2,12.2,0,0,1,.045,3.02c.469-3.331.92-6.646,1.385-9.976a13.116,13.116,0,0,1-.887,3.439c1.309-3.144,2.633-6.271,3.938-9.415a16.878,16.878,0,0,1-2.021,3.563c2.162-2.77,4.326-5.556,6.49-8.326a33.281,33.281,0,0,1-5.791,5.572c2.816-2.1,5.633-4.219,8.447-6.318a34.467,34.467,0,0,1-4.867,2.691c3.16-1.246,6.32-2.5,9.494-3.75a23.814,23.814,0,0,1-5.295,1.245c3.332-.389,6.664-.793,9.99-1.183h-1.8c3.328.467,6.646.918,9.977,1.385a11.388,11.388,0,0,1-3.238-.669c3.145,1.307,6.271,2.63,9.416,3.938a10.609,10.609,0,0,1-2.646-1.448c2.771,2.163,5.555,4.327,8.322,6.49a11.727,11.727,0,0,1-2.172-2.1c2.1,2.817,4.215,5.634,6.313,8.452a10.927,10.927,0,0,1-1.506-2.553c1.242,3.159,2.506,6.319,3.752,9.494a8.213,8.213,0,0,1-.637-2.8c.385,3.33.789,6.661,1.182,9.991.016-.482.045-.948.061-1.431-.469,3.314-.916,6.645-1.383,9.975l.354-1.431c4.908-19.984-6.506-43.545-27.607-48.322-20.338-4.607-43.072,6.225-48.32,27.608h0Z" transform="translate(-2832.42 -592.574)" fill="#002538"/>
    <path id="Path_8" data-name="Path 8" d="M3020.826,819.422c56.885,128.782,174.213,233.568,316.988,251.667,134.57,17.058,271.9-47.761,338.475-166.677,24.781-44.246-43.186-83.963-67.945-39.717-54.5,97.331-169.824,147.629-279.078,125.609-112.062-22.583-195.652-109.1-240.488-210.6-20.422-46.222-88.242-6.225-67.951,39.716Z" transform="translate(-3017.081 -529.423)" fill="#002538"/>
  </g>
</svg>
