<svg id="PayPal" xmlns="http://www.w3.org/2000/svg" width="27.532" height="28.637" viewBox="0 0 27.532 28.637">
  <path id="Path_32" data-name="Path 32" d="M38.964,6.749H36.822A.3.3,0,0,0,36.528,7l-.866,5.491a.178.178,0,0,0,.177.206h1.022a.3.3,0,0,0,.294-.251l.234-1.481a.3.3,0,0,1,.294-.251h.678A2.2,2.2,0,0,0,40.8,8.678,1.649,1.649,0,0,0,40.525,7.3,1.987,1.987,0,0,0,38.964,6.749Zm.247,2.006c-.117.768-.7.768-1.272.768h-.323l.227-1.435a.178.178,0,0,1,.176-.151h.148c.387,0,.752,0,.94.22A.714.714,0,0,1,39.211,8.755Z" transform="translate(-35.66 14.552)" fill="#253b80"/>
  <path id="Path_33" data-name="Path 33" d="M56.014,12.863H54.989a.179.179,0,0,0-.176.151l-.045.287-.072-.1a1.46,1.46,0,0,0-1.211-.43,2.358,2.358,0,0,0-2.29,2.062,1.936,1.936,0,0,0,.382,1.575,1.6,1.6,0,0,0,1.292.522,1.962,1.962,0,0,0,1.419-.587l-.046.285a.178.178,0,0,0,.176.207h.924a.3.3,0,0,0,.294-.251l.554-3.51A.178.178,0,0,0,56.014,12.863Zm-1.429,2a1.143,1.143,0,0,1-1.157.979.794.794,0,0,1-.85-1,1.148,1.148,0,0,1,1.149-.987.865.865,0,0,1,.684.279A.888.888,0,0,1,54.585,14.859Z" transform="translate(-46.309 10.418)" fill="#253b80"/>
  <path id="Path_34" data-name="Path 34" d="M73.615,13.075h-1.03a.3.3,0,0,0-.246.131L70.917,15.3l-.6-2.012a.3.3,0,0,0-.286-.212H69.016a.179.179,0,0,0-.169.236l1.135,3.331-1.067,1.506a.178.178,0,0,0,.146.282H70.09a.3.3,0,0,0,.245-.128l3.428-4.947A.178.178,0,0,0,73.615,13.075Z" transform="translate(-58.449 10.207)" fill="#253b80"/>
  <path id="Path_35" data-name="Path 35" d="M87.745,6.749H85.6A.3.3,0,0,0,85.309,7l-.866,5.491a.178.178,0,0,0,.176.206h1.1a.208.208,0,0,0,.205-.176l.246-1.557a.3.3,0,0,1,.294-.251h.678a2.2,2.2,0,0,0,2.438-2.035A1.648,1.648,0,0,0,89.305,7.3,1.985,1.985,0,0,0,87.745,6.749Zm.247,2.006c-.117.768-.7.768-1.272.768H86.4l.227-1.435a.178.178,0,0,1,.176-.151h.148c.386,0,.751,0,.94.22A.714.714,0,0,1,87.992,8.755Z" transform="translate(-69.166 14.552)" fill="#179bd7"/>
  <path id="Path_36" data-name="Path 36" d="M104.8,12.863h-1.025a.178.178,0,0,0-.176.151l-.045.287-.072-.1a1.459,1.459,0,0,0-1.211-.43,2.358,2.358,0,0,0-2.289,2.062,1.937,1.937,0,0,0,.382,1.575,1.605,1.605,0,0,0,1.292.522,1.962,1.962,0,0,0,1.419-.587l-.046.285a.178.178,0,0,0,.177.207h.923a.3.3,0,0,0,.294-.251l.555-3.51A.179.179,0,0,0,104.8,12.863Zm-1.429,2a1.142,1.142,0,0,1-1.157.979.794.794,0,0,1-.85-1,1.148,1.148,0,0,1,1.149-.987.865.865,0,0,1,.684.279A.883.883,0,0,1,103.368,14.859Z" transform="translate(-79.818 10.418)" fill="#179bd7"/>
  <path id="Path_37" data-name="Path 37" d="M117.362,6.9l-.879,5.592a.178.178,0,0,0,.176.206h.884a.3.3,0,0,0,.294-.251l.867-5.491a.178.178,0,0,0-.176-.206h-.989A.179.179,0,0,0,117.362,6.9Z" transform="translate(-91.173 14.553)" fill="#179bd7"/>
  <path id="Path_38" data-name="Path 38" d="M5.234,19.941l.352-2.234L4.8,17.689H1.061L3.661,1.2a.218.218,0,0,1,.073-.129.212.212,0,0,1,.139-.051H10.18c2.094,0,3.539.436,4.294,1.3a2.955,2.955,0,0,1,.688,1.289,4.654,4.654,0,0,1,0,1.778l-.008.052v.455l.354.2a2.481,2.481,0,0,1,.716.546,2.543,2.543,0,0,1,.581,1.3,5.513,5.513,0,0,1-.083,1.891,6.659,6.659,0,0,1-.775,2.141,4.4,4.4,0,0,1-1.227,1.345,4.979,4.979,0,0,1-1.653.746,8.243,8.243,0,0,1-2.066.239h-.491a1.476,1.476,0,0,0-1.46,1.246l-.037.2L8.4,19.689l-.028.145a.124.124,0,0,1-.039.084.1.1,0,0,1-.065.024Z" transform="translate(6.327 -0.335)" fill="#253b80"/>
  <path id="Path_39" data-name="Path 39" d="M17.526,7.667h0q-.028.181-.065.37c-.832,4.271-3.678,5.746-7.313,5.746H8.3a.9.9,0,0,0-.888.761h0l-.948,6.009-.268,1.7a.474.474,0,0,0,.467.547H9.944a.79.79,0,0,0,.78-.666l.032-.167.618-3.922.04-.215a.789.789,0,0,1,.78-.667h.491c3.18,0,5.67-1.291,6.4-5.028a4.281,4.281,0,0,0-.658-3.781A3.139,3.139,0,0,0,17.526,7.667Z" transform="translate(4.648 -2.511)" fill="#179bd7"/>
  <path id="Path_40" data-name="Path 40" d="M17.251,7.006q-.191-.055-.393-.1t-.416-.079a10.278,10.278,0,0,0-1.631-.119H9.866a.788.788,0,0,0-.779.667L8.035,14.036l-.03.194a.9.9,0,0,1,.888-.761h1.851c3.635,0,6.481-1.476,7.313-5.746.025-.126.046-.249.065-.37a4.434,4.434,0,0,0-.684-.288C17.377,7.044,17.314,7.024,17.251,7.006Z" transform="translate(4.053 -2.197)" fill="#222d65"/>
  <path id="Path_41" data-name="Path 41" d="M6.465,5.177a.789.789,0,0,1,.779-.666h4.944a10.278,10.278,0,0,1,1.631.119q.214.034.416.079t.393.1l.187.058a4.5,4.5,0,0,1,.684.288,4.034,4.034,0,0,0-.855-3.626C13.7.459,12.006,0,9.833,0H3.525a.9.9,0,0,0-.891.762L.007,17.416a.542.542,0,0,0,.535.627H4.436l.978-6.2Z" transform="translate(6.675 0)" fill="#253b80"/>
</svg>
