<svg xmlns="http://www.w3.org/2000/svg" width="1359.563" height="232.031" viewBox="0 0 1359.563 232.031">
  <path id="Subtraction_30" data-name="Subtraction 30" d="M1890,232.031H530.436c23.444-18.145,47.9-35.553,72.676-51.741,24.9-16.263,50.746-31.7,76.835-45.891,26.245-14.273,53.387-27.636,80.672-39.719,27.489-12.173,55.813-23.35,84.185-33.222,28.625-9.96,58.023-18.843,87.376-26.4,29.653-7.636,60.015-14.116,90.243-19.259,30.572-5.2,61.79-9.169,92.787-11.793,31.381-2.656,63.346-4,95.009-4s63.628,1.347,95.008,4c31,2.623,62.216,6.591,92.787,11.793,30.229,5.143,60.591,11.623,90.243,19.259,29.354,7.559,58.751,16.443,87.376,26.4,28.373,9.872,56.7,21.05,84.185,33.222,27.286,12.083,54.428,25.446,80.671,39.719,26.089,14.188,51.94,29.628,76.836,45.891,24.786,16.192,49.237,33.6,72.673,51.739l0,0h0Z" transform="translate(-530.437)" fill="#ffc800"/>
</svg>
