<svg xmlns="http://www.w3.org/2000/svg" width="24" height="24" viewBox="0 0 24 24">
  <path d="M13.4,14.931c4.01-2.324,6.559-5.069,6.294-8.906-.47-6.821-8.248-6.263-9.748-2.382A4.572,4.572,0,0,0,6.422.133C3.325-.545.147,1.376.005,5.607c-.171,5.124,3.951,7.414,5.523,8.769,2.451,2.113,2.035,3.382,2.035,3.382s4.347-1.964,5.835-2.827Z" fill="#ffc800"/>
  <g transform="translate(4.2, 4.6) scale(0.8)">
    <path d="M1.427,1.381A.991.991,0,0,0,1.54.521.786.786,0,0,0,.555.045.876.876,0,0,0,0,.94a.889.889,0,0,0,.736.776.6.6,0,0,0,.688-.487A.607.607,0,0,0,.941.542z" fill="#002538"/>
    <path d="M.023.722a.754.754,0,0,0,.642.93.913.913,0,0,0,.96-.641A.81.81,0,0,0,1.1.036.8.8,0,0,0,.159.424z" transform="translate(7.8 0.8)" fill="#002538"/>
    <path d="M.057.912a6.3,6.3,0,0,0,4.8,3.809A5.155,5.155,0,0,0,9.976,2.2c.375-.67-.654-1.271-1.028-.6A3.971,3.971,0,0,1,4.724,3.5,5.267,5.267,0,0,1,1.085.311z" transform="translate(0 3.5)" fill="#002538"/>
  </g>
</svg>
