<svg xmlns="http://www.w3.org/2000/svg" xmlns:xlink="http://www.w3.org/1999/xlink" width="36.889" height="44.037" viewBox="0 0 36.889 44.037">
  <defs>
    <radialGradient id="radial-gradient" cx="0.5" cy="0.5" r="0.5" gradientTransform="translate(0)" gradientUnits="objectBoundingBox">
      <stop offset="0.18" stop-color="#ffc800"/>
      <stop offset="0.19" stop-color="#ffc802"/>
      <stop offset="0.37" stop-color="#ffd84d"/>
      <stop offset="0.54" stop-color="#ffe68c"/>
      <stop offset="0.69" stop-color="#fff0be"/>
      <stop offset="0.82" stop-color="#fff8e1"/>
      <stop offset="0.93" stop-color="#fffdf7"/>
      <stop offset="1" stop-color="#fff"/>
    </radialGradient>
  </defs>
  <g id="Group_210" data-name="Group 210" transform="translate(-6673 -1679.963)">
    <g id="Group_83" data-name="Group 83" transform="translate(6673 1679.963)">
      <g id="security" transform="translate(0 17.733)">
        <path id="Path_59" data-name="Path 59" d="M63.758,66.191l-2.433-2.433L60,65.082l3.758,3.758,7.515-7.515L69.949,60Z" transform="translate(-54.363 -52.485)"/>
        <path id="Path_60" data-name="Path 60" d="M35.273,38.3l-5.8-3.094A10.317,10.317,0,0,1,24,26.091V13.879A1.881,1.881,0,0,1,25.879,12H44.667a1.881,1.881,0,0,1,1.879,1.879V26.091a10.317,10.317,0,0,1-5.471,9.119ZM25.879,13.879V26.091a8.441,8.441,0,0,0,4.477,7.461l4.917,2.622,4.917-2.621a8.441,8.441,0,0,0,4.477-7.462V13.879Z" transform="translate(-24 -12)"/>
      </g>
      <g id="Group_82" data-name="Group 82" transform="translate(2.681 0)">
        <g id="Group_9" data-name="Group 9" transform="translate(1.704 0) rotate(3)">
          <path id="Path_4" data-name="Path 4" d="M32.549,16.275A16.274,16.274,0,1,1,16.273,0,16.277,16.277,0,0,1,32.549,16.275Z" transform="translate(0 0)" opacity="0.7" fill="url(#radial-gradient)" style="mix-blend-mode: multiply;isolation: isolate"/>
          <g id="Group_4" data-name="Group 4" transform="translate(4.066 0.159)">
            <path id="Path_5" data-name="Path 5" d="M18.981,21.153c5.681-3.292,9.292-7.18,8.917-12.616C27.231-1.126,16.213-.337,14.088,5.162A6.477,6.477,0,0,0,9.1.189C4.71-.771.208,1.949.007,7.944c-.243,7.259,5.6,10.5,7.824,12.423,3.472,2.993,2.883,4.791,2.883,4.791s6.158-2.783,8.267-4Z" transform="translate(0 0)" fill="#ffc800"/>
            <g id="Group_3" data-name="Group 3" transform="translate(6.001 6.533)">
              <path id="Path_6" data-name="Path 6" d="M2.022,1.956A1.4,1.4,0,0,0,2.181.739,1.113,1.113,0,0,0,.786.064a1.241,1.241,0,0,0-.78,1.267,1.26,1.26,0,0,0,1.043,1.1.854.854,0,0,0,.974-.689A.859.859,0,0,0,1.333.768c-.064-.013-.058-.009.019.009A.349.349,0,0,1,1.524.86l.088.1A.375.375,0,0,1,1.565.885l.107.2A.378.378,0,0,1,1.642,1l.051.221c-.011-.086-.016-.057-.016.088.012-.064.009-.058-.011.018a.346.346,0,0,1-.086.17q-.163.135-.049.057l-.2.107.047-.019-.221.051.049-.009a.533.533,0,0,1-.383-.091A.279.279,0,0,1,.713,1.5Q.63,1.406.684,1.48l-.107-.2a.512.512,0,0,1,.042.1L.568,1.165c.023.125.04-.174.013-.074S.671.9.6,1.045c-.035.073-.072.144-.113.214A.845.845,0,0,0,.464,1.9.859.859,0,0,0,.9,2.375.849.849,0,0,0,1.55,2.4a.971.971,0,0,0,.471-.441h0Z" transform="translate(2.938 0)" fill="#002538"/>
              <path id="Path_7" data-name="Path 7" d="M.032,1.023A1.068,1.068,0,0,0,.941,2.34,1.293,1.293,0,0,0,2.3,1.433,1.147,1.147,0,0,0,1.555.052,1.127,1.127,0,0,0,.226.6a.917.917,0,0,0-.089.63.863.863,0,0,0,.394.524.854.854,0,0,0,.63.088.824.824,0,0,0,.524-.394.268.268,0,0,1,.03-.057l-.139.178A.405.405,0,0,1,1.645,1.5l-.181.135A.29.29,0,0,1,1.521,1.6l-.2.08a.439.439,0,0,1,.094-.023L1.2,1.687a.263.263,0,0,1,.065,0l-.214-.03a.249.249,0,0,1,.062.019l-.2-.084a.261.261,0,0,1,.055.034L.785,1.49a.3.3,0,0,1,.046.046L.7,1.354a.452.452,0,0,1,.048.085l-.08-.2A.293.293,0,0,1,.68,1.3C.671,1.227.663,1.156.654,1.084a.263.263,0,0,1,0,.065c.01-.071.02-.142.03-.214a.288.288,0,0,1-.019.074L.75.807A.364.364,0,0,1,.707.883L.846.7A.715.715,0,0,1,.722.824L.9.689A.736.736,0,0,1,.8.747L1,.666A.513.513,0,0,1,.889.693L1.1.668H1.064L1.278.7A.245.245,0,0,1,1.209.683l.2.084A.227.227,0,0,1,1.354.736l.178.139A.247.247,0,0,1,1.486.83l.135.181A.232.232,0,0,1,1.589.957l.08.2a.176.176,0,0,1-.014-.06c.008.071.017.143.025.214,0-.01,0-.02,0-.031-.01.071-.02.142-.03.214l.008-.031A.856.856,0,0,0,1.068.431a.857.857,0,0,0-1.036.592h0Z" transform="translate(11.076 1.138)" fill="#002538"/>
              <path id="Path_8" data-name="Path 8" d="M.08,1.291a8.919,8.919,0,0,0,6.8,5.4,7.3,7.3,0,0,0,7.256-3.573c.531-.949-.926-1.8-1.457-.851A5.625,5.625,0,0,1,6.693,4.955,7.461,7.461,0,0,1,1.537.44C1.1-.551-.355.307.08,1.291Z" transform="translate(0 4.926)" fill="#002538"/>
            </g>
          </g>
        </g>
      </g>
    </g>
  </g>
</svg>
