<?xml version="1.0"?>
<svg xmlns="http://www.w3.org/2000/svg" viewBox="0 0 100 100" width="1024" height="1024">
<defs>
  <filter id="wc-loose" x="-30%" y="-30%" width="160%" height="160%" color-interpolation-filters="sRGB"><feTurbulence type="fractalNoise" baseFrequency="0.012" numOctaves="3" seed="3" result="t"></feTurbulence><feDisplacementMap in="SourceGraphic" in2="t" scale="14"></feDisplacementMap><feGaussianBlur stdDeviation="1.4"></feGaussianBlur></filter>
  <filter id="wc-wet" x="-25%" y="-25%" width="150%" height="150%" color-interpolation-filters="sRGB"><feTurbulence type="fractalNoise" baseFrequency="0.022" numOctaves="3" seed="5" result="t"></feTurbulence><feDisplacementMap in="SourceGraphic" in2="t" scale="9" result="disp"></feDisplacementMap><feMorphology in="disp" operator="erode" radius="1.6" result="eroded"></feMorphology><feComposite in="disp" in2="eroded" operator="out" result="ring"></feComposite><feColorMatrix in="ring" values="0.55 0 0 0 0   0 0.55 0 0 0   0 0 0.55 0 0   0 0 0 1.4 0" result="darkRing"></feColorMatrix><feMerge><feMergeNode in="disp"></feMergeNode><feMergeNode in="darkRing"></feMergeNode></feMerge></filter>
  <filter id="wc-tight" x="-25%" y="-25%" width="150%" height="150%" color-interpolation-filters="sRGB"><feTurbulence type="fractalNoise" baseFrequency="0.08" numOctaves="2" seed="7" result="t"></feTurbulence><feDisplacementMap in="SourceGraphic" in2="t" scale="3"></feDisplacementMap><feGaussianBlur stdDeviation="0.35"></feGaussianBlur></filter>
  <filter id="pencil" x="-8%" y="-8%" width="116%" height="116%" color-interpolation-filters="sRGB"><feTurbulence type="fractalNoise" baseFrequency="0.6" numOctaves="2" seed="2" result="t"></feTurbulence><feDisplacementMap in="SourceGraphic" in2="t" scale="1.4"></feDisplacementMap></filter>
</defs>
<path d="M50 50 C32 50 24 64 26 76 C28 86 42 90 50 90 C58 90 72 86 74 76 C76 64 68 50 50 50 Z" fill="#9a5f33" opacity="0.14" filter="url(#wc-loose)" style="mix-blend-mode:multiply"></path><path d="M50 50 C36 50 28 62 30 72 C32 80 42 84 50 84 C58 84 68 80 70 72 C72 62 64 50 50 50 Z" fill="#9a5f33" opacity="0.55" filter="url(#wc-wet)" style="mix-blend-mode:multiply"></path><path d="M44 60 C38 64 38 74 44 78 C50 82 56 80 58 76 C60 70 56 62 50 60 Z" fill="#ec8064" opacity="0.45" filter="url(#wc-tight)" style="mix-blend-mode:multiply"></path><path d="M30 38 C26 32 28 24 34 22 C40 20 44 26 44 32 C44 38 38 42 34 42 C32 42 31 40 30 38 Z" fill="#cf9d57" opacity="0.55" filter="url(#wc-wet)" style="mix-blend-mode:multiply"></path><path d="M56 30 C56 22 62 18 68 22 C74 26 74 36 70 40 C66 44 60 42 58 38 C57 36 56 32 56 30 Z" fill="#cf9d57" opacity="0.55" filter="url(#wc-wet)" style="mix-blend-mode:multiply"></path><path d="M14 56 C12 50 16 44 22 44 C28 44 32 50 30 56 C28 62 22 64 18 62 C16 60 15 58 14 56 Z" fill="#cf9d57" opacity="0.55" filter="url(#wc-wet)" style="mix-blend-mode:multiply"></path><path d="M86 56 C88 50 84 44 78 44 C72 44 68 50 70 56 C72 62 78 64 82 62 C84 60 85 58 86 56 Z" fill="#cf9d57" opacity="0.55" filter="url(#wc-wet)" style="mix-blend-mode:multiply"></path><path d="M 33 30 a 3 3 0 1 0 6 0 a 3 3 0 1 0 -6 0" fill="#9a5f33" opacity="0.5" filter="url(#wc-tight)" style="mix-blend-mode:multiply"></path><path d="M 63 28 a 3 3 0 1 0 6 0 a 3 3 0 1 0 -6 0" fill="#9a5f33" opacity="0.5" filter="url(#wc-tight)" style="mix-blend-mode:multiply"></path><path d="M 17.5 52 a 2.5 2.5 0 1 0 5 0 a 2.5 2.5 0 1 0 -5 0" fill="#9a5f33" opacity="0.4" filter="url(#wc-tight)" style="mix-blend-mode:multiply"></path><path d="M 77.5 52 a 2.5 2.5 0 1 0 5 0 a 2.5 2.5 0 1 0 -5 0" fill="#9a5f33" opacity="0.4" filter="url(#wc-tight)" style="mix-blend-mode:multiply"></path><circle cx="10" cy="80" r="1.2" fill="#9a5f33" opacity="0.6" filter="url(#wc-tight)" style="mix-blend-mode:multiply"></circle><circle cx="90" cy="86" r="1.4" fill="#cf9d57" opacity="0.6" filter="url(#wc-tight)" style="mix-blend-mode:multiply"></circle><circle cx="50" cy="14" r="1" fill="#ec8064" opacity="0.6" filter="url(#wc-tight)" style="mix-blend-mode:multiply"></circle><circle cx="6" cy="40" r="0.9" fill="#9a5f33" opacity="0.55" filter="url(#wc-tight)" style="mix-blend-mode:multiply"></circle><circle cx="94" cy="40" r="0.8" fill="#cf9d57" opacity="0.6" filter="url(#wc-tight)" style="mix-blend-mode:multiply"></circle><circle cx="40" cy="92" r="1.1" fill="#ec8064" opacity="0.5" filter="url(#wc-tight)" style="mix-blend-mode:multiply"></circle><path d="M50 52 C38 52 30 62 32 72 C34 80 42 82 50 82 C58 82 66 80 68 72 C70 62 62 52 50 52 Z" fill="none" stroke="#2c2632" stroke-width="1.1" stroke-linecap="round" stroke-linejoin="round" opacity="0.6" filter="url(#pencil)"></path><path d="M32 38 C28 32 30 24 36 22 C42 20 44 28 44 32 C44 38 38 42 34 42 C32 42 32 40 32 38 Z" fill="none" stroke="#2c2632" stroke-width="1.1" stroke-linecap="round" stroke-linejoin="round" opacity="0.55" filter="url(#pencil)"></path><path d="M56 30 C56 22 62 18 68 22 C74 26 74 36 70 40 C66 44 60 42 58 38 C57 36 56 32 56 30 Z" fill="none" stroke="#2c2632" stroke-width="1.1" stroke-linecap="round" stroke-linejoin="round" opacity="0.55" filter="url(#pencil)"></path><path d="M16 56 C14 50 18 44 24 44 C30 44 32 50 30 56 C28 62 22 64 18 62 C16 60 16 58 16 56 Z" fill="none" stroke="#2c2632" stroke-width="1.1" stroke-linecap="round" stroke-linejoin="round" opacity="0.55" filter="url(#pencil)"></path><path d="M84 56 C86 50 82 44 76 44 C70 44 68 50 70 56 C72 62 78 64 82 62 C84 60 84 58 84 56 Z" fill="none" stroke="#2c2632" stroke-width="1.1" stroke-linecap="round" stroke-linejoin="round" opacity="0.55" filter="url(#pencil)"></path>
</svg>