<?xml version="1.0"?>
<svg xmlns="http://www.w3.org/2000/svg" viewBox="0 0 100 100" width="1024" height="1024">
<defs>
  <filter id="wc-loose" x="-30%" y="-30%" width="160%" height="160%" color-interpolation-filters="sRGB"><feTurbulence type="fractalNoise" baseFrequency="0.012" numOctaves="3" seed="3" result="t"></feTurbulence><feDisplacementMap in="SourceGraphic" in2="t" scale="14"></feDisplacementMap><feGaussianBlur stdDeviation="1.4"></feGaussianBlur></filter>
  <filter id="wc-wet" x="-25%" y="-25%" width="150%" height="150%" color-interpolation-filters="sRGB"><feTurbulence type="fractalNoise" baseFrequency="0.022" numOctaves="3" seed="5" result="t"></feTurbulence><feDisplacementMap in="SourceGraphic" in2="t" scale="9" result="disp"></feDisplacementMap><feMorphology in="disp" operator="erode" radius="1.6" result="eroded"></feMorphology><feComposite in="disp" in2="eroded" operator="out" result="ring"></feComposite><feColorMatrix in="ring" values="0.55 0 0 0 0   0 0.55 0 0 0   0 0 0.55 0 0   0 0 0 1.4 0" result="darkRing"></feColorMatrix><feMerge><feMergeNode in="disp"></feMergeNode><feMergeNode in="darkRing"></feMergeNode></feMerge></filter>
  <filter id="wc-tight" x="-25%" y="-25%" width="150%" height="150%" color-interpolation-filters="sRGB"><feTurbulence type="fractalNoise" baseFrequency="0.08" numOctaves="2" seed="7" result="t"></feTurbulence><feDisplacementMap in="SourceGraphic" in2="t" scale="3"></feDisplacementMap><feGaussianBlur stdDeviation="0.35"></feGaussianBlur></filter>
  <filter id="pencil" x="-8%" y="-8%" width="116%" height="116%" color-interpolation-filters="sRGB"><feTurbulence type="fractalNoise" baseFrequency="0.6" numOctaves="2" seed="2" result="t"></feTurbulence><feDisplacementMap in="SourceGraphic" in2="t" scale="1.4"></feDisplacementMap></filter>
</defs>
<path d="M10 38 L90 38 L90 82 L10 82 Z" fill="#454fb0" opacity="0.14" filter="url(#wc-loose)" style="mix-blend-mode:multiply"></path><path d="M14 40 L86 40 L86 78 L14 78 Z" fill="#454fb0" opacity="0.55" filter="url(#wc-wet)" style="mix-blend-mode:multiply"></path><path d="M14 52 L86 52 L86 78 L14 78 Z" fill="#7e60b8" opacity="0.45" filter="url(#wc-tight)" style="mix-blend-mode:multiply"></path><path d="M36 20 L64 20 L64 36 L36 36 Z" fill="#6c7a98" opacity="0.55" filter="url(#wc-tight)" style="mix-blend-mode:multiply"></path><path d="M 43 60 a 7 7 0 1 0 14 0 a 7 7 0 1 0 -14 0" fill="#bd4a8c" opacity="0.35" filter="url(#wc-tight)" style="mix-blend-mode:multiply"></path><path d="M 20 64 a 4 4 0 1 0 8 0 a 4 4 0 1 0 -8 0" fill="#454fb0" opacity="0.4" filter="url(#wc-tight)" style="mix-blend-mode:multiply"></path><path d="M 74 48 a 4 4 0 1 0 8 0 a 4 4 0 1 0 -8 0" fill="#7e60b8" opacity="0.4" filter="url(#wc-tight)" style="mix-blend-mode:multiply"></path><circle cx="8" cy="84" r="1.3" fill="#454fb0" opacity="0.65" filter="url(#wc-tight)" style="mix-blend-mode:multiply"></circle><circle cx="92" cy="86" r="1.5" fill="#7e60b8" opacity="0.6" filter="url(#wc-tight)" style="mix-blend-mode:multiply"></circle><circle cx="50" cy="14" r="1" fill="#6c7a98" opacity="0.65" filter="url(#wc-tight)" style="mix-blend-mode:multiply"></circle><circle cx="6" cy="30" r="0.9" fill="#454fb0" opacity="0.55" filter="url(#wc-tight)" style="mix-blend-mode:multiply"></circle><circle cx="94" cy="30" r="1.1" fill="#bd4a8c" opacity="0.5" filter="url(#wc-tight)" style="mix-blend-mode:multiply"></circle><circle cx="36" cy="84" r="0.8" fill="#6c7a98" opacity="0.55" filter="url(#wc-tight)" style="mix-blend-mode:multiply"></circle><path d="M14 40 L86 40 L86 78 L14 78 Z" fill="none" stroke="#2c2632" stroke-width="1.1" stroke-linecap="round" stroke-linejoin="round" opacity="0.6" filter="url(#pencil)"></path><path d="M36 40 L36 24 L64 24 L64 40" fill="none" stroke="#2c2632" stroke-width="1.1" stroke-linecap="round" stroke-linejoin="round" opacity="0.55" filter="url(#pencil)"></path><path d="M14 56 L86 56" fill="none" stroke="#2c2632" stroke-width="1" stroke-linecap="round" stroke-linejoin="round" opacity="0.55" stroke-dasharray="4 1.5" filter="url(#pencil)"></path><path d="M46 52 L54 52 L54 60 L46 60 Z" fill="none" stroke="#2c2632" stroke-width="1" stroke-linecap="round" stroke-linejoin="round" opacity="0.7" filter="url(#pencil)"></path>
</svg>