<?xml version="1.0"?>
<svg xmlns="http://www.w3.org/2000/svg" viewBox="0 0 100 100" width="1024" height="1024">
<defs>
  <filter id="wc-loose" x="-30%" y="-30%" width="160%" height="160%" color-interpolation-filters="sRGB"><feTurbulence type="fractalNoise" baseFrequency="0.012" numOctaves="3" seed="3" result="t"></feTurbulence><feDisplacementMap in="SourceGraphic" in2="t" scale="14"></feDisplacementMap><feGaussianBlur stdDeviation="1.4"></feGaussianBlur></filter>
  <filter id="wc-wet" x="-25%" y="-25%" width="150%" height="150%" color-interpolation-filters="sRGB"><feTurbulence type="fractalNoise" baseFrequency="0.022" numOctaves="3" seed="5" result="t"></feTurbulence><feDisplacementMap in="SourceGraphic" in2="t" scale="9" result="disp"></feDisplacementMap><feMorphology in="disp" operator="erode" radius="1.6" result="eroded"></feMorphology><feComposite in="disp" in2="eroded" operator="out" result="ring"></feComposite><feColorMatrix in="ring" values="0.55 0 0 0 0   0 0.55 0 0 0   0 0 0.55 0 0   0 0 0 1.4 0" result="darkRing"></feColorMatrix><feMerge><feMergeNode in="disp"></feMergeNode><feMergeNode in="darkRing"></feMergeNode></feMerge></filter>
  <filter id="wc-tight" x="-25%" y="-25%" width="150%" height="150%" color-interpolation-filters="sRGB"><feTurbulence type="fractalNoise" baseFrequency="0.08" numOctaves="2" seed="7" result="t"></feTurbulence><feDisplacementMap in="SourceGraphic" in2="t" scale="3"></feDisplacementMap><feGaussianBlur stdDeviation="0.35"></feGaussianBlur></filter>
  <filter id="pencil" x="-8%" y="-8%" width="116%" height="116%" color-interpolation-filters="sRGB"><feTurbulence type="fractalNoise" baseFrequency="0.6" numOctaves="2" seed="2" result="t"></feTurbulence><feDisplacementMap in="SourceGraphic" in2="t" scale="1.4"></feDisplacementMap></filter>
</defs>
<path d="M10 70 C10 56 22 46 50 46 C78 46 90 56 90 70 Z" fill="#d8678a" opacity="0.14" filter="url(#wc-loose)" style="mix-blend-mode:multiply"></path><path d="M 19 32 a 9 9 0 1 0 18 0 a 9 9 0 1 0 -18 0" fill="#5da556" opacity="0.55" filter="url(#wc-wet)" style="mix-blend-mode:multiply"></path><path d="M 63 32 a 9 9 0 1 0 18 0 a 9 9 0 1 0 -18 0" fill="#e8a233" opacity="0.55" filter="url(#wc-wet)" style="mix-blend-mode:multiply"></path><path d="M 38 24 a 12 12 0 1 0 24 0 a 12 12 0 1 0 -24 0" fill="#d8678a" opacity="0.55" filter="url(#wc-wet)" style="mix-blend-mode:multiply"></path><path d="M50 38 C36 38 28 48 28 64 L72 64 C72 48 64 38 50 38 Z" fill="#d8678a" opacity="0.45" filter="url(#wc-wet)" style="mix-blend-mode:multiply"></path><path d="M14 56 C14 48 20 42 28 42 C36 42 42 48 42 56 L42 64 L14 64 Z" fill="#5da556" opacity="0.45" filter="url(#wc-tight)" style="mix-blend-mode:multiply"></path><path d="M58 56 C58 48 64 42 72 42 C80 42 86 48 86 56 L86 64 L58 64 Z" fill="#e8a233" opacity="0.45" filter="url(#wc-tight)" style="mix-blend-mode:multiply"></path><path d="M 44 28 a 6 6 0 1 0 12 0 a 6 6 0 1 0 -12 0" fill="#ec8064" opacity="0.35" filter="url(#wc-tight)" style="mix-blend-mode:multiply"></path><path d="M 24 34 a 4 4 0 1 0 8 0 a 4 4 0 1 0 -8 0" fill="#2e8a62" opacity="0.35" filter="url(#wc-tight)" style="mix-blend-mode:multiply"></path><path d="M 68 34 a 4 4 0 1 0 8 0 a 4 4 0 1 0 -8 0" fill="#eccc46" opacity="0.4" filter="url(#wc-tight)" style="mix-blend-mode:multiply"></path><circle cx="8" cy="72" r="1.2" fill="#5da556" opacity="0.6" filter="url(#wc-tight)" style="mix-blend-mode:multiply"></circle><circle cx="92" cy="74" r="1.4" fill="#e8a233" opacity="0.6" filter="url(#wc-tight)" style="mix-blend-mode:multiply"></circle><circle cx="50" cy="8" r="0.9" fill="#d8678a" opacity="0.7" filter="url(#wc-tight)" style="mix-blend-mode:multiply"></circle><circle cx="14" cy="18" r="0.8" fill="#2e8a62" opacity="0.55" filter="url(#wc-tight)" style="mix-blend-mode:multiply"></circle><circle cx="86" cy="18" r="1.1" fill="#eccc46" opacity="0.55" filter="url(#wc-tight)" style="mix-blend-mode:multiply"></circle><circle cx="50" cy="84" r="1" fill="#d8678a" opacity="0.5" filter="url(#wc-tight)" style="mix-blend-mode:multiply"></circle><path d="M50 24 m-10 0 a10 10 0 1 0 20 0 a10 10 0 1 0 -20 0" fill="none" stroke="#2c2632" stroke-width="1.1" stroke-linecap="round" stroke-linejoin="round" opacity="0.55" filter="url(#pencil)"></path><path d="M28 32 m-8 0 a8 8 0 1 0 16 0 a8 8 0 1 0 -16 0" fill="none" stroke="#2c2632" stroke-width="1.1" stroke-linecap="round" stroke-linejoin="round" opacity="0.55" filter="url(#pencil)"></path><path d="M72 32 m-8 0 a8 8 0 1 0 16 0 a8 8 0 1 0 -16 0" fill="none" stroke="#2c2632" stroke-width="1.1" stroke-linecap="round" stroke-linejoin="round" opacity="0.55" filter="url(#pencil)"></path><path d="M30 62 C30 50 38 40 50 40 C62 40 70 50 70 62" fill="none" stroke="#2c2632" stroke-width="1.1" stroke-linecap="round" stroke-linejoin="round" opacity="0.55" filter="url(#pencil)"></path><path d="M14 62 C14 54 20 46 28 46" fill="none" stroke="#2c2632" stroke-width="1.1" stroke-linecap="round" stroke-linejoin="round" opacity="0.5" filter="url(#pencil)"></path><path d="M86 62 C86 54 80 46 72 46" fill="none" stroke="#2c2632" stroke-width="1.1" stroke-linecap="round" stroke-linejoin="round" opacity="0.5" filter="url(#pencil)"></path>
</svg>