<?xml version="1.0"?>
<svg xmlns="http://www.w3.org/2000/svg" viewBox="0 0 100 100" width="1024" height="1024">
<defs>
  <filter id="wc-loose" x="-30%" y="-30%" width="160%" height="160%" color-interpolation-filters="sRGB"><feTurbulence type="fractalNoise" baseFrequency="0.012" numOctaves="3" seed="3" result="t"></feTurbulence><feDisplacementMap in="SourceGraphic" in2="t" scale="14"></feDisplacementMap><feGaussianBlur stdDeviation="1.4"></feGaussianBlur></filter>
  <filter id="wc-wet" x="-25%" y="-25%" width="150%" height="150%" color-interpolation-filters="sRGB"><feTurbulence type="fractalNoise" baseFrequency="0.022" numOctaves="3" seed="5" result="t"></feTurbulence><feDisplacementMap in="SourceGraphic" in2="t" scale="9" result="disp"></feDisplacementMap><feMorphology in="disp" operator="erode" radius="1.6" result="eroded"></feMorphology><feComposite in="disp" in2="eroded" operator="out" result="ring"></feComposite><feColorMatrix in="ring" values="0.55 0 0 0 0   0 0.55 0 0 0   0 0 0.55 0 0   0 0 0 1.4 0" result="darkRing"></feColorMatrix><feMerge><feMergeNode in="disp"></feMergeNode><feMergeNode in="darkRing"></feMergeNode></feMerge></filter>
  <filter id="wc-tight" x="-25%" y="-25%" width="150%" height="150%" color-interpolation-filters="sRGB"><feTurbulence type="fractalNoise" baseFrequency="0.08" numOctaves="2" seed="7" result="t"></feTurbulence><feDisplacementMap in="SourceGraphic" in2="t" scale="3"></feDisplacementMap><feGaussianBlur stdDeviation="0.35"></feGaussianBlur></filter>
  <filter id="pencil" x="-8%" y="-8%" width="116%" height="116%" color-interpolation-filters="sRGB"><feTurbulence type="fractalNoise" baseFrequency="0.6" numOctaves="2" seed="2" result="t"></feTurbulence><feDisplacementMap in="SourceGraphic" in2="t" scale="1.4"></feDisplacementMap></filter>
</defs>
<path d="M50 12 C26 12 8 28 8 50 C8 66 22 76 36 76 C44 76 48 70 46 64 C44 58 40 56 42 50 C44 46 48 44 54 44 L64 44 C80 44 92 36 92 26 C92 16 74 12 50 12 Z" fill="#d8678a" opacity="0.16" filter="url(#wc-loose)" style="mix-blend-mode:multiply"></path><path d="M50 16 C28 16 14 32 14 50 C14 64 24 72 34 72 C40 72 42 68 42 64 C42 60 38 58 38 54 C38 50 42 46 48 46 L62 46 C76 46 86 38 86 28 C86 20 70 16 50 16 Z" fill="#d8678a" opacity="0.45" filter="url(#wc-wet)" style="mix-blend-mode:multiply"></path><path d="M50 22 C32 22 20 34 20 48" fill="#bd4a8c" opacity="0.35" filter="url(#wc-tight)" style="mix-blend-mode:multiply"></path><path d="M 24 32 a 6 6 0 1 0 12 0 a 6 6 0 1 0 -12 0" fill="#7e60b8" opacity="0.7" filter="url(#wc-tight)" style="mix-blend-mode:multiply"></path><path d="M 40 24 a 6 6 0 1 0 12 0 a 6 6 0 1 0 -12 0" fill="#eccc46" opacity="0.75" filter="url(#wc-tight)" style="mix-blend-mode:multiply"></path><path d="M 58 26 a 6 6 0 1 0 12 0 a 6 6 0 1 0 -12 0" fill="#2f9a9a" opacity="0.7" filter="url(#wc-tight)" style="mix-blend-mode:multiply"></path><path d="M 71 38 a 5 5 0 1 0 10 0 a 5 5 0 1 0 -10 0" fill="#5da556" opacity="0.7" filter="url(#wc-tight)" style="mix-blend-mode:multiply"></path><path d="M 24 52 a 4 4 0 1 0 8 0 a 4 4 0 1 0 -8 0" fill="#3c6fbd" opacity="0.6" filter="url(#wc-tight)" style="mix-blend-mode:multiply"></path><path d="M 27 64 a 3 3 0 1 0 6 0 a 3 3 0 1 0 -6 0" fill="#ec8064" opacity="0.65" filter="url(#wc-tight)" style="mix-blend-mode:multiply"></path><circle cx="8" cy="80" r="1.4" fill="#bd4a8c" opacity="0.65" filter="url(#wc-tight)" style="mix-blend-mode:multiply"></circle><circle cx="88" cy="80" r="1.6" fill="#eccc46" opacity="0.65" filter="url(#wc-tight)" style="mix-blend-mode:multiply"></circle><circle cx="50" cy="6" r="1" fill="#7e60b8" opacity="0.7" filter="url(#wc-tight)" style="mix-blend-mode:multiply"></circle><circle cx="12" cy="16" r="1" fill="#2f9a9a" opacity="0.6" filter="url(#wc-tight)" style="mix-blend-mode:multiply"></circle><circle cx="94" cy="16" r="1.2" fill="#5da556" opacity="0.6" filter="url(#wc-tight)" style="mix-blend-mode:multiply"></circle><circle cx="60" cy="80" r="1.1" fill="#ec8064" opacity="0.6" filter="url(#wc-tight)" style="mix-blend-mode:multiply"></circle><circle cx="40" cy="86" r="0.8" fill="#3c6fbd" opacity="0.6" filter="url(#wc-tight)" style="mix-blend-mode:multiply"></circle><circle cx="90" cy="52" r="0.9" fill="#d94b3e" opacity="0.6" filter="url(#wc-tight)" style="mix-blend-mode:multiply"></circle><path d="M50 18 C30 18 16 32 16 50 C16 64 24 72 34 72 C40 72 42 68 42 64 C42 60 38 58 38 54 C38 50 42 46 48 46 L62 46 C76 46 86 38 86 28 C86 20 70 18 50 18 Z" fill="none" stroke="#2c2632" stroke-width="1.1" stroke-linecap="round" stroke-linejoin="round" opacity="0.55" filter="url(#pencil)"></path><path d="M30 32 m-2.4 0 a2.4 2.4 0 1 0 4.8 0 a2.4 2.4 0 1 0 -4.8 0" fill="none" stroke="#2c2632" stroke-width="1" stroke-linecap="round" stroke-linejoin="round" opacity="0.65" filter="url(#pencil)"></path><path d="M46 24 m-2.4 0 a2.4 2.4 0 1 0 4.8 0 a2.4 2.4 0 1 0 -4.8 0" fill="none" stroke="#2c2632" stroke-width="1" stroke-linecap="round" stroke-linejoin="round" opacity="0.65" filter="url(#pencil)"></path><path d="M64 26 m-2.4 0 a2.4 2.4 0 1 0 4.8 0 a2.4 2.4 0 1 0 -4.8 0" fill="none" stroke="#2c2632" stroke-width="1" stroke-linecap="round" stroke-linejoin="round" opacity="0.65" filter="url(#pencil)"></path>
</svg>