<?xml version="1.0"?>
<svg xmlns="http://www.w3.org/2000/svg" viewBox="0 0 100 100" width="1024" height="1024">
<defs>
  <filter id="wc-loose" x="-30%" y="-30%" width="160%" height="160%" color-interpolation-filters="sRGB"><feTurbulence type="fractalNoise" baseFrequency="0.012" numOctaves="3" seed="3" result="t"></feTurbulence><feDisplacementMap in="SourceGraphic" in2="t" scale="14"></feDisplacementMap><feGaussianBlur stdDeviation="1.4"></feGaussianBlur></filter>
  <filter id="wc-wet" x="-25%" y="-25%" width="150%" height="150%" color-interpolation-filters="sRGB"><feTurbulence type="fractalNoise" baseFrequency="0.022" numOctaves="3" seed="5" result="t"></feTurbulence><feDisplacementMap in="SourceGraphic" in2="t" scale="9" result="disp"></feDisplacementMap><feMorphology in="disp" operator="erode" radius="1.6" result="eroded"></feMorphology><feComposite in="disp" in2="eroded" operator="out" result="ring"></feComposite><feColorMatrix in="ring" values="0.55 0 0 0 0   0 0.55 0 0 0   0 0 0.55 0 0   0 0 0 1.4 0" result="darkRing"></feColorMatrix><feMerge><feMergeNode in="disp"></feMergeNode><feMergeNode in="darkRing"></feMergeNode></feMerge></filter>
  <filter id="wc-tight" x="-25%" y="-25%" width="150%" height="150%" color-interpolation-filters="sRGB"><feTurbulence type="fractalNoise" baseFrequency="0.08" numOctaves="2" seed="7" result="t"></feTurbulence><feDisplacementMap in="SourceGraphic" in2="t" scale="3"></feDisplacementMap><feGaussianBlur stdDeviation="0.35"></feGaussianBlur></filter>
  <filter id="pencil" x="-8%" y="-8%" width="116%" height="116%" color-interpolation-filters="sRGB"><feTurbulence type="fractalNoise" baseFrequency="0.6" numOctaves="2" seed="2" result="t"></feTurbulence><feDisplacementMap in="SourceGraphic" in2="t" scale="1.4"></feDisplacementMap></filter>
</defs>
<path d="M6 44 L50 22 L94 44 L50 66 Z" fill="#3c6fbd" opacity="0.15" filter="url(#wc-loose)" style="mix-blend-mode:multiply"></path><path d="M10 44 L50 28 L90 44 L50 60 Z" fill="#3c6fbd" opacity="0.55" filter="url(#wc-wet)" style="mix-blend-mode:multiply"></path><path d="M22 52 L22 66 C22 72 36 76 50 76 C64 76 78 72 78 66 L78 52 L50 64 Z" fill="#2f9a9a" opacity="0.5" filter="url(#wc-tight)" style="mix-blend-mode:multiply"></path><path d="M 42 44 a 8 8 0 1 0 16 0 a 8 8 0 1 0 -16 0" fill="#454fb0" opacity="0.45" filter="url(#wc-tight)" style="mix-blend-mode:multiply"></path><path d="M 73 60 a 5 5 0 1 0 10 0 a 5 5 0 1 0 -10 0" fill="#3c6fbd" opacity="0.35" filter="url(#wc-tight)" style="mix-blend-mode:multiply"></path><path d="M 24 60 a 4 4 0 1 0 8 0 a 4 4 0 1 0 -8 0" fill="#2f9a9a" opacity="0.35" filter="url(#wc-tight)" style="mix-blend-mode:multiply"></path><circle cx="8" cy="72" r="1.2" fill="#3c6fbd" opacity="0.6" filter="url(#wc-tight)" style="mix-blend-mode:multiply"></circle><circle cx="92" cy="70" r="1.4" fill="#2f9a9a" opacity="0.6" filter="url(#wc-tight)" style="mix-blend-mode:multiply"></circle><circle cx="50" cy="12" r="0.9" fill="#454fb0" opacity="0.7" filter="url(#wc-tight)" style="mix-blend-mode:multiply"></circle><circle cx="18" cy="30" r="1" fill="#4da9cf" opacity="0.55" filter="url(#wc-tight)" style="mix-blend-mode:multiply"></circle><circle cx="82" cy="30" r="0.8" fill="#3c6fbd" opacity="0.6" filter="url(#wc-tight)" style="mix-blend-mode:multiply"></circle><circle cx="60" cy="82" r="1.1" fill="#2f9a9a" opacity="0.5" filter="url(#wc-tight)" style="mix-blend-mode:multiply"></circle><path d="M10 44 L50 28 L90 44 L50 60 Z" fill="none" stroke="#2c2632" stroke-width="1.1" stroke-linecap="round" stroke-linejoin="round" opacity="0.55" filter="url(#pencil)"></path><path d="M22 52 L22 66 C22 72 36 76 50 76 C64 76 78 72 78 66 L78 52" fill="none" stroke="#2c2632" stroke-width="1.1" stroke-linecap="round" stroke-linejoin="round" opacity="0.55" filter="url(#pencil)"></path><path d="M82 46 L82 64" fill="none" stroke="#2c2632" stroke-width="1" stroke-linecap="round" stroke-linejoin="round" opacity="0.7" stroke-dasharray="4 1.5" filter="url(#pencil)"></path><path d="M82 66 m-2 0 a2 2 0 1 0 4 0 a2 2 0 1 0 -4 0" fill="none" stroke="#2c2632" stroke-width="1" stroke-linecap="round" stroke-linejoin="round" opacity="0.75" filter="url(#pencil)"></path>
</svg>