<?xml version="1.0"?>
<svg xmlns="http://www.w3.org/2000/svg" viewBox="0 0 100 100" width="1024" height="1024">
<defs>
  <filter id="wc-loose" x="-30%" y="-30%" width="160%" height="160%" color-interpolation-filters="sRGB"><feTurbulence type="fractalNoise" baseFrequency="0.012" numOctaves="3" seed="3" result="t"></feTurbulence><feDisplacementMap in="SourceGraphic" in2="t" scale="14"></feDisplacementMap><feGaussianBlur stdDeviation="1.4"></feGaussianBlur></filter>
  <filter id="wc-wet" x="-25%" y="-25%" width="150%" height="150%" color-interpolation-filters="sRGB"><feTurbulence type="fractalNoise" baseFrequency="0.022" numOctaves="3" seed="5" result="t"></feTurbulence><feDisplacementMap in="SourceGraphic" in2="t" scale="9" result="disp"></feDisplacementMap><feMorphology in="disp" operator="erode" radius="1.6" result="eroded"></feMorphology><feComposite in="disp" in2="eroded" operator="out" result="ring"></feComposite><feColorMatrix in="ring" values="0.55 0 0 0 0   0 0.55 0 0 0   0 0 0.55 0 0   0 0 0 1.4 0" result="darkRing"></feColorMatrix><feMerge><feMergeNode in="disp"></feMergeNode><feMergeNode in="darkRing"></feMergeNode></feMerge></filter>
  <filter id="wc-tight" x="-25%" y="-25%" width="150%" height="150%" color-interpolation-filters="sRGB"><feTurbulence type="fractalNoise" baseFrequency="0.08" numOctaves="2" seed="7" result="t"></feTurbulence><feDisplacementMap in="SourceGraphic" in2="t" scale="3"></feDisplacementMap><feGaussianBlur stdDeviation="0.35"></feGaussianBlur></filter>
  <filter id="pencil" x="-8%" y="-8%" width="116%" height="116%" color-interpolation-filters="sRGB"><feTurbulence type="fractalNoise" baseFrequency="0.6" numOctaves="2" seed="2" result="t"></feTurbulence><feDisplacementMap in="SourceGraphic" in2="t" scale="1.4"></feDisplacementMap></filter>
</defs>
<path d="M50 8 L94 84 L6 84 Z" fill="#e8a233" opacity="0.18" filter="url(#wc-loose)" style="mix-blend-mode:multiply"></path><path d="M50 14 L86 78 L14 78 Z" fill="#e8a233" opacity="0.55" filter="url(#wc-wet)" style="mix-blend-mode:multiply"></path><path d="M50 22 L78 72 L24 72 Z" fill="#eccc46" opacity="0.55" filter="url(#wc-tight)" style="mix-blend-mode:multiply"></path><path d="M 51 58 a 11 11 0 1 0 22 0 a 11 11 0 1 0 -22 0" fill="#d94b3e" opacity="0.35" filter="url(#wc-tight)" style="mix-blend-mode:multiply"></path><path d="M 27 40 a 7 7 0 1 0 14 0 a 7 7 0 1 0 -14 0" fill="#ec8064" opacity="0.4" filter="url(#wc-tight)" style="mix-blend-mode:multiply"></path><path d="M 44 76 a 6 6 0 1 0 12 0 a 6 6 0 1 0 -12 0" fill="#e8a233" opacity="0.5" filter="url(#wc-tight)" style="mix-blend-mode:multiply"></path><circle cx="10" cy="86" r="1.3" fill="#e8a233" opacity="0.65" filter="url(#wc-tight)" style="mix-blend-mode:multiply"></circle><circle cx="92" cy="84" r="1.5" fill="#d94b3e" opacity="0.6" filter="url(#wc-tight)" style="mix-blend-mode:multiply"></circle><circle cx="50" cy="4" r="1" fill="#eccc46" opacity="0.7" filter="url(#wc-tight)" style="mix-blend-mode:multiply"></circle><circle cx="20" cy="30" r="0.9" fill="#ec8064" opacity="0.55" filter="url(#wc-tight)" style="mix-blend-mode:multiply"></circle><circle cx="82" cy="30" r="1.1" fill="#e8a233" opacity="0.6" filter="url(#wc-tight)" style="mix-blend-mode:multiply"></circle><circle cx="44" cy="90" r="0.8" fill="#d94b3e" opacity="0.5" filter="url(#wc-tight)" style="mix-blend-mode:multiply"></circle><path d="M50 16 L84 76 L16 76 Z" fill="none" stroke="#2c2632" stroke-width="1.1" stroke-linecap="round" stroke-linejoin="round" opacity="0.55" filter="url(#pencil)"></path><path d="M50 38 L50 56" fill="none" stroke="#2c2632" stroke-width="1.4" stroke-linecap="round" stroke-linejoin="round" opacity="0.7" stroke-dasharray="6 1.5" filter="url(#pencil)"></path><path d="M50 64 m-1.4 0 a1.4 1.4 0 1 0 2.8 0 a1.4 1.4 0 1 0 -2.8 0" fill="none" stroke="#2c2632" stroke-width="1" stroke-linecap="round" stroke-linejoin="round" opacity="0.8" filter="url(#pencil)"></path>
</svg>