<?xml version="1.0"?>
<svg xmlns="http://www.w3.org/2000/svg" viewBox="0 0 100 100" width="1024" height="1024">
<defs>
  <filter id="wc-loose" x="-30%" y="-30%" width="160%" height="160%" color-interpolation-filters="sRGB"><feTurbulence type="fractalNoise" baseFrequency="0.012" numOctaves="3" seed="3" result="t"></feTurbulence><feDisplacementMap in="SourceGraphic" in2="t" scale="14"></feDisplacementMap><feGaussianBlur stdDeviation="1.4"></feGaussianBlur></filter>
  <filter id="wc-wet" x="-25%" y="-25%" width="150%" height="150%" color-interpolation-filters="sRGB"><feTurbulence type="fractalNoise" baseFrequency="0.022" numOctaves="3" seed="5" result="t"></feTurbulence><feDisplacementMap in="SourceGraphic" in2="t" scale="9" result="disp"></feDisplacementMap><feMorphology in="disp" operator="erode" radius="1.6" result="eroded"></feMorphology><feComposite in="disp" in2="eroded" operator="out" result="ring"></feComposite><feColorMatrix in="ring" values="0.55 0 0 0 0   0 0.55 0 0 0   0 0 0.55 0 0   0 0 0 1.4 0" result="darkRing"></feColorMatrix><feMerge><feMergeNode in="disp"></feMergeNode><feMergeNode in="darkRing"></feMergeNode></feMerge></filter>
  <filter id="wc-tight" x="-25%" y="-25%" width="150%" height="150%" color-interpolation-filters="sRGB"><feTurbulence type="fractalNoise" baseFrequency="0.08" numOctaves="2" seed="7" result="t"></feTurbulence><feDisplacementMap in="SourceGraphic" in2="t" scale="3"></feDisplacementMap><feGaussianBlur stdDeviation="0.35"></feGaussianBlur></filter>
  <filter id="pencil" x="-8%" y="-8%" width="116%" height="116%" color-interpolation-filters="sRGB"><feTurbulence type="fractalNoise" baseFrequency="0.6" numOctaves="2" seed="2" result="t"></feTurbulence><feDisplacementMap in="SourceGraphic" in2="t" scale="1.4"></feDisplacementMap></filter>
</defs>
<path d="M50 90 C40 70 20 60 14 50 C8 42 14 28 28 30 C40 32 48 46 50 60" fill="#5da556" opacity="0.15" filter="url(#wc-loose)" style="mix-blend-mode:multiply"></path><path d="M50 90 C60 70 80 60 86 50 C92 42 86 28 72 30 C60 32 52 46 50 60" fill="#2e8a62" opacity="0.15" filter="url(#wc-loose)" style="mix-blend-mode:multiply"></path><path d="M50 84 C42 70 30 60 22 52 C16 46 20 36 30 36 C40 36 48 46 50 60" fill="#5da556" opacity="0.55" filter="url(#wc-wet)" style="mix-blend-mode:multiply"></path><path d="M50 84 C58 70 70 60 78 52 C84 46 80 36 70 36 C60 36 52 46 50 60" fill="#2e8a62" opacity="0.55" filter="url(#wc-wet)" style="mix-blend-mode:multiply"></path><path d="M30 44 C36 42 44 46 48 54 L50 60 L46 60" fill="#a8a534" opacity="0.5" filter="url(#wc-tight)" style="mix-blend-mode:multiply"></path><path d="M70 44 C64 42 56 46 52 54 L50 60 L54 60" fill="#a8a534" opacity="0.5" filter="url(#wc-tight)" style="mix-blend-mode:multiply"></path><path d="M 45 30 a 5 5 0 1 0 10 0 a 5 5 0 1 0 -10 0" fill="#eccc46" opacity="0.65" filter="url(#wc-tight)" style="mix-blend-mode:multiply"></path><path d="M 35 56 a 3 3 0 1 0 6 0 a 3 3 0 1 0 -6 0" fill="#a8a534" opacity="0.4" filter="url(#wc-tight)" style="mix-blend-mode:multiply"></path><path d="M 59 56 a 3 3 0 1 0 6 0 a 3 3 0 1 0 -6 0" fill="#a8a534" opacity="0.4" filter="url(#wc-tight)" style="mix-blend-mode:multiply"></path><circle cx="10" cy="68" r="1.3" fill="#5da556" opacity="0.6" filter="url(#wc-tight)" style="mix-blend-mode:multiply"></circle><circle cx="90" cy="66" r="1.5" fill="#2e8a62" opacity="0.6" filter="url(#wc-tight)" style="mix-blend-mode:multiply"></circle><circle cx="50" cy="10" r="0.9" fill="#eccc46" opacity="0.7" filter="url(#wc-tight)" style="mix-blend-mode:multiply"></circle><circle cx="20" cy="22" r="1" fill="#a8a534" opacity="0.55" filter="url(#wc-tight)" style="mix-blend-mode:multiply"></circle><circle cx="80" cy="22" r="1.1" fill="#5da556" opacity="0.55" filter="url(#wc-tight)" style="mix-blend-mode:multiply"></circle><circle cx="50" cy="92" r="1" fill="#2e8a62" opacity="0.55" filter="url(#wc-tight)" style="mix-blend-mode:multiply"></circle><path d="M50 84 L50 56" fill="none" stroke="#2c2632" stroke-width="1" stroke-linecap="round" stroke-linejoin="round" opacity="0.55" filter="url(#pencil)"></path><path d="M50 60 C46 50 36 40 26 42 C22 42 20 46 22 50 C28 58 40 64 50 64" fill="none" stroke="#2c2632" stroke-width="1.1" stroke-linecap="round" stroke-linejoin="round" opacity="0.55" filter="url(#pencil)"></path><path d="M50 60 C54 50 64 40 74 42 C78 42 80 46 78 50 C72 58 60 64 50 64" fill="none" stroke="#2c2632" stroke-width="1.1" stroke-linecap="round" stroke-linejoin="round" opacity="0.55" filter="url(#pencil)"></path>
</svg>