<?xml version="1.0"?>
<svg xmlns="http://www.w3.org/2000/svg" viewBox="0 0 100 100" width="1024" height="1024">
<defs>
  <filter id="wc-loose" x="-30%" y="-30%" width="160%" height="160%" color-interpolation-filters="sRGB"><feTurbulence type="fractalNoise" baseFrequency="0.012" numOctaves="3" seed="3" result="t"></feTurbulence><feDisplacementMap in="SourceGraphic" in2="t" scale="14"></feDisplacementMap><feGaussianBlur stdDeviation="1.4"></feGaussianBlur></filter>
  <filter id="wc-wet" x="-25%" y="-25%" width="150%" height="150%" color-interpolation-filters="sRGB"><feTurbulence type="fractalNoise" baseFrequency="0.022" numOctaves="3" seed="5" result="t"></feTurbulence><feDisplacementMap in="SourceGraphic" in2="t" scale="9" result="disp"></feDisplacementMap><feMorphology in="disp" operator="erode" radius="1.6" result="eroded"></feMorphology><feComposite in="disp" in2="eroded" operator="out" result="ring"></feComposite><feColorMatrix in="ring" values="0.55 0 0 0 0   0 0.55 0 0 0   0 0 0.55 0 0   0 0 0 1.4 0" result="darkRing"></feColorMatrix><feMerge><feMergeNode in="disp"></feMergeNode><feMergeNode in="darkRing"></feMergeNode></feMerge></filter>
  <filter id="wc-tight" x="-25%" y="-25%" width="150%" height="150%" color-interpolation-filters="sRGB"><feTurbulence type="fractalNoise" baseFrequency="0.08" numOctaves="2" seed="7" result="t"></feTurbulence><feDisplacementMap in="SourceGraphic" in2="t" scale="3"></feDisplacementMap><feGaussianBlur stdDeviation="0.35"></feGaussianBlur></filter>
  <filter id="pencil" x="-8%" y="-8%" width="116%" height="116%" color-interpolation-filters="sRGB"><feTurbulence type="fractalNoise" baseFrequency="0.6" numOctaves="2" seed="2" result="t"></feTurbulence><feDisplacementMap in="SourceGraphic" in2="t" scale="1.4"></feDisplacementMap></filter>
</defs>
<path d="M50 22 C32 4 6 18 8 38 C10 62 36 78 50 90 C64 78 90 62 92 38 C94 18 68 4 50 22 Z" fill="#d8678a" opacity="0.14" filter="url(#wc-loose)" style="mix-blend-mode:multiply"></path><path d="M50 26 C38 12 18 18 18 38 C18 56 38 70 50 82 C62 70 82 56 82 38 C82 18 62 12 50 26 Z" fill="#d8678a" opacity="0.55" filter="url(#wc-wet)" style="mix-blend-mode:multiply"></path><path d="M28 32 C34 22 46 22 50 30 C54 22 66 22 72 30 C76 36 74 46 68 52 C60 60 50 70 50 70 C50 70 40 60 32 52 C26 46 24 36 28 32 Z" fill="#ef9bb1" opacity="0.45" filter="url(#wc-tight)" style="mix-blend-mode:multiply"></path><path d="M 33 42 a 5 5 0 1 0 10 0 a 5 5 0 1 0 -10 0" fill="#bd4a8c" opacity="0.5" filter="url(#wc-tight)" style="mix-blend-mode:multiply"></path><path d="M 57 42 a 5 5 0 1 0 10 0 a 5 5 0 1 0 -10 0" fill="#bd4a8c" opacity="0.5" filter="url(#wc-tight)" style="mix-blend-mode:multiply"></path><path d="M 45 60 a 5 5 0 1 0 10 0 a 5 5 0 1 0 -10 0" fill="#ec8064" opacity="0.35" filter="url(#wc-tight)" style="mix-blend-mode:multiply"></path><circle cx="8" cy="38" r="1.3" fill="#d8678a" opacity="0.65" filter="url(#wc-tight)" style="mix-blend-mode:multiply"></circle><circle cx="92" cy="40" r="1.5" fill="#ef9bb1" opacity="0.65" filter="url(#wc-tight)" style="mix-blend-mode:multiply"></circle><circle cx="50" cy="8" r="1" fill="#bd4a8c" opacity="0.7" filter="url(#wc-tight)" style="mix-blend-mode:multiply"></circle><circle cx="22" cy="84" r="1" fill="#d8678a" opacity="0.6" filter="url(#wc-tight)" style="mix-blend-mode:multiply"></circle><circle cx="78" cy="84" r="1.2" fill="#ec8064" opacity="0.55" filter="url(#wc-tight)" style="mix-blend-mode:multiply"></circle><circle cx="6" cy="68" r="0.9" fill="#ef9bb1" opacity="0.6" filter="url(#wc-tight)" style="mix-blend-mode:multiply"></circle><path d="M50 28 C38 14 20 22 20 38 C20 56 40 68 50 80 C60 68 80 56 80 38 C80 22 62 14 50 28 Z" fill="none" stroke="#2c2632" stroke-width="1.1" stroke-linecap="round" stroke-linejoin="round" opacity="0.55" filter="url(#pencil)"></path><path d="M40 42 m-1.4 0 a1.4 1.4 0 1 0 2.8 0 a1.4 1.4 0 1 0 -2.8 0" fill="none" stroke="#2c2632" stroke-width="1" stroke-linecap="round" stroke-linejoin="round" opacity="0.8" filter="url(#pencil)"></path><path d="M60 42 m-1.4 0 a1.4 1.4 0 1 0 2.8 0 a1.4 1.4 0 1 0 -2.8 0" fill="none" stroke="#2c2632" stroke-width="1" stroke-linecap="round" stroke-linejoin="round" opacity="0.8" filter="url(#pencil)"></path><path d="M40 54 C44 60 56 60 60 54" fill="none" stroke="#2c2632" stroke-width="1.1" stroke-linecap="round" stroke-linejoin="round" opacity="0.7" stroke-dasharray="4 1.5" filter="url(#pencil)"></path>
</svg>