<?xml version="1.0"?>
<svg xmlns="http://www.w3.org/2000/svg" viewBox="0 0 100 100" width="1024" height="1024">
<defs>
  <filter id="wc-loose" x="-30%" y="-30%" width="160%" height="160%" color-interpolation-filters="sRGB"><feTurbulence type="fractalNoise" baseFrequency="0.012" numOctaves="3" seed="3" result="t"></feTurbulence><feDisplacementMap in="SourceGraphic" in2="t" scale="14"></feDisplacementMap><feGaussianBlur stdDeviation="1.4"></feGaussianBlur></filter>
  <filter id="wc-wet" x="-25%" y="-25%" width="150%" height="150%" color-interpolation-filters="sRGB"><feTurbulence type="fractalNoise" baseFrequency="0.022" numOctaves="3" seed="5" result="t"></feTurbulence><feDisplacementMap in="SourceGraphic" in2="t" scale="9" result="disp"></feDisplacementMap><feMorphology in="disp" operator="erode" radius="1.6" result="eroded"></feMorphology><feComposite in="disp" in2="eroded" operator="out" result="ring"></feComposite><feColorMatrix in="ring" values="0.55 0 0 0 0   0 0.55 0 0 0   0 0 0.55 0 0   0 0 0 1.4 0" result="darkRing"></feColorMatrix><feMerge><feMergeNode in="disp"></feMergeNode><feMergeNode in="darkRing"></feMergeNode></feMerge></filter>
  <filter id="wc-tight" x="-25%" y="-25%" width="150%" height="150%" color-interpolation-filters="sRGB"><feTurbulence type="fractalNoise" baseFrequency="0.08" numOctaves="2" seed="7" result="t"></feTurbulence><feDisplacementMap in="SourceGraphic" in2="t" scale="3"></feDisplacementMap><feGaussianBlur stdDeviation="0.35"></feGaussianBlur></filter>
  <filter id="pencil" x="-8%" y="-8%" width="116%" height="116%" color-interpolation-filters="sRGB"><feTurbulence type="fractalNoise" baseFrequency="0.6" numOctaves="2" seed="2" result="t"></feTurbulence><feDisplacementMap in="SourceGraphic" in2="t" scale="1.4"></feDisplacementMap></filter>
</defs>
<path d="M50 24 C32 4 6 18 8 40 C10 64 36 78 50 90 C64 78 90 64 92 40 C94 18 68 4 50 24 Z" fill="#d94b3e" opacity="0.15" filter="url(#wc-loose)" style="mix-blend-mode:multiply"></path><path d="M50 26 C38 12 18 18 18 36 C18 56 38 70 50 82 C62 70 82 56 82 36 C82 18 62 12 50 26 Z" fill="#d94b3e" opacity="0.55" filter="url(#wc-wet)" style="mix-blend-mode:multiply"></path><path d="M58 32 C68 28 76 36 74 48 C72 60 60 70 50 78 C44 72 38 66 36 60" fill="#ec8064" opacity="0.5" filter="url(#wc-tight)" style="mix-blend-mode:multiply"></path><path d="M 27 36 a 7 7 0 1 0 14 0 a 7 7 0 1 0 -14 0" fill="#ef9bb1" opacity="0.55" filter="url(#wc-tight)" style="mix-blend-mode:multiply"></path><path d="M 63 54 a 5 5 0 1 0 10 0 a 5 5 0 1 0 -10 0" fill="#d94b3e" opacity="0.45" filter="url(#wc-tight)" style="mix-blend-mode:multiply"></path><path d="M 46 48 a 4 4 0 1 0 8 0 a 4 4 0 1 0 -8 0" fill="#ec8064" opacity="0.4" filter="url(#wc-tight)" style="mix-blend-mode:multiply"></path><circle cx="12" cy="18" r="1.2" fill="#d94b3e" opacity="0.7" filter="url(#wc-tight)" style="mix-blend-mode:multiply"></circle><circle cx="88" cy="30" r="1.6" fill="#ec8064" opacity="0.6" filter="url(#wc-tight)" style="mix-blend-mode:multiply"></circle><circle cx="22" cy="82" r="1" fill="#d8678a" opacity="0.55" filter="url(#wc-tight)" style="mix-blend-mode:multiply"></circle><circle cx="82" cy="84" r="1.4" fill="#d94b3e" opacity="0.6" filter="url(#wc-tight)" style="mix-blend-mode:multiply"></circle><circle cx="50" cy="8" r="0.8" fill="#ef9bb1" opacity="0.7" filter="url(#wc-tight)" style="mix-blend-mode:multiply"></circle><circle cx="94" cy="60" r="1.1" fill="#ec8064" opacity="0.5" filter="url(#wc-tight)" style="mix-blend-mode:multiply"></circle><path d="M50 28 C40 16 22 20 22 38 C22 56 40 68 50 80 C60 68 78 56 78 38 C78 20 60 16 50 28 Z" fill="none" stroke="#2c2632" stroke-width="1.1" stroke-linecap="round" stroke-linejoin="round" opacity="0.55" filter="url(#pencil)"></path><path d="M50 40 L50 56 M42 48 L58 48" fill="none" stroke="#2c2632" stroke-width="1.2" stroke-linecap="round" stroke-linejoin="round" opacity="0.7" stroke-dasharray="5 1.5" filter="url(#pencil)"></path>
</svg>