<?xml version="1.0"?>
<svg xmlns="http://www.w3.org/2000/svg" viewBox="0 0 100 100" width="1024" height="1024">
<defs>
  <filter id="wc-loose" x="-30%" y="-30%" width="160%" height="160%" color-interpolation-filters="sRGB"><feTurbulence type="fractalNoise" baseFrequency="0.012" numOctaves="3" seed="3" result="t"></feTurbulence><feDisplacementMap in="SourceGraphic" in2="t" scale="14"></feDisplacementMap><feGaussianBlur stdDeviation="1.4"></feGaussianBlur></filter>
  <filter id="wc-wet" x="-25%" y="-25%" width="150%" height="150%" color-interpolation-filters="sRGB"><feTurbulence type="fractalNoise" baseFrequency="0.022" numOctaves="3" seed="5" result="t"></feTurbulence><feDisplacementMap in="SourceGraphic" in2="t" scale="9" result="disp"></feDisplacementMap><feMorphology in="disp" operator="erode" radius="1.6" result="eroded"></feMorphology><feComposite in="disp" in2="eroded" operator="out" result="ring"></feComposite><feColorMatrix in="ring" values="0.55 0 0 0 0   0 0.55 0 0 0   0 0 0.55 0 0   0 0 0 1.4 0" result="darkRing"></feColorMatrix><feMerge><feMergeNode in="disp"></feMergeNode><feMergeNode in="darkRing"></feMergeNode></feMerge></filter>
  <filter id="wc-tight" x="-25%" y="-25%" width="150%" height="150%" color-interpolation-filters="sRGB"><feTurbulence type="fractalNoise" baseFrequency="0.08" numOctaves="2" seed="7" result="t"></feTurbulence><feDisplacementMap in="SourceGraphic" in2="t" scale="3"></feDisplacementMap><feGaussianBlur stdDeviation="0.35"></feGaussianBlur></filter>
  <filter id="pencil" x="-8%" y="-8%" width="116%" height="116%" color-interpolation-filters="sRGB"><feTurbulence type="fractalNoise" baseFrequency="0.6" numOctaves="2" seed="2" result="t"></feTurbulence><feDisplacementMap in="SourceGraphic" in2="t" scale="1.4"></feDisplacementMap></filter>
</defs>
<path d="M22 78 C22 50 32 26 50 26 C68 26 78 50 78 78 Z" fill="#a99cca" opacity="0.16" filter="url(#wc-loose)" style="mix-blend-mode:multiply"></path><path d="M28 74 C28 50 36 30 50 30 C64 30 72 50 72 74 Z" fill="#a99cca" opacity="0.55" filter="url(#wc-wet)" style="mix-blend-mode:multiply"></path><path d="M34 70 C34 52 40 38 50 38 C60 38 66 52 66 70 Z" fill="#6c7a98" opacity="0.4" filter="url(#wc-tight)" style="mix-blend-mode:multiply"></path><path d="M28 74 C40 78 60 78 72 74 L72 78 L28 78 Z" fill="#454fb0" opacity="0.45" filter="url(#wc-tight)" style="mix-blend-mode:multiply"></path><path d="M 44 56 a 6 6 0 1 0 12 0 a 6 6 0 1 0 -12 0" fill="#7e60b8" opacity="0.35" filter="url(#wc-tight)" style="mix-blend-mode:multiply"></path><path d="M 37 64 a 3 3 0 1 0 6 0 a 3 3 0 1 0 -6 0" fill="#6c7a98" opacity="0.4" filter="url(#wc-tight)" style="mix-blend-mode:multiply"></path><path d="M 57 64 a 3 3 0 1 0 6 0 a 3 3 0 1 0 -6 0" fill="#6c7a98" opacity="0.4" filter="url(#wc-tight)" style="mix-blend-mode:multiply"></path><circle cx="12" cy="82" r="1.3" fill="#a99cca" opacity="0.65" filter="url(#wc-tight)" style="mix-blend-mode:multiply"></circle><circle cx="88" cy="80" r="1.5" fill="#6c7a98" opacity="0.6" filter="url(#wc-tight)" style="mix-blend-mode:multiply"></circle><circle cx="50" cy="12" r="1" fill="#7e60b8" opacity="0.7" filter="url(#wc-tight)" style="mix-blend-mode:multiply"></circle><circle cx="16" cy="40" r="0.9" fill="#454fb0" opacity="0.55" filter="url(#wc-tight)" style="mix-blend-mode:multiply"></circle><circle cx="84" cy="42" r="1.1" fill="#a99cca" opacity="0.55" filter="url(#wc-tight)" style="mix-blend-mode:multiply"></circle><circle cx="50" cy="90" r="1" fill="#6c7a98" opacity="0.5" filter="url(#wc-tight)" style="mix-blend-mode:multiply"></circle><path d="M26 76 L74 76" fill="none" stroke="#2c2632" stroke-width="1.1" stroke-linecap="round" stroke-linejoin="round" opacity="0.6" filter="url(#pencil)"></path><path d="M30 76 C30 50 38 30 50 30 C62 30 70 50 70 76" fill="none" stroke="#2c2632" stroke-width="1.1" stroke-linecap="round" stroke-linejoin="round" opacity="0.55" filter="url(#pencil)"></path><path d="M50 30 L50 22" fill="none" stroke="#2c2632" stroke-width="1" stroke-linecap="round" stroke-linejoin="round" opacity="0.55" filter="url(#pencil)"></path><path d="M50 20 m-2 0 a2 2 0 1 0 4 0 a2 2 0 1 0 -4 0" fill="none" stroke="#2c2632" stroke-width="1" stroke-linecap="round" stroke-linejoin="round" opacity="0.75" filter="url(#pencil)"></path>
</svg>