<?xml version="1.0"?>
<svg xmlns="http://www.w3.org/2000/svg" viewBox="0 0 100 100" width="1024" height="1024">
<defs>
  <filter id="wc-loose" x="-30%" y="-30%" width="160%" height="160%" color-interpolation-filters="sRGB"><feTurbulence type="fractalNoise" baseFrequency="0.012" numOctaves="3" seed="3" result="t"></feTurbulence><feDisplacementMap in="SourceGraphic" in2="t" scale="14"></feDisplacementMap><feGaussianBlur stdDeviation="1.4"></feGaussianBlur></filter>
  <filter id="wc-wet" x="-25%" y="-25%" width="150%" height="150%" color-interpolation-filters="sRGB"><feTurbulence type="fractalNoise" baseFrequency="0.022" numOctaves="3" seed="5" result="t"></feTurbulence><feDisplacementMap in="SourceGraphic" in2="t" scale="9" result="disp"></feDisplacementMap><feMorphology in="disp" operator="erode" radius="1.6" result="eroded"></feMorphology><feComposite in="disp" in2="eroded" operator="out" result="ring"></feComposite><feColorMatrix in="ring" values="0.55 0 0 0 0   0 0.55 0 0 0   0 0 0.55 0 0   0 0 0 1.4 0" result="darkRing"></feColorMatrix><feMerge><feMergeNode in="disp"></feMergeNode><feMergeNode in="darkRing"></feMergeNode></feMerge></filter>
  <filter id="wc-tight" x="-25%" y="-25%" width="150%" height="150%" color-interpolation-filters="sRGB"><feTurbulence type="fractalNoise" baseFrequency="0.08" numOctaves="2" seed="7" result="t"></feTurbulence><feDisplacementMap in="SourceGraphic" in2="t" scale="3"></feDisplacementMap><feGaussianBlur stdDeviation="0.35"></feGaussianBlur></filter>
  <filter id="pencil" x="-8%" y="-8%" width="116%" height="116%" color-interpolation-filters="sRGB"><feTurbulence type="fractalNoise" baseFrequency="0.6" numOctaves="2" seed="2" result="t"></feTurbulence><feDisplacementMap in="SourceGraphic" in2="t" scale="1.4"></feDisplacementMap></filter>
</defs>
<path d="M50 12 m-38 0 a38 38 0 1 0 76 0 a38 38 0 1 0 -76 0" fill="#eccc46" opacity="0.14" filter="url(#wc-loose)" style="mix-blend-mode:multiply"></path><path d="M50 18 A32 32 0 0 1 82 50 L50 50 Z" fill="#d94b3e" opacity="0.6" filter="url(#wc-wet)" style="mix-blend-mode:multiply"></path><path d="M82 50 A32 32 0 0 1 50 82 L50 50 Z" fill="#eccc46" opacity="0.6" filter="url(#wc-wet)" style="mix-blend-mode:multiply"></path><path d="M50 82 A32 32 0 0 1 18 50 L50 50 Z" fill="#2f9a9a" opacity="0.6" filter="url(#wc-wet)" style="mix-blend-mode:multiply"></path><path d="M18 50 A32 32 0 0 1 50 18 L50 50 Z" fill="#7e60b8" opacity="0.6" filter="url(#wc-wet)" style="mix-blend-mode:multiply"></path><path d="M 41 50 a 9 9 0 1 0 18 0 a 9 9 0 1 0 -18 0" fill="#ec8064" opacity="0.45" filter="url(#wc-tight)" style="mix-blend-mode:multiply"></path><path d="M 30 36 a 6 6 0 1 0 12 0 a 6 6 0 1 0 -12 0" fill="#bd4a8c" opacity="0.3" filter="url(#wc-tight)" style="mix-blend-mode:multiply"></path><path d="M 58 64 a 6 6 0 1 0 12 0 a 6 6 0 1 0 -12 0" fill="#2e8a62" opacity="0.3" filter="url(#wc-tight)" style="mix-blend-mode:multiply"></path><circle cx="8" cy="52" r="1.3" fill="#d94b3e" opacity="0.65" filter="url(#wc-tight)" style="mix-blend-mode:multiply"></circle><circle cx="92" cy="52" r="1.5" fill="#7e60b8" opacity="0.65" filter="url(#wc-tight)" style="mix-blend-mode:multiply"></circle><circle cx="50" cy="6" r="1" fill="#eccc46" opacity="0.7" filter="url(#wc-tight)" style="mix-blend-mode:multiply"></circle><circle cx="20" cy="86" r="1" fill="#2f9a9a" opacity="0.6" filter="url(#wc-tight)" style="mix-blend-mode:multiply"></circle><circle cx="82" cy="86" r="1.2" fill="#e8a233" opacity="0.6" filter="url(#wc-tight)" style="mix-blend-mode:multiply"></circle><circle cx="6" cy="30" r="0.9" fill="#bd4a8c" opacity="0.6" filter="url(#wc-tight)" style="mix-blend-mode:multiply"></circle><path d="M50 18 m-32 0 a32 32 0 1 0 64 0 a32 32 0 1 0 -64 0" fill="none" stroke="#2c2632" stroke-width="1.1" stroke-linecap="round" stroke-linejoin="round" opacity="0.55" filter="url(#pencil)"></path><path d="M50 18 L50 82" fill="none" stroke="#2c2632" stroke-width="1" stroke-linecap="round" stroke-linejoin="round" opacity="0.55" stroke-dasharray="5 2 8 2" filter="url(#pencil)"></path><path d="M18 50 L82 50" fill="none" stroke="#2c2632" stroke-width="1" stroke-linecap="round" stroke-linejoin="round" opacity="0.55" stroke-dasharray="5 2 8 2" filter="url(#pencil)"></path>
</svg>