<svg id="credit-card" xmlns="http://www.w3.org/2000/svg" width="24.26" height="18.6" viewBox="0 0 24.26 18.6">
  <path id="Path_43" data-name="Path 43" d="M29.127,27.36H7.293A1.214,1.214,0,0,0,6.08,28.573V44.747A1.214,1.214,0,0,0,7.293,45.96H29.127a1.214,1.214,0,0,0,1.213-1.213V28.573a1.214,1.214,0,0,0-1.213-1.213Zm-.4,1.617v3.235H7.7V28.977ZM7.7,44.342v-8.9H28.723v8.9Z" transform="translate(-6.08 -27.36)"/>
  <path id="Path_44" data-name="Path 44" d="M33.44,118.56h3.235v1.617H33.44Z" transform="translate(-29.801 -106.43)"/>
  <path id="Path_45" data-name="Path 45" d="M69.92,118.56h3.235v1.617H69.92Z" transform="translate(-61.429 -106.43)"/>
</svg>
