<svg id="PayPal" xmlns="http://www.w3.org/2000/svg" width="111.725" height="27.282" viewBox="0 0 111.725 27.282">
  <path id="Path_46" data-name="Path 46" d="M45.2,6.749H39.016a.859.859,0,0,0-.849.725l-2.5,15.854a.515.515,0,0,0,.51.595h2.952a.859.859,0,0,0,.849-.726l.674-4.276a.858.858,0,0,1,.848-.726h1.957c4.073,0,6.423-1.971,7.037-5.876A4.762,4.762,0,0,0,49.7,8.327C48.826,7.3,47.268,6.749,45.2,6.749Zm.713,5.79c-.338,2.218-2.033,2.218-3.672,2.218h-.933l.655-4.143a.515.515,0,0,1,.509-.435H42.9c1.116,0,2.17,0,2.714.636A2.06,2.06,0,0,1,45.912,12.539Z" transform="translate(-3.423 -0.648)" fill="#253b80"/>
  <path id="Path_47" data-name="Path 47" d="M65.167,13.045H62.207a.516.516,0,0,0-.509.435l-.131.828-.207-.3c-.641-.93-2.07-1.241-3.5-1.241a6.808,6.808,0,0,0-6.61,5.954,5.588,5.588,0,0,0,1.1,4.548,4.632,4.632,0,0,0,3.729,1.506,5.665,5.665,0,0,0,4.1-1.7l-.132.823a.515.515,0,0,0,.508.6h2.667a.859.859,0,0,0,.849-.726l1.6-10.133A.513.513,0,0,0,65.167,13.045ZM61.04,18.808a3.3,3.3,0,0,1-3.34,2.827,2.293,2.293,0,0,1-2.453-2.878,3.314,3.314,0,0,1,3.318-2.849,2.5,2.5,0,0,1,1.974.806A2.563,2.563,0,0,1,61.04,18.808Z" transform="translate(-4.911 -1.225)" fill="#253b80"/>
  <path id="Path_48" data-name="Path 48" d="M82.632,13.075H79.656a.862.862,0,0,0-.711.377l-4.1,6.044L73.1,13.688a.862.862,0,0,0-.824-.613H69.354a.516.516,0,0,0-.489.682l3.277,9.617-3.081,4.349a.515.515,0,0,0,.42.814h2.972a.857.857,0,0,0,.706-.369l9.9-14.284A.515.515,0,0,0,82.632,13.075Z" transform="translate(-6.607 -1.255)" fill="#253b80"/>
  <path id="Path_49" data-name="Path 49" d="M93.979,6.749H87.8a.859.859,0,0,0-.848.725l-2.5,15.854a.514.514,0,0,0,.508.595h3.173a.6.6,0,0,0,.593-.508l.71-4.494a.858.858,0,0,1,.848-.726h1.956c4.074,0,6.423-1.971,7.038-5.876a4.759,4.759,0,0,0-.789-3.991C97.606,7.3,96.049,6.749,93.979,6.749Zm.713,5.79c-.337,2.218-2.032,2.218-3.672,2.218h-.932l.655-4.143a.513.513,0,0,1,.508-.435h.428c1.116,0,2.17,0,2.714.636A2.061,2.061,0,0,1,94.693,12.539Z" transform="translate(-8.104 -0.648)" fill="#179bd7"/>
  <path id="Path_50" data-name="Path 50" d="M113.948,13.045h-2.959a.513.513,0,0,0-.508.435l-.131.828-.208-.3c-.641-.93-2.069-1.241-3.5-1.241a6.807,6.807,0,0,0-6.609,5.954,5.591,5.591,0,0,0,1.1,4.548,4.635,4.635,0,0,0,3.729,1.506,5.665,5.665,0,0,0,4.1-1.7l-.132.823a.515.515,0,0,0,.51.6h2.666a.859.859,0,0,0,.848-.726l1.6-10.133A.516.516,0,0,0,113.948,13.045Zm-4.127,5.762a3.3,3.3,0,0,1-3.34,2.827,2.293,2.293,0,0,1-2.453-2.878,3.315,3.315,0,0,1,3.318-2.849,2.5,2.5,0,0,1,1.974.806A2.55,2.55,0,0,1,109.821,18.808Z" transform="translate(-9.593 -1.225)" fill="#179bd7"/>
  <path id="Path_51" data-name="Path 51" d="M119.025,7.184l-2.538,16.144a.514.514,0,0,0,.508.595h2.551a.858.858,0,0,0,.849-.726l2.5-15.853a.515.515,0,0,0-.508-.6h-2.857A.516.516,0,0,0,119.025,7.184Z" transform="translate(-11.179 -0.648)" fill="#179bd7"/>
  <path id="Path_52" data-name="Path 52" d="M6.67,26.454l.473-3L6.09,23.427H1.061L4.556,1.266a.293.293,0,0,1,.1-.174.285.285,0,0,1,.186-.069h8.48c2.815,0,4.758.586,5.772,1.742A3.972,3.972,0,0,1,20.017,4.5a6.257,6.257,0,0,1,.006,2.39l-.011.07V7.57l.476.269a3.336,3.336,0,0,1,.963.734,3.418,3.418,0,0,1,.781,1.752,7.411,7.411,0,0,1-.111,2.542,8.952,8.952,0,0,1-1.041,2.878,5.918,5.918,0,0,1-1.65,1.808,6.693,6.693,0,0,1-2.222,1,11.081,11.081,0,0,1-2.777.321h-.66a1.985,1.985,0,0,0-1.963,1.675l-.05.27-.835,5.293-.038.194a.167.167,0,0,1-.052.113.14.14,0,0,1-.087.032H6.67Z" transform="translate(-0.102 -0.098)" fill="#253b80"/>
  <path id="Path_53" data-name="Path 53" d="M21.43,7.667h0q-.038.243-.087.5c-1.118,5.741-4.944,7.725-9.83,7.725H9.025a1.208,1.208,0,0,0-1.194,1.023h0L6.557,24.991,6.2,27.281a.637.637,0,0,0,.628.736h4.413a1.062,1.062,0,0,0,1.049-.895l.043-.224.831-5.272.053-.289a1.061,1.061,0,0,1,1.049-.9h.66c4.275,0,7.622-1.736,8.6-6.758.409-2.1.2-3.85-.884-5.082A4.219,4.219,0,0,0,21.43,7.667Z" transform="translate(-0.594 -0.736)" fill="#179bd7"/>
  <path id="Path_54" data-name="Path 54" d="M20.434,7.108q-.256-.075-.528-.136t-.56-.106a13.817,13.817,0,0,0-2.193-.16H10.507a1.06,1.06,0,0,0-1.048.9L8.046,16.559l-.041.261A1.208,1.208,0,0,1,9.2,15.8h2.488c4.886,0,8.712-1.984,9.83-7.725.033-.17.061-.335.087-.5a5.961,5.961,0,0,0-.919-.388C20.6,7.16,20.519,7.134,20.434,7.108Z" transform="translate(-0.768 -0.644)" fill="#222d65"/>
  <path id="Path_55" data-name="Path 55" d="M8.691,6.96a1.06,1.06,0,0,1,1.048-.9h6.646a13.817,13.817,0,0,1,2.193.16q.287.046.56.106t.528.136l.251.078a6.051,6.051,0,0,1,.919.388,5.423,5.423,0,0,0-1.15-4.874C18.422.617,16.14,0,13.219,0H4.739a1.212,1.212,0,0,0-1.2,1.024L.009,23.412a.729.729,0,0,0,.719.843H5.963l1.314-8.34Z" transform="translate(0)" fill="#253b80"/>
</svg>
