<svg id="pound" xmlns="http://www.w3.org/2000/svg" width="21.522" height="27.687" viewBox="0 0 21.522 27.687">
  <path id="Path_42" data-name="Path 42" d="M76.079,67.917A.56.56,0,0,0,76,67.64h.008L74.524,64l0-.007,0-.006h0a.567.567,0,0,0-.943-.156l0,0a4.234,4.234,0,0,1-3.451,1.444c-1.966,0-2.889-1.324-5.217-1.324a6.711,6.711,0,0,0-1.966.321,5.392,5.392,0,0,0,2.608-4.454c0-.241-.04-.522-.04-.762H70v0a.575.575,0,0,0,.573-.575v-2.15h-.011a.569.569,0,0,0-.562-.52v0H64.222c-.923-1.444-1.966-2.689-1.966-4.735,0-2.247,1.846-3.732,4.213-3.732a4.391,4.391,0,0,1,4.086,2.834.574.574,0,0,0,.755.314h0l3.556-2.128,0,0a.569.569,0,0,0,.318-.508.563.563,0,0,0-.1-.3l.011-.006c-1.686-3.29-4.855-4.855-9.31-4.855-4.735,0-9.751,3.21-9.751,8.307a7.9,7.9,0,0,0,1.846,4.815H55.154v.007c-.007,0-.014,0-.022,0a.575.575,0,0,0-.575.575v2.15h.011a.57.57,0,0,0,.564.52c.008,0,.014,0,.022,0v.007h4.815a5.687,5.687,0,0,1,.482,2.167c0,2.025-1.808,3.774-4.3,4.977l-.011.005-.068.034,0,.009a.566.566,0,0,0-.281.483.58.58,0,0,0,.044.218h0v0l0,0,1.375,2.871c0,.007.007.014.01.021l.025.052.008,0a.55.55,0,0,0,.734.228l0,0a10.4,10.4,0,0,1,4.655-1.525c2.448,0,3.772,1.765,7.263,1.765,2.929,0,4.815-.883,5.939-2.006l0,0a.565.565,0,0,0,.222-.443Z" transform="translate(-54.557 -42.684)" fill="#002538"/>
</svg>
