<svg xmlns="http://www.w3.org/2000/svg" xmlns:xlink="http://www.w3.org/1999/xlink" width="411" height="147.154" viewBox="0 0 411 147.154">
  <defs>
    <radialGradient id="radial-gradient" cx="0.5" cy="0.5" r="0.5" gradientTransform="translate(0)" gradientUnits="objectBoundingBox">
      <stop offset="0.18" stop-color="#ffc800"/>
      <stop offset="0.19" stop-color="#ffc802"/>
      <stop offset="0.37" stop-color="#ffd84d"/>
      <stop offset="0.54" stop-color="#ffe68c"/>
      <stop offset="0.69" stop-color="#fff0be"/>
      <stop offset="0.82" stop-color="#fff8e1"/>
      <stop offset="0.93" stop-color="#fffdf7"/>
      <stop offset="1" stop-color="#fff"/>
    </radialGradient>
  </defs>
  <g id="Group_17" data-name="Group 17" transform="translate(0 3)">
    <g id="Group_9" data-name="Group 9" transform="translate(225.955 -3) rotate(3)">
      <path id="Path_4" data-name="Path 4" d="M106.8,53.4A53.4,53.4,0,1,1,53.4,0,53.408,53.408,0,0,1,106.8,53.4Z" opacity="0.7" fill="url(#radial-gradient)" style="mix-blend-mode: multiply;isolation: isolate"/>
      <g id="Group_4" data-name="Group 4" transform="translate(13.342 0.52)">
        <path id="Path_5" data-name="Path 5" d="M62.281,69.408c18.642-10.8,30.489-23.561,29.26-41.4C89.355-3.7,53.2-1.1,46.228,16.938A21.253,21.253,0,0,0,29.853.619C15.455-2.531.682,6.4.024,26.066-.772,49.885,18.389,60.53,25.7,66.829,37.088,76.65,35.157,82.55,35.157,82.55S55.363,73.419,62.283,69.41Z" fill="#ffc800"/>
        <g id="Group_3" data-name="Group 3" transform="translate(19.692 21.436)">
          <path id="Path_6" data-name="Path 6" d="M6.635,6.418a4.6,4.6,0,0,0,.522-3.994A3.653,3.653,0,0,0,2.578.211,4.073,4.073,0,0,0,.018,4.369,4.134,4.134,0,0,0,3.44,7.977a2.8,2.8,0,0,0,3.2-2.262,2.82,2.82,0,0,0-2.262-3.2c-.21-.042-.19-.031.062.031A1.144,1.144,0,0,1,5,2.823l.289.32A1.23,1.23,0,0,1,5.134,2.9l.351.654a1.24,1.24,0,0,1-.1-.27c.056.241.111.483.166.724C5.519,3.726,5.5,3.822,5.5,4.3c.041-.21.028-.189-.035.06a1.134,1.134,0,0,1-.282.559q-.535.442-.161.186l-.653.351.153-.064L3.8,5.558l.162-.031a1.748,1.748,0,0,1-1.256-.3.915.915,0,0,1-.368-.3q-.274-.317-.1-.072L1.892,4.2a1.679,1.679,0,0,1,.139.343c-.056-.241-.11-.483-.166-.724.075.411.131-.57.041-.242-.083.3.3-.644.058-.153-.116.24-.237.472-.372.7a2.773,2.773,0,0,0-.07,2.117A2.819,2.819,0,0,0,2.969,7.794a2.785,2.785,0,0,0,2.118.07A3.187,3.187,0,0,0,6.634,6.417h0Z" transform="translate(9.64 0)" fill="#002538"/>
          <path id="Path_7" data-name="Path 7" d="M.1,3.355A3.505,3.505,0,0,0,3.089,7.679,4.242,4.242,0,0,0,7.55,4.7,3.765,3.765,0,0,0,5.1.17,3.7,3.7,0,0,0,.741,1.97,3.01,3.01,0,0,0,.45,4.036,2.831,2.831,0,0,0,1.744,5.755a2.8,2.8,0,0,0,2.067.29A2.7,2.7,0,0,0,5.53,4.751a.879.879,0,0,1,.1-.188l-.457.586A1.33,1.33,0,0,1,5.4,4.924L4.8,5.369a.953.953,0,0,1,.186-.1l-.668.264a1.439,1.439,0,0,1,.31-.077l-.7.083a.864.864,0,0,1,.212.01l-.7-.1a.816.816,0,0,1,.2.062l-.663-.277a.856.856,0,0,1,.181.112l-.586-.457a.989.989,0,0,1,.151.15l-.445-.594a1.485,1.485,0,0,1,.159.278c-.088-.222-.176-.444-.264-.668a.963.963,0,0,1,.052.207c-.027-.234-.056-.469-.083-.7a.864.864,0,0,1,0,.212c.033-.234.065-.467.1-.7a.945.945,0,0,1-.062.242c.092-.221.185-.441.277-.662A1.2,1.2,0,0,1,2.32,2.9l.457-.586a2.347,2.347,0,0,1-.407.392l.594-.444a2.415,2.415,0,0,1-.342.189l.668-.264a1.683,1.683,0,0,1-.372.088l.7-.083H3.493l.7.1a.8.8,0,0,1-.228-.047l.662.277a.744.744,0,0,1-.186-.1l.585.457a.811.811,0,0,1-.153-.148l.444.594a.763.763,0,0,1-.106-.18c.087.222.176.444.264.668a.577.577,0,0,1-.045-.2c.027.234.056.469.083.7,0-.034,0-.067,0-.1-.033.233-.064.467-.1.7.008-.034.016-.067.025-.1a2.808,2.808,0,0,0-1.942-3.4,2.813,2.813,0,0,0-3.4,1.942h0Z" transform="translate(36.342 3.734)" fill="#002538"/>
          <path id="Path_8" data-name="Path 8" d="M.264,4.238c4,9.059,12.255,16.431,22.3,17.7A23.962,23.962,0,0,0,46.373,10.216c1.743-3.112-3.038-5.906-4.78-2.794a18.458,18.458,0,0,1-19.632,8.836C14.078,14.67,8.2,8.584,5.043,1.444,3.607-1.808-1.164,1.006.264,4.238Z" transform="translate(0 16.163)" fill="#002538"/>
        </g>
      </g>
    </g>
    <text id="Benefactor" transform="translate(0 124.154)" fill="#002538" font-size="86" font-family="Helvetica-Bold, Helvetica" font-weight="700" letter-spacing="-0.05em"><tspan x="0" y="0">Benefactor</tspan></text>
    <text id="TM" transform="translate(394.559 71.847)" fill="#002538" font-size="11" font-family="Helvetica-Light, Helvetica" font-weight="300" letter-spacing="-0.05em"><tspan x="0" y="0">TM</tspan></text>
  </g>
</svg>
