<svg xmlns="http://www.w3.org/2000/svg" width="5171.781" height="1339.304" viewBox="0 0 5171.781 1339.304">
  <g id="Group_203" data-name="Group 203" transform="translate(11746.44 -1986.353)">
    <path id="Subtraction_21" data-name="Subtraction 21" d="M4703.69,1339.305l-38.56,0c.6-5.648,1.076-10.287,1.55-15.042-4.811-.753-9.269-1.5-13.581-2.213l-.588-.1c-2.523-.419-4.906-.816-7.228-1.191-7.437,10.273-12.41,15.645-17.167,18.544h-18.776c-6.07-2.851-13.5-8.076-25.647-18.038a38.6,38.6,0,0,1-9.335,4.688,28.294,28.294,0,0,1-8.87,1.465,32.029,32.029,0,0,1-15.805-4.509,74.057,74.057,0,0,1-14.882-11.524,51.076,51.076,0,0,0-8.09-6.389,48.053,48.053,0,0,0-8.825-4.393,55.74,55.74,0,0,0-19.623-3.346,81.13,81.13,0,0,0-13.261,1.159l4.4,2.789.471.3,1.743,1.1c4.488,2.845,9.128,5.787,13.835,8.776-2.476,1.08-4.452,1.975-6.363,2.841l-.03.013c-.905.411-1.792.813-2.7,1.218a19.239,19.239,0,0,0,2.709,7.641,12.274,12.274,0,0,0,4.594,4.188c3.552,1.9,8.025,2.264,12.35,2.621h.007c4.775.394,9.713.8,13.478,3.254-2.006-2.239-4.029-4.524-6.1-6.862l-.038-.042c-1.952-2.206-3.971-4.486-5.98-6.728a55.74,55.74,0,0,1,10.046,2.036,32.109,32.109,0,0,1,8.194,3.777,22.3,22.3,0,0,1,6.025,5.814,23.441,23.441,0,0,1,3.543,8.149h-580.4a85.359,85.359,0,0,0-6.549-7.279c-4.427-4.427-7.128-8.022-8.757-11.656a23.965,23.965,0,0,1-1.657-13.717c.616-4,1.074-8.875-.852-11.076-4.518-5.046-6.52-9.522-6.12-13.685a11.911,11.911,0,0,1,1.479-4.632,20.538,20.538,0,0,1,3.157-4.209,77.507,77.507,0,0,1,9.337-7.863c3.571-2.709,6.323-6.451,8.984-10.069l.041-.056c1.124-1.527,2.286-3.106,3.474-4.549,10.819,11.727,22.134,24.343,31.136,38.283A131.594,131.594,0,0,1,4010,1310.7a113.9,113.9,0,0,1,7.036,25.111h.331c5.654,0,11.426-.03,17.007-.059l.472,0h.1c5.855-.031,11.909-.064,17.876-.064,6.735,0,12.617.042,17.982.127h.272c11.56,0,18.061-5.861,19.326-17.421.757-6.986,1.485-15.093.531-22.9a48.118,48.118,0,0,0-8.487-22.258c-6.219-9.066-9.746-20.142-13.157-30.854l-.013-.042c-1.451-4.554-2.952-9.264-4.628-13.695a102.061,102.061,0,0,1,18.488-7.034,63.381,63.381,0,0,1,16.1-2.271,39.514,39.514,0,0,1,11.787,1.672,27.616,27.616,0,0,1,9.241,4.864,24.764,24.764,0,0,1,6.363,7.827,30.807,30.807,0,0,1,3.159,10.564c2.589.258,5.034.405,7.4.547a72.883,72.883,0,0,1,12.958,1.536,117.377,117.377,0,0,1,11.414,3.735c6.011,2.2,12.228,4.469,18.5,4.881.78.043,1.547.077,2.265.108,5.734.254,10.261.453,15.631,4.814A61.282,61.282,0,0,0,4222.244,1272c7.384,1.875,15.7,2.748,26.185,2.748,5.446,0,11.011-.226,16.392-.444l.051,0c4.052-.165,8.242-.336,12.327-.407,5.621-.106,11.242-2.308,16.678-4.438l0,0a67.641,67.641,0,0,1,13.233-4.175,44.341,44.341,0,0,0,14.684-4.863,30.11,30.11,0,0,0,10.782-10.475c-2.341-4.246-4.669-8.448-8.425-15.145l.723.1c7.042.983,11.7,1.632,18.117,2.551a174.536,174.536,0,0,1-2.775-23.411v-.011c-.583-8.031-1.186-16.334-3.033-24.388a69.247,69.247,0,0,0-3.87-12.011,62.3,62.3,0,0,0-6.7-11.846c1.857.182,3.747.271,5.778.271a124.318,124.318,0,0,0,14.493-1.094l.383-.045a115.528,115.528,0,0,1,13.33-1.052,36.547,36.547,0,0,1,11.651,1.7,30.99,30.99,0,0,1,11.168,6.657c-2.528-2.549-4.858-5.256-7.112-7.874l-.013-.014c-3.7-4.3-7.194-8.357-11.464-11.747a36.635,36.635,0,0,0-7.021-4.436,34.829,34.829,0,0,0-8.661-2.814,19.264,19.264,0,0,1-8.808-4.022,25.411,25.411,0,0,1-6.057-7.5c-3.4-6.079-5.618-14.118-7.762-21.894a55.749,55.749,0,0,0,13.748,3.94,85.947,85.947,0,0,0,13.5.919c3.1,0,6.246-.1,9.289-.2l.091,0c3.081-.1,6.266-.2,9.417-.2a88.831,88.831,0,0,1,12.595.777,57.546,57.546,0,0,1,12.839,3.289c-3.247,4.739-5.989,8.708-8.642,12.546l-.305.443-.3.432c-1.812,2.621-3.523,5.1-5.241,7.6a120.924,120.924,0,0,0,17.258,6.259c7.13,2.185,14.5,4.444,20.815,8.17a37.268,37.268,0,0,1,8.657,6.9,35.689,35.689,0,0,1,6.571,10.29c-2.96,5.642-5.674,10.609-8.424,15.623.815,1.068,1.6,2.116,2.235,2.958,1.74,2.314,3.384,4.5,5.147,6.6a60.614,60.614,0,0,1,6.315,8.609,14.125,14.125,0,0,1,2.161,6.87,13,13,0,0,1-2.029,6.728,51.837,51.837,0,0,1-6.254,8.184c-2.545,2.936-5.268,5.646-8.42,8.783l-.107.107c-1.389,1.381-2.825,2.81-4.348,4.364,10.906,4.827,20.5,9.093,29.783,13.219,5.636,2.506,10,4.444,14.144,6.285a32.67,32.67,0,0,0,7.55-9.916,27.273,27.273,0,0,0,2.6-10.131c.457-6.8-1.3-13.757-3-20.484l0-.008-.008-.031a112.588,112.588,0,0,1-2.59-12.095,32.707,32.707,0,0,1,.277-11.808,97.078,97.078,0,0,1,10.857,2.223c4.711,1.151,9.162,2.237,12.9,2.237a10.248,10.248,0,0,0,5.78-1.429,30.7,30.7,0,0,1,9.2-4.113,35.568,35.568,0,0,1,9.05-1.076,93.607,93.607,0,0,1,11.485.944l.052.006a92.661,92.661,0,0,0,11.306.936,33.419,33.419,0,0,0,8.709-1.054,60.534,60.534,0,0,0,9.135,15.168,46.6,46.6,0,0,0,11.834,10.11,50.225,50.225,0,0,0,14.176,5.636,70.657,70.657,0,0,0,16.165,1.749c11.269-.041,22.738-.634,33.83-1.209h.021c11.5-.6,23.391-1.211,35.074-1.211,4.278,0,8.24.079,12.115.243.676.027,1.355.041,2.02.041,12.9,0,21.2-5.239,29.7-13.1,5.363-5.007,10.8-9.861,17.086-15.481l.113-.1.059-.053c3.7-3.305,7.524-6.722,11.809-10.591,0-1.4.108-3.168.222-5.036.31-5.1.735-12.075-.508-18.633-2.97-15.768-15.109-20.859-26.849-25.783-5.2-2.178-10.1-4.235-14.238-7.164a24.282,24.282,0,0,0,.982-9.489,19.089,19.089,0,0,0-2.455-7.461c-2.529-4.45-6.644-8.049-10.625-11.53l-.018-.015a84.684,84.684,0,0,1-6.806-6.409,24.98,24.98,0,0,1-4.937-7.509c6.095,1.266,12.063,2.556,17.835,3.8,11.413,2.469,22.192,4.8,33.192,6.8,8.569,1.558,17.331,2.834,25.8,4.069l.066.009c11.054,1.609,22.485,3.273,33.586,5.579a107.68,107.68,0,0,1,20.21,6.328,123.288,123.288,0,0,1,18.274,9.709,159.787,159.787,0,0,1,16.712,12.389c5.039,4.236,10.116,8.936,15.522,14.368l1.547,1.556.034.034c7.986,8.034,16.244,16.342,24.87,23.949,4.644,4.1,9.035,7.682,13.426,10.964a159.939,159.939,0,0,0,14.656,9.792,81.62,81.62,0,0,1,17.716,14.2,61.873,61.873,0,0,1,12.391,18.461,75.733,75.733,0,0,0,15.041,23.361c6.514,6.983,14.1,12.785,20.652,17.539a47.967,47.967,0,0,0,3-3.772l.009-.011,0,0c1.7-2.292,3.167-4.271,4.317-4.271a.96.96,0,0,1,.149.012c4.725.751,9.653,1.326,14.42,1.883h.018c6.947.81,14.13,1.648,20.9,3.051a70.283,70.283,0,0,1,19.1,6.517,93.847,93.847,0,0,1,17.207,12.411c5.393,4.769,10.6,10.081,15.629,15.218l.056.056c4.285,4.374,8.716,8.9,13.213,13.024l-2.409,3.789c-3.308,5.2-5.922,9.316-8.571,13.444,4.873,2.31,9.736,4.623,15.306,7.277l-69.7,0a38.947,38.947,0,0,1-8.378-6.143,22.025,22.025,0,0,0-8.323-5.317,26.047,26.047,0,0,0-8.745-1.351,77.127,77.127,0,0,0-9.827.848,74.693,74.693,0,0,1-8.894.8,13.7,13.7,0,0,0-8.725,3.247,25.5,25.5,0,0,0-6.107,7.912H4730.726l-9-15.753c-6.147-10.758-12.757-22.327-19.448-34.032l-2.048,1.468-.4.287c-5.561,3.986-10.814,7.75-16.956,12.066-6.875-3.267-12.693-4.923-17.291-4.923a14.06,14.06,0,0,0-6.165,1.277,11.186,11.186,0,0,0-4.381,3.834c.352-.008.658-.011.936-.011,8.233,0,15.01,2.553,20.716,7.8,4.978,4.579,8.484,10.606,11.579,15.923l.006.009a84.412,84.412,0,0,0,5.3,8.373c3.29,1.194,6.464,2.348,9.4,3.417l.719.262Zm-235.431-48.424a38.818,38.818,0,0,0-7.4.814,44.912,44.912,0,0,1,4.14,8.681,12.506,12.506,0,0,1,.413,7.756c-.964,3.026-3.507,5.453-7.772,7.419a47.273,47.273,0,0,1,4.836,4.644l.009.01,0,0c2.936,3.1,5.709,6.024,8.836,6.024,2.175,0,4.358-1.419,6.672-4.338,1.705-2.172,2.772-5.4,3.171-9.585a55.587,55.587,0,0,0-.238-11.149c-.367-3.419-1.615-6.014-3.709-7.714S4472.11,1290.882,4468.259,1290.882Zm-170.049,5.97c-4.743,0-9.285,2.716-13.292,5.111l-.243.146c-8.735,5.222-5.65,12.669-1.745,22.1l.167.4.442,1.069c10.984-7.844,18.719-13.351,28.115-19.974h-.093C4307.482,1299.747,4303.115,1296.852,4298.21,1296.852Zm465.793-111q-.559.535-1.118,1.067c-8.527,8.136-16.578,15.818-14.219,29.513.45,2.694-1.835,5.972-4.045,9.142-.632.9-1.153,1.656-1.634,2.407-7.2,11.1-14.592,22.346-21.738,33.221l-.661,1.006c-3.122,4.752-6.351,9.666-9.6,14.625v.1l2.995,2.185.164.119c5.711,4.167,11.106,8.1,16.72,12.274.684-3.723.194-7.557-.279-11.265v-.008c-.98-7.682-1.907-14.937,7.382-20.344a12.882,12.882,0,0,1,6.528-1.987c3.979,0,7.087,2.363,10.094,4.648a21.13,21.13,0,0,0,6.289,3.773c4.035-15.674,8.048-31.463,11.587-45.392l.249-.978c2.411-9.484,4.9-19.291,7.382-28.987-2.536-.807-4.841-1.537-6.985-2.216C4770.128,1187.8,4767.044,1186.825,4764,1185.849Zm-648.111,64.986a10.689,10.689,0,0,0-4.491,1.246,5.5,5.5,0,0,0-3.387,7.529,12.766,12.766,0,0,0,2.177,4.817,18.573,18.573,0,0,0,4.827,4.458,10.672,10.672,0,0,0,5.614,1.517c4.65,0,10.786-2.446,21.178-8.438l-.1-.094c-3.214-1.464-6.138-2.86-8.718-4.092l-.066-.032c-6.066-2.9-10.858-5.185-15.922-6.764A3.821,3.821,0,0,0,4115.892,1250.835ZM5320.6,1339.3h0l-62.581,0c-16.2-23.048-32.9-46.041-49.616-68.342-2.8-3.731-5.388-7.794-7.894-11.724l-.011-.018,0-.006c-3.717-5.831-7.561-11.861-12.208-17.033a50.725,50.725,0,0,0-7.726-7.081,42.012,42.012,0,0,0-9.647-5.323c-.837-.358-1.254-1.716-1.7-3.155l-.005-.019a14.038,14.038,0,0,0-.855-2.317c-1.213-2.261-2.365-4.641-3.479-6.944-2.718-5.619-5.529-11.428-9.489-16.061-16.167-18.922-32.472-38.278-48.24-57l-.034-.04-.056-.066c-21.592-25.633-43.92-52.139-66.2-77.9-25.005-28.911-47.311-53.81-68.191-76.121-19.258-20.567-40.866-42.554-66.059-67.216-22.5-22.029-45.661-44.052-68.056-65.351-17.713-16.845-36.03-34.264-54-51.667-.777-.754-1.556-1.536-2.311-2.292a56.14,56.14,0,0,0-9.206-7.98,23.293,23.293,0,0,0-5.6-2.649,22.241,22.241,0,0,0-6.766-1.008c-.274,0-.553,0-.828.013-.49.018-1,.027-1.5.027a40.39,40.39,0,0,1-11.085-1.521,32.766,32.766,0,0,1-9.484-4.347,23.135,23.135,0,0,1-6.729-6.838,18.528,18.528,0,0,1-2.82-9,32.648,32.648,0,0,0-1.921-9.841,29.806,29.806,0,0,0-4.193-7.639c-3.39-4.525-7.724-8.018-12.312-11.717l-.012-.01-.034-.028c-1.526-1.23-3.1-2.5-4.629-3.806-13.485-11.467-25.407-21.377-36.449-30.295-24.481-19.819-49.572-39.51-74.576-58.526s-50.6-37.879-76.11-56.079-51.62-36.239-77.642-53.634-52.653-34.614-79.17-51.191-53.661-32.976-80.7-48.75c-27.014-15.763-54.678-31.344-82.222-46.311s-55.706-29.721-83.744-43.875-56.729-28.1-85.265-41.441c-15.921-7.4-32.216-14.641-47.974-21.639-8.413-3.735-17.111-7.6-25.776-11.5l-.443.572c-.487.626-1.016,1.308-1.546,1.987l.256.355c9.336,12.994,18.99,26.431,28.053,39.121-2.93,3.3-5.78,6.506-8.446,9.5-4.729,5.317-9.619,10.815-14.749,16.626-.776-1.106-1.607-2.3-2.489-3.561l-.785-1.125c-1.913-2.744-4.178-5.991-6.855-9.8l4.419-2.759.7-.435.051-.033c4.1-2.562,7.345-4.586,8.369-5.2-3.159-3.941-5.948-7.807-8.645-11.546l-.006-.008c-2.9-4.014-5.633-7.806-8.5-11.237a54.292,54.292,0,0,0-9.262-9.018,102.506,102.506,0,0,0-18.166-11.029,58.565,58.565,0,0,0-19.8-5.633,104.829,104.829,0,0,1-11.763-1.277A41.786,41.786,0,0,1,3874.831,266c-2.558-1.28-5.448-1.856-9.448-2.654-2.251-.449-4.8-.957-7.874-1.7,5.12,6.5,11.468,10.741,17.608,14.841,4.7,3.138,9.14,6.1,12.714,9.878a27.833,27.833,0,0,1,4.583,6.358,27.179,27.179,0,0,1,2.679,8.214,16.7,16.7,0,0,1-3.636.434,10.909,10.909,0,0,1-7.52-2.868,31.376,31.376,0,0,1-4.962-6.271l-.009-.014a41.754,41.754,0,0,0-3.539-4.826,11.78,11.78,0,0,0-4.569-3.309,189.036,189.036,0,0,1-20.626-9.834l-.054-.028c-3.02-1.593-5.872-3.1-8.763-4.528v-21.3h-36.259c1.377,2.8,2.647,5.4,3.869,7.892l.944,1.927c2.72,5.552,5.289,10.795,7.874,16.026-1.691,1.754-3.594,3.377-5.435,4.947l-.009.008c-3.272,2.792-6.363,5.429-8.032,8.515a9.649,9.649,0,0,0-1.246,5.014,12.886,12.886,0,0,0,1.938,6.039c9.024,4.37,17.584,8.5,27.038,13.065l.342.165c11.271,5.441,21.916,10.58,32.74,15.833-.577.625-1.2,1.25-1.755,1.8l-.024.024c-.573.573-1.164,1.166-1.724,1.771q1.453,3.853,2.907,7.723c2.769,7.36,5.633,14.97,8.547,22.574-.433-.13-.881-.263-1.276-.379-5.814-1.728-11.306-3.359-15.181-6.664a14.39,14.39,0,0,1-4.391-6.418,23.611,23.611,0,0,1-.833-10.206c.216-1.936-1.221-4.727-3.94-7.658a26.887,26.887,0,0,0-8.274-6.165c-6.02-2.514-12.56-3.574-19.484-4.7-2.881-.467-5.859-.949-8.823-1.554a67.953,67.953,0,0,1-1.364,11.664,17.567,17.567,0,0,1-3.229,7.307,12.893,12.893,0,0,1-5.925,4.023,38.414,38.414,0,0,1-9.458,1.811c-2.744.275-5.549.671-8.262,1.055a111.053,111.053,0,0,1-15.246,1.447,39.108,39.108,0,0,1-7.733-.7,86.544,86.544,0,0,1-24.367-8.473,74.812,74.812,0,0,1-20.6-16.141,19.055,19.055,0,0,1,5.495-.9,9.84,9.84,0,0,1,5.489,1.47,34.7,34.7,0,0,0,19.249,5.526,55.9,55.9,0,0,0,11.149-1.237c3.9-.79,7.829-1.893,11.163-2.868,5.568-1.619,9.141-3.962,11.243-7.374,2.01-3.265,2.739-7.66,2.295-13.832-.111-1.565-.269-3.162-.436-4.853a84.824,84.824,0,0,1-.613-10.443,18.565,18.565,0,0,1,2.089-8.944c3.692-6.354,5.217-12.233,4.663-17.975-.527-5.459-2.95-10.851-7.409-16.485,4.2-3.443,8.042-6.575,12.107-9.891l.153-.124c3.349-2.733,7.146-5.829,11.5-9.394-5.443-2.573-10.7-5.128-15.341-7.383l-.024-.012c-12.578-6.111-23.441-11.389-34.907-15.8a9.924,9.924,0,0,0-3.649-.591,20.951,20.951,0,0,0-6.89,1.283,12.61,12.61,0,0,0-5.271,3.284,51.568,51.568,0,0,1-16.45,13.207,42.99,42.99,0,0,1-19.148,4.4c-1.936,5.223-3.731,10.092-5.552,15.034l-.027.072c-1.8,4.87-3.347,9.076-4.739,12.823,9.977,10.069,19.454,19.549,29.488,29.585l1.657,1.658-.858.394c-7.78,3.572-11.686,5.366-14.687,5.367-2.865,0-4.872-1.594-8.784-4.908a288.006,288.006,0,0,0-25.881-19.576,295.4,295.4,0,0,0-27.586-16.389A315.642,315.642,0,0,0,3615.05,231.7c-9.824-3.92-20.145-7.478-30.675-10.575a23.282,23.282,0,0,0-4.219-.653l-.016,0c-.838-.081-1.705-.164-2.679-.293.272,2.614.537,5,.829,7.621l.018.157c.272,2.456.53,4.775.766,7.088a68.949,68.949,0,0,1-13.446,1.619,27.71,27.71,0,0,1-10.845-1.988,27,27,0,0,1-9.79-7.207c-2.288-2.494-7.274-2.759-12.1-3.016l-.031,0c-1.727-.092-3.512-.188-5.1-.39-2.686-.344-5.466-.491-8.154-.633-4.706-.248-9.573-.5-14.093-1.831a53.834,53.834,0,0,0-15.7-2.621,42.347,42.347,0,0,0-12.889,2.054,14.286,14.286,0,0,1-4.391.623c-3.4,0-7.214-.893-11.252-1.839l-.02-.005c-2.841-.664-5.778-1.352-8.857-1.809,1.623-1.973,2.956-3.592,4.141-5.031,2.376-2.887,4.094-4.973,6.366-7.748-2.434-.331-4.75-.709-6.99-1.074h-.007a94.8,94.8,0,0,0-13.738-1.578l-4.4-.1c-12-.273-24.406-.554-36.641-.554-8.071,0-15.362.121-22.291.369h-.016a107.259,107.259,0,0,0-14.563,1.313c-5.542,1.029-9.382,2.736-11.739,5.219-4.531,4.723-9.179,6.83-15.069,6.83a55.726,55.726,0,0,1-9.127-1.037l-.171-.029c-.729-.122-1.483-.248-2.237-.367a33.675,33.675,0,0,1-7.3-1.93,28.552,28.552,0,0,1-6.459-3.562c-4.054-2.961-7.79-7.265-11.421-13.159,5.326-.969,9.909-1.763,14.762-2.6,3.666-.634,7.458-1.291,11.651-2.039-7.434-9.958-17.2-12.146-26.652-14.263a84.039,84.039,0,0,1-10.649-2.871,92.169,92.169,0,0,1-2.841,8.8l-.007.019,0,.011a69,69,0,0,0-2.6,8.191c-.576,2.693-.438,4.474.435,5.607,3.791,5.069,4.952,9.092,3.657,12.661-1.172,3.222-4.26,5.8-7.531,8.534l0,0c-.8.671-1.635,1.366-2.466,2.092a38.15,38.15,0,0,0-12.429-8.572,31.972,31.972,0,0,0-12.387-2.361c-7.261,0-14.382,2-21.921,4.122-6.045,1.7-12.3,3.457-18.591,4.065.471,3.534.883,6.759,1.263,9.759l.077.6c.373,2.926.724,5.688,1.125,8.668a43.6,43.6,0,0,1-5.1.3,52.244,52.244,0,0,1-14.026-2.066c-4.475-1.238-8.867-2.912-13.115-4.532l-.012,0c-3.963-1.511-8.061-3.074-12.2-4.268a53.29,53.29,0,0,0-12.831-2.213c2.732,2.844,5.414,5.709,8.521,9.026,1.771,1.891,4.195,4.481,6.816,7.258a28.979,28.979,0,0,1-10.491,2.072,28.106,28.106,0,0,1-11.5-2.6,79.162,79.162,0,0,1-10.145-5.728l-.22-.139a81.363,81.363,0,0,0-9.893-5.641,26.4,26.4,0,0,0-10.948-2.551c-.224,0-.451,0-.674.009a39.89,39.89,0,0,0,2.088-12.9,25.459,25.459,0,0,0-2.42-10.455c-2.787-5.84-8.005-10.834-15.953-15.267-1.643-.912-2.88-2.64-4.591-5.031-.979-1.369-2.09-2.919-3.55-4.721,3.053.336,5.716.517,8.066.678h.007c4.273.291,7.649.521,10.764,1.5,11.244,3.583,22.593,7.464,33.569,11.217l.1.034c9.891,3.382,20.117,6.879,30.241,10.148a59.786,59.786,0,0,0,18.444,2.9A70.509,70.509,0,0,0,3216.443,200a124.8,124.8,0,0,0,20.292-8.127,55.091,55.091,0,0,1-2.93-5.219l-.009-.018c-1.812-3.523-3.377-6.564-5.771-7.446-13.929-5.087-27.236-12.116-40.1-18.914-8.66-4.575-17.613-9.3-26.687-13.407a164.855,164.855,0,0,0-28.261-10.094,77.025,77.025,0,0,0-14.195-1.567h-.018c-6.161-.3-12.531-.613-18.142-2.709a23.565,23.565,0,0,1-7.806-4.7,27.19,27.19,0,0,1-6.229-8.722c-.318-.582-1.629-.63-3.062-.63h-.592l-.627,0a13.8,13.8,0,0,1-2.252-.133c-2.368-.391-4.746-.779-7.386-1.209-7.705-1.256-15.672-2.553-23.478-4-.677-.124-1.246-.986-1.9-1.984l0-.006a19.816,19.816,0,0,0-1.214-1.7c1.226-1.361,2.456-2.771,3.646-4.134,1.28-1.468,2.731-3.131,4.21-4.765A143.705,143.705,0,0,0,3029.489,89.5a72.4,72.4,0,0,0-22.672-3.831,70.528,70.528,0,0,0-20.844,3.269,120.611,120.611,0,0,0-23.129,10.156c-1.519-1.792-3.061-3.6-4.919-5.786l-.425-.5c-1.042-1.224-2.127-2.5-3.272-3.845-5.209.188-10.451,2.084-15.52,3.919-5.4,1.954-10.986,3.974-16.6,3.974a21.038,21.038,0,0,1-7.655-1.39,25.707,25.707,0,0,1-7.844-4.9c-.513,5.542-.772,8.267-1.042,10.794-2.811-.393-5.714-1.091-8.521-1.766-3.682-.886-7.16-1.723-9.883-1.723A6.165,6.165,0,0,0,2883.129,99a19.045,19.045,0,0,1-7.456,3.878,40.9,40.9,0,0,1-7.486,1.041,54.1,54.1,0,0,0-5.885.666c-1.427.277-2.9.549-4.333.813l-.063.012c-8.984,1.652-18.274,3.361-25.423,8.074-7.532,4.931-14.935,7.432-22,7.432a27.781,27.781,0,0,1-13.692-3.552c-5.736,3.279-10.367,5.966-14.453,8.336l0,0-.159.092c-2.862,1.661-5.335,3.094-7.536,4.352,2.232-.141,4.667-.3,7.245-.466l.054,0,.089-.006c6.016-.39,12.835-.833,19.688-1.226.125.659.261,1.374.419,2.187l.054.28c.124.644.252,1.309.378,1.982-4.8,1.791-8.872,4.994-12.812,8.092a64.88,64.88,0,0,1-9.693,6.711,25.245,25.245,0,0,1-11.992,3.059c-.616,0-1.241-.022-1.858-.064-.087-.007-.179-.01-.273-.01-1.42,0-3.091.816-5.11,2.5a59.178,59.178,0,0,0-5.118,5.081c-.481.518-.914.983-1.334,1.426-3.259,3.417-6.414,7.082-9.464,10.626-5.741,6.667-11.674,13.557-18.514,19.057a57.577,57.577,0,0,1-11.144,7.133,49.618,49.618,0,0,1-13.419,4.271,18.1,18.1,0,0,0-5.632,2.433c-.733.419-1.426.814-2.131,1.166,2.093,1.849,3.8,3.363,5.367,4.756l.037.033c2.436,2.161,4.2,3.722,5.955,5.247v.032c-.092,1.846-.187,3.755-.187,5.649a26.219,26.219,0,0,0-12.922-3.719,25.457,25.457,0,0,0-10.314,2.36,79.238,79.238,0,0,0-9.4,5.194c-4.276,2.622-8.694,5.33-13.474,6.674a17.349,17.349,0,0,0-8.681-2.716,12.966,12.966,0,0,0-8.048,3.006,47.022,47.022,0,0,0-6.508,6.613l-.148.173a48.341,48.341,0,0,1-6.332,6.505,12.179,12.179,0,0,1-7.637,2.942,13.608,13.608,0,0,1-5.533-1.281c1.317,1.669,2.389,3.267,3.426,4.812,1.964,2.926,3.661,5.454,6.041,6.831,2.738,1.6,6.188,2.082,9.525,2.546,1.391.194,2.83.394,4.2.674a37.428,37.428,0,0,0-8.266,1.087,22.271,22.271,0,0,0-6.87,2.995c-4.256,2.834-7.326,7.258-9.383,13.527,3.331.932,6.326,1.746,9.5,2.607l.124.033.16.044c2.8.759,5.686,1.544,8.869,2.429-1.721.653-3.347,1.178-4.921,1.686l-.01,0c-3.4,1.1-6.336,2.047-8.608,3.8-3.016,2.366-4.558,5.514-4.231,8.636a8.224,8.224,0,0,0,4.8,6.512c10.039,4.928,20.875,9.489,32.1,9.489a39.013,39.013,0,0,0,8.65-.957,39.629,39.629,0,0,0,8.763-3.136c8.419-4.176,16.6-9.234,25.261-14.589,4.191-2.592,8.523-5.27,13.176-8.037,1.23,2.253,2.46,4.477,3.649,6.628l.089.161c3.133,5.667,6.093,11.019,8.946,16.594,1.089,2.143,2.019,4.429,2.919,6.64l.009.024c1.593,3.914,3.24,7.961,5.782,11.23.974,1.254,1.985,2.462,2.963,3.631l.033.04,0,0c4.017,4.8,7.811,9.336,9.024,16.68a12.9,12.9,0,0,0,5.058,8,14.7,14.7,0,0,0,8.7,3.093,10.057,10.057,0,0,0,3.927-.754,8.445,8.445,0,0,0,3.232-2.39,23.572,23.572,0,0,1,10.234-7.229,49.583,49.583,0,0,1,10.784-2.261,55.3,55.3,0,0,0,7.386-1.3c6.248-6.673,9.249-14.858,12.15-22.774a92.618,92.618,0,0,1,6.034-14.061,35.944,35.944,0,0,1,4.345-6.158,29.9,29.9,0,0,1,5.968-5.194c.816-.566.967-2.134,1.141-3.951l0-.016a28.2,28.2,0,0,1,.374-2.851c1.054.147,2.063.33,3.039.508l.016,0a30.132,30.132,0,0,0,5.289.654c.284,0,.566-.009.839-.027a43.624,43.624,0,0,0,7.823-1.467l.056-.014c1.295-.318,2.634-.646,4.143-.981-1.056-1.295-1.917-2.479-2.677-3.524a20.319,20.319,0,0,0-3.949-4.521,72.874,72.874,0,0,0-7.7-4.9l-.024-.014a70.369,70.369,0,0,1-7.557-4.812,15.034,15.034,0,0,1-4.976-5.9c-1.949-4.638.039-11.023,1.962-17.2l0-.007,0-.007c.78-2.5,1.585-5.087,2.106-7.5a11.93,11.93,0,0,1,1.469-3.253l.006-.011c.486-.878,1.013-1.84,1.65-3.081,3.325-1.322,6.654-2.643,10.631-4.219l.029-.012c13.5-5.354,27.468-10.891,41.6-16.693l.7-.289.158-.064c3.584-1.469,7.285-2.987,9.6-5.514a9.06,9.06,0,0,0,2.313-4.7,15.668,15.668,0,0,0-.651-7.041c-.564-2.046,1.727-5.607,7.007-10.887a26.5,26.5,0,0,1,11.016-6.271,48.744,48.744,0,0,1,14.5-2.032,63.991,63.991,0,0,1,11.161,1,62.532,62.532,0,0,1,10.843,2.932c7.3,2.717,13.265,6.618,17.24,11.282.443.571.161,1.712-.066,2.63a5.676,5.676,0,0,0-.218,1.159c-25.506,14.246-51.143,28.531-70.628,39.384,1.426,13.325,2.813,26.123,4.638,42.792a124.735,124.735,0,0,0,20.98,8.433,79.99,79.99,0,0,0,22.575,3.359,74.451,74.451,0,0,0,19.406-2.609c6.015-1.611,12.474-1.828,18-1.828,1.81,0,3.639.026,5.407.051h.085l.2,0c1.729.022,3.518.046,5.288.046,1.723,0,3.238-.022,4.631-.069.323-.009.649-.013.97-.013,9.8,0,18.241,3.885,26.579,12.226a81.584,81.584,0,0,1-30.9,6.056,104.981,104.981,0,0,1-23.348-2.837,35.408,35.408,0,0,0-8.009-.832,104.938,104.938,0,0,0-15.539,1.607H2939c-3.559.545-7.238,1.109-10.806,1.4,4.992,6.419,8.278,11.449,9.241,16.685,1.077,5.853-.928,11.561-6.309,17.963-2.143-.724-4.373-1.37-6.733-2.053l-.019-.006a87.217,87.217,0,0,1-14.927-5.326,20.805,20.805,0,0,0-9.278-2.529,14.976,14.976,0,0,0-7.371,2,32.345,32.345,0,0,0-7.114,5.645,21.454,21.454,0,0,0-4.1,5.663,20.586,20.586,0,0,0-1.845,5.874,48.825,48.825,0,0,0,.053,12.031l0,.016a71.964,71.964,0,0,1,.4,8.038c-2.341.919-4.609,1.9-6.8,2.843l-.007,0a84.368,84.368,0,0,1-14.3,5.2l-.281.066c-3.962.933-8.893,2.1-13.026,2.1-2.8,0-4.86-.521-6.289-1.593a23.234,23.234,0,0,0-14.468-4.8,59.036,59.036,0,0,0-12.72,1.88c-1.768.394-3.593.8-5.381,1.123-9.857,1.732-19.632,4.729-29.085,7.627l-.013,0c-3.986,1.222-8.108,2.486-12.179,3.636a40.315,40.315,0,0,1-8.006-5.518l0,0h0a50.192,50.192,0,0,0-6.169-4.522,12.272,12.272,0,0,0-13.845.2,45.993,45.993,0,0,1-10.093,4.727,31.074,31.074,0,0,1-9.339,1.5,28.19,28.19,0,0,1-8.139-1.213,34.445,34.445,0,0,1-7.7-3.466,63.717,63.717,0,0,1-14.52-12.628c3.027-4.73,6.083-9.525,9.037-14.162l.166-.261.25-.392c1.331-2.088,2.634-4.133,3.9-6.109-.676-1.028-1.484-2.035-2.266-3.009l-.014-.017c-1.75-2.176-3.4-4.232-3.4-6.25.066-2.081,1.772-4.16,3.423-6.17a34.218,34.218,0,0,0,2.164-2.825c-.757-.631-1.471-1.3-2.162-1.952l-.007-.007c-.344-.324-.7-.659-1.05-.976-7.981,5.188-15.977,10.354-24.443,15.823l-.358.231-2.616,1.691q-3.928,2.538-7.994,5.166,1.37,2.884,2.706,5.7l1.241,2.618c4.527,9.549,9.208,19.422,14.612,30.682-2.465.481-4.687.874-6.649,1.221l-.022,0a96.3,96.3,0,0,0-11.79,2.563c-4.517,1.426-9.57,1.865-14.456,2.289-6.291.545-12.793,1.108-18.137,3.8a19.954,19.954,0,0,0-7.112,5.911,28.993,28.993,0,0,0-4.792,10.724c-4.058-3.505-6.424-5.588-8.712-7.6l-.007-.006-.179-.158a92.343,92.343,0,0,1-16.285,16.806,119.949,119.949,0,0,1-21.587,13.68c-.478.246-.968.491-1.511.762-2.913,1.456-5.925,2.96-7.859,5.3-5.668,6.927-11.3,12-17.22,15.519a42.434,42.434,0,0,1-9.98,4.346,40.528,40.528,0,0,1-11.142,1.538,49.075,49.075,0,0,1-10.7-1.239,5.576,5.576,0,0,0-1.244-.129,16.718,16.718,0,0,0-3.209.442c-.847.17-1.722.346-2.647.446.269,3.5.483,6.759.691,9.91l.056.848c.068,1.02.133,2,.2,2.968a21.576,21.576,0,0,1-6.036,2.094,32.649,32.649,0,0,1-6.264.541c-2.512,0-5.106-.2-7.614-.4h-.008l-.028,0h-.009c-2.522-.2-5.13-.4-7.705-.4a28.331,28.331,0,0,0-11.351,2.017A26.3,26.3,0,0,0,2457,486.5c3.779.531,7.383.867,10.869,1.192l.032,0c7.785.724,14.509,1.35,20.625,3.822,7.026,2.85,13.493,7.53,19.746,12.056l.005,0c2.664,1.927,5.419,3.921,8.176,5.742.2,1.713.441,3.424.657,4.933a64.576,64.576,0,0,1,.955,11.348c-.283,8.489-2.719,15.122-7.243,19.717s-11.076,7.079-19.458,7.361c-1.429.045-2.9.067-4.5.067-3.935,0-7.94-.138-11.812-.271l-.129,0-.062,0c-3.875-.133-7.882-.271-11.8-.271a95.511,95.511,0,0,0-16.666,1.238,91.013,91.013,0,0,1-15.3.887h-1.559c-6.363,0-13.574,0-20.321,1.835a33.461,33.461,0,0,0-9.522,4.186,35.2,35.2,0,0,0-8.677,8.049c14.222,18.483,14.385,37.274.471,54.344,2.811,4.833,5.532,9.478,7.718,13.21,1.806,3.083,3.736,6.379,5.728,9.795,1.688-.129,3.384-.284,5.18-.449l.069-.006c4.665-.427,9.489-.869,14.35-.869.656,0,1.341-.01,2.064-.021l.127,0h.044c.8-.011,1.617-.024,2.442-.024,3.941,0,8.2.276,9.9,2.319a23.261,23.261,0,0,0,6.806,5.842,13.949,13.949,0,0,0,6.706,1.694c5.322,0,10.75-2.833,16.5-5.834a51.353,51.353,0,0,1,23.058-5.973c.317,0,.618,0,.9.011.2,0,.412.006.633.006a31.216,31.216,0,0,0,13.182-3.03,83.9,83.9,0,0,0,11.234-6.624l.024-.016c2.342-1.55,4.763-3.153,7.213-4.539a28.987,28.987,0,0,0,8.5-7.976,23.265,23.265,0,0,0,2.819-5.018,8.867,8.867,0,0,0,.708-4.521,26.544,26.544,0,0,1,.288-10.919,18.832,18.832,0,0,1,4.066-7.686c3.694-4.289,9.185-7.2,14.494-10.016,1.367-.726,2.781-1.475,4.154-2.243a64.55,64.55,0,0,1,9.326-4.022,64.387,64.387,0,0,0,9.328-4.023,23.632,23.632,0,0,0,5.314-4.049,13.1,13.1,0,0,0,3.395-5.325l.244-.878c2.022-7.271,3.357-12.074,5.094-15.081a8.147,8.147,0,0,1,3.034-3.226,8.776,8.776,0,0,1,4.432-.972c3.221,0,7.712.978,13.707,2.36a65.641,65.641,0,0,0,14.651,1.823,42.726,42.726,0,0,0,12.331-1.724,42.133,42.133,0,0,0,11.833-5.684,86.657,86.657,0,0,1,14.108-7.29,30.765,30.765,0,0,1,11.893-2.668,22.128,22.128,0,0,1,5.841.774,22.919,22.919,0,0,1,5.448,2.3,34.988,34.988,0,0,1,9.858,9.059c4.771,6.129,9.644,10.652,14.484,13.443,9.908,5.644,20.217,10.949,30.186,16.08,6.44,3.314,13.1,6.741,19.611,10.238,1.438.775,2.949,1.541,4.41,2.281,6.049,3.063,12.3,6.231,15.946,11.162,3.076,4.125,4.13,9.861,5.15,15.409.454,2.472.925,5.028,1.571,7.408,1.177-1.1,2.419-2.265,3.654-3.418l1.232-1.151c3.35-3.128,6.313-5.9,8.652-8.118-.619-1.995-1.175-3.818-1.665-5.425l-.068-.224c-.842-2.764-1.569-5.151-2.336-7.511,1.129-.274,2.29-.634,3.413-.982a25.748,25.748,0,0,1,7.311-1.527c.349,0,.689.017,1.012.049,2.753.269,5.4,1.7,7.961,3.084l.017.009c1.045.564,2.125,1.147,3.194,1.641.284-4.769-.9-8.226-3.028-8.806-7.823-2.234-14.746-6.591-21.442-10.8a141.592,141.592,0,0,0-12.516-7.291,48.484,48.484,0,0,0-13.853-4.625c-4.73-.774-9.437-5.361-12.875-8.711-6-5.729-11.794-11.779-17.933-18.184l-.016-.018c-2.615-2.727-5.319-5.549-8.181-8.5.034-5.483,1.006-10.178,2.809-13.578a11.181,11.181,0,0,1,3.129-3.834,6.649,6.649,0,0,1,4.014-1.363,10.165,10.165,0,0,1,6.141,2.491c3,2.334,6.79,3.492,10.455,4.611l.008,0c3.389,1.035,6.893,2.1,9.826,4.1a15.461,15.461,0,0,1,3.94,3.816,18.555,18.555,0,0,1,2.752,5.929c1.382,4.749,8.714,8.227,15.184,11.3l.029.014c1.554.737,3.022,1.433,4.386,2.134,5.135,2.643,10.478,5.077,15.644,7.432a240.153,240.153,0,0,1,23.36,11.69c1.854,1.121,3.557,3.36,4.923,6.473a32.278,32.278,0,0,1,2.367,8.675,51.323,51.323,0,0,0,4.473,15.738,45.534,45.534,0,0,0,37.183,26.107,6.212,6.212,0,0,1,2.19.863l.022.012c.521.274,1.113.585,1.86.925-3.708.954-6.723,1.753-9.383,2.458-1.861.492-3.786,1-5.765,1.517,3.357,3.357,6.421,6.4,9.384,9.334,2.855,2.831,5.439,5.394,8.131,8.086,5.837-7.116,11.269-13.809,17.558-21.558l.109-.134.6-.744a18.351,18.351,0,0,1-6.635-2.319,10.838,10.838,0,0,1-3.7-3.733c-1.7-2.859-2.108-6.427-2.5-9.879-.441-3.884-.9-7.9-3.167-11.052,3.346-.77,6.476-1.635,9.5-2.472,6.772-1.873,12.622-3.491,18.616-3.491,7.749.065,15.587,1.616,23.167,3.115l.031.006c3.3.652,6.7,1.326,10.066,1.87l-.377.042-.064.008-.147.016-.294.032c.006,0,.008,0,.009.006l1.029-.079-.072-.011-.064-.011-.02,0,3.2-.359,2.687-.3c8.854-.992,18.009-2.019,29.3-3.289-3.375-4.5-6.243-8.314-9.016-12l-.422-.561-.245-.326c-2.4-3.189-4.661-6.2-7.173-9.549,4.4-4.346,8.765-8.753,12.983-13.015l.008-.008c10.147-10.255,19.732-19.941,30.183-29.2a65.259,65.259,0,0,1,9.723-7.384,20.757,20.757,0,0,1,10.525-3.253,16.53,16.53,0,0,1,7.35,1.786,28.464,28.464,0,0,1,7.808,6.009c2.267,2.327,6.222,3.034,11.23,3.928h0c2.726.487,5.815,1.038,9.121,1.939-6.011,4.134-9.238,6.315-12.357,8.425l-.141.1c4.074,6.112,6.859,9.536,9.613,11.819a15.083,15.083,0,0,0,10.245,3.725,36.329,36.329,0,0,0,9.691-1.617c3.441-.964,7.613-2.4,13.526-4.647-1.31-1.967-2.638-3.94-4.044-6.029l-.095-.141c-1.5-2.224-3.363-4.992-5.514-8.219a62.991,62.991,0,0,1,16.72-5.175,99.351,99.351,0,0,1,16.711-1.218c4.078,0,8.221.153,12.227.3h.051c4.02.149,8.175.3,12.294.3,1.752,0,3.372-.027,4.953-.083a12.687,12.687,0,0,0-4.919,4.617,43.944,43.944,0,0,0-3.2,6.347l0,.007c-1.322,3-2.689,6.11-4.784,8.4a11.194,11.194,0,0,1-3.8,2.769,13.421,13.421,0,0,1-5.5,1.052,27.371,27.371,0,0,1-6.664-.946c8.566,9,19,15.426,29.094,21.639,8.062,4.962,16.4,10.092,23.571,16.449a69.275,69.275,0,0,1,9.894,10.7,62.25,62.25,0,0,1,7.689,13.7c-3.575.841-6.878,1.872-10.072,2.871l-.006,0c-5.574,1.742-10.388,3.248-15.015,3.248h0a19.106,19.106,0,0,1-2.457-.155l-1.412-.179c-10.385-1.319-21.124-2.683-31.456-5.092a123.592,123.592,0,0,1-15.276-4.544,93.877,93.877,0,0,1-14.72-6.94,91.118,91.118,0,0,0-19.438-8.644,70.039,70.039,0,0,0-20.308-3.087,67.512,67.512,0,0,0-11.466.991,73.534,73.534,0,0,0-11.744,3.073c-5.275,1.839-11.111,1.991-17.126,1.991l-1.532,0h-.006l-1.5,0c-.584-.006-1.153-.009-1.739-.009-9.283,0-16.808.92-25.622,5.5a34.048,34.048,0,0,1-15.92,3.821,40.828,40.828,0,0,1-13.628-2.414,48.577,48.577,0,0,1-12.951-7.008l-.137.01h-.022l-.022,0,.045,0a35.005,35.005,0,0,0-2.329,12.721,37.644,37.644,0,0,0,2.068,11.747c2.138,6.316,5.871,12.742,11.748,20.224a53.41,53.41,0,0,0,14.458,13.268,35.978,35.978,0,0,0,18.729,5.31,42.206,42.206,0,0,0,13.867-2.483,12.271,12.271,0,0,1,3.986-.6c6.422,0,13.916,3.664,16.841,5.239a69.692,69.692,0,0,0,12.841,5.306,47.146,47.146,0,0,0,13.327,1.949,47.674,47.674,0,0,0,6.4-.439c7.282-.993,14.586-1.472,21.651-1.935h.021c3.069-.2,5.967-.391,8.813-.619a38.893,38.893,0,0,1,1.7,12.5,34.309,34.309,0,0,1-2.084,10.576c-2.364,6.544-6.432,12.268-10.367,17.8a96.154,96.154,0,0,0-8.184,12.9A28.788,28.788,0,0,1,3068.3,726a20.837,20.837,0,0,1-12.2,3.75,28.976,28.976,0,0,1-6.532-.791l-2.575-.6-.037-.009c-6.065-1.426-12.336-2.9-18.5-3.984a107.319,107.319,0,0,0-18.595-1.807,67.581,67.581,0,0,0-22.495,3.658,3.778,3.778,0,0,1-1.3.216c-1.647,0-3.631-.861-5.549-1.693l-.014-.006a28.151,28.151,0,0,0-3.829-1.451c-2.784-.757-5.574-1.511-8.174-2.213l-.006,0c-13.551-3.659-27.562-7.444-41.175-11.741a344.659,344.659,0,0,1-40.208-15.2,22.055,22.055,0,0,0-9.37-1.744,87.822,87.822,0,0,0-14.851,1.783c-1.444.256-2.807.5-4.18.719a9.418,9.418,0,0,0-4,1.5,7.911,7.911,0,0,0-2.4,2.691,24,24,0,0,0-2.156,7.461l-.006.032c-.26,1.432-.529,2.914-.909,4.314-1,3.706-2.461,6.351-4.468,8.089a11.141,11.141,0,0,1-7.634,2.537,31.6,31.6,0,0,1-9.1-1.631c-2.7-.818-5.438-1.639-8.09-2.432l-.256-.076-.081-.024c-8.583-2.569-17.459-5.227-26.127-8.163-3.819-1.334-9.05-3.162-11.363-6.439a28.432,28.432,0,0,0-6.129-6.418,30.618,30.618,0,0,0-7.087-3.983c-4.972-2.023-10.465-2.981-15.777-3.908h-.005c-3.118-.544-6.343-1.106-9.439-1.879-2.874-.733-5.8-1.476-8.637-2.193l-.291-.074-.049-.013c-10.59-2.682-21.541-5.456-32.2-8.42-1.184-.31-2.035-1.556-3.021-3l-.024-.036a24.5,24.5,0,0,0-1.691-2.268c2.564-2.719,5.067-5.439,7.078-7.626l.029-.031.058-.062c1.644-1.786,2.943-3.2,3.817-4.114-.782-5.3-1.441-9.87-2.079-14.286l-.145-1c-.679-4.713-1.353-9.379-2.13-14.631-1.416.066-2.894.128-4.167.182-4.854.2-9.874.417-14.958.859-3.8.306-7.664.74-11.4,1.159l-.012,0-.021,0c-4.351.489-8.849.994-13.274,1.3-7.59.557-15.319.948-22.795,1.326h-.011c-15.416.779-31.358,1.585-46.781,3.879a174.784,174.784,0,0,0-25.04,5.9c-8.964,2.748-17.788,6.035-24.474,8.591a253.124,253.124,0,0,1-29.111,9.578,120.114,120.114,0,0,1-29.593,4,92.85,92.85,0,0,1-15.181-1.234,91.217,91.217,0,0,1-15.485-4.012,181.328,181.328,0,0,1-16.026,20.923,90.957,90.957,0,0,1-20.141,16.662c-7.325,4.372-12.9,9.393-16.581,14.924a29.6,29.6,0,0,0-4.153,24.366c.393,1.487-.032,3.61-1.2,5.978a17.723,17.723,0,0,1-4.1,5.481c-7,5.839-14.466,11.289-21.686,16.56l-.011.008-.158.116c-3.369,2.46-6.853,5-10.238,7.551-1.153.864-2.376,1.7-3.559,2.5l-.019.013c-3.079,2.1-6.262,4.269-8.446,7.139a327.1,327.1,0,0,0-20.942,31.439c-6.433,10.822-12.546,22.075-18.459,32.957L2305.245,849c-.288.53-.583,1.068-.869,1.589l-.112.2-.011.019a65.685,65.685,0,0,0-4.6,9.5c-1.231,3.508-1.432,6.369-.633,9.005,1.135,3.745,4.348,6.949,9.823,9.8,1.709.854,2.378,3.754,3.026,6.559a34.881,34.881,0,0,0,.952,3.57,46.371,46.371,0,0,1,2.611,14.323,55.23,55.23,0,0,1-1.522,13.826c-2.11,9.144-6.1,18.152-10.316,27.691l-.134.3q-.479,1.083-.96,2.174c4.447,1.429,7.6,3.342,9.646,5.846a12.593,12.593,0,0,1,2.458,4.938,18.694,18.694,0,0,1,.3,6.732c-.22,1.666.668,4.016,2.436,6.449a16.479,16.479,0,0,0,5.706,5.1c1.3.589,2.639,1.2,3.9,1.762l.008,0c8.638,3.889,17.57,7.911,25.251,13.3a59.47,59.47,0,0,1,10.6,9.344,51.73,51.73,0,0,1,8.242,12.612c1.65,3.551,6.534,5.872,10.843,7.921l.055.026c.623.3,1.21.576,1.786.857,12.109,5.925,26.448,12.842,41,19.219,8.844,3.89,16.349,5.7,23.618,5.7a45.431,45.431,0,0,0,19.741-4.66c6.869-3.226,20.381-8.639,33.694-8.639a41.394,41.394,0,0,1,7.68.683,50.184,50.184,0,0,0,9.134.846,58.651,58.651,0,0,0,14.81-2.039c4.724-1.223,9.406-2.894,13.932-4.51l.028-.011.031-.011c3.205-1.144,6.519-2.328,9.873-3.363a368.158,368.158,0,0,1,50.366-11.836,36.293,36.293,0,0,1,5.509-.431,26,26,0,0,1,12.381,2.844,17.664,17.664,0,0,1,8.335,9.706c1.343,3.748,3.072,6.338,5.285,7.916a11.635,11.635,0,0,0,7.08,1.984,46.129,46.129,0,0,0,7.327-.81c1.926-.336,3.847-.725,5.7-1.1l.02,0a101.442,101.442,0,0,1,11.979-1.926c1.512-.128,2.971-.193,4.333-.193a28.657,28.657,0,0,1,9.323,1.352,14.557,14.557,0,0,1,6.316,4.106,15.406,15.406,0,0,1,3.391,7.4,33.569,33.569,0,0,1,.021,10.628c-1.249,9.636-3.318,19.1-5.714,30.065l-.006.029c-1.24,5.672-2.522,11.538-3.841,18.095,2.061,2.182,4.476,4.779,7.031,7.529l.24.257c5.567,5.991,11.877,12.781,18.481,19.575a118.1,118.1,0,0,1,13.075,15.574,87.533,87.533,0,0,1,9.741,18.415,116.117,116.117,0,0,1,4.852,18.061c1.43,6.776,2.781,13.176,5.464,19.241,3.109,7.027,4.159,12.856,3.3,18.341-.828,5.311-3.5,10.554-8.413,16.5a96.557,96.557,0,0,0-7.221,9.993,73.357,73.357,0,0,0-5.22,9.921,59.93,59.93,0,0,0-3.273,9.9,54.425,54.425,0,0,0-1.375,9.933c-.577,12.96,3.494,26.4,12.448,41.1.77,1.258,1.557,2.539,2.294,3.734l.039.063c3.527,5.732,7.174,11.659,10.361,17.684H2135.217c1.642-3.069,3.3-6.2,4.894-9.231l.207-.392.151-.285c1.774-3.361,3.609-6.836,5.436-10.245.572-1.055,1.155-2.1,1.8-3.257l0-.005a87.506,87.506,0,0,0,5.3-10.561,35.894,35.894,0,0,0,2.107-17.611,36.574,36.574,0,0,0-5.705-15.843c-4.042-5.97-9.464-9.257-15.268-9.257-.206,0-.421,0-.637.012-2.037.09-4.074.136-6.056.136a113.056,113.056,0,0,1-21.566-1.979,105.634,105.634,0,0,1-20.85-6.3,37.01,37.01,0,0,0-14.068-2.692,35.19,35.19,0,0,0-6.1.514c-17.643,2.988-34.775,6.492-52.913,10.2l-.624.127c-5.612,1.148-11.415,2.334-17.183,3.492a19.8,19.8,0,0,1-1.251-2c-1.263-2.173-2.832-4.873-4.619-5.009h-.011c-8.247-.577-16.774-1.174-25.253-1.174a135.248,135.248,0,0,0-15.349.8c-2.521.269-5.631,1.8-8.532,4.211-2.851,2.366-5.006,5.214-5.763,7.62a21.4,21.4,0,0,1-4.252,7.949,16,16,0,0,1-5.916,4.211c-4.358,1.837-9.409,2.012-14.294,2.181h-.05c-1.637.057-3.329.116-4.932.241-.348.023-.7.036-1.044.036a10.812,10.812,0,0,1-8.758-3.865c-2.209-2.8-2.83-6.822-1.751-11.319,1.183-4.862,2.616-9.555,3.766-13.326.454-1.484.924-3.019,1.253-4.189-9.825-10-17.924-18.27-26.5-27.025l-.034-.034-1.966-2.007c-1.223-.278-2.465-.566-3.781-.87l-.044-.01-.022-.006c-5.222-1.209-11.141-2.579-16.98-3.564-.546-.092-1.112-.193-1.659-.289l-.167-.029a55.241,55.241,0,0,0-9.437-1.121,19.177,19.177,0,0,0-4.074.4c-8.744,1.965-17.586,4.276-26.137,6.509l-.1.026c-7.878,2.059-16.024,4.189-24.131,6.057a35.391,35.391,0,0,1-7.624.831,31.8,31.8,0,0,1-6.953-.737c-4.821-1.055-9.66-2.412-14.339-3.723l-.02-.006a167.629,167.629,0,0,0-21.806-5.074,22.209,22.209,0,0,0-3.212-.22,56.964,56.964,0,0,0-9.577,1.119l-.012,0-.066.011h-.005a57.5,57.5,0,0,1-9.723,1.134c-.594,0-1.178-.02-1.736-.059-4.09-.231-8.109-1.75-12-3.218l-.008,0a66.713,66.713,0,0,0-7.689-2.556,37.461,37.461,0,0,0-6.289-.7c-3.059-.167-6.221-.341-8.859-1.576a18.173,18.173,0,0,0-7.866-2.032,13.98,13.98,0,0,0-7.158,2.059,34.484,34.484,0,0,0-6.751,5.464,62.557,62.557,0,0,1-20.071,12.972,191.129,191.129,0,0,1-22.411,7.028h-.007c-3.117.839-6.339,1.707-9.486,2.626-1.093.317-2.257.789-3.384,1.246a17.1,17.1,0,0,1-5.769,1.643,4.145,4.145,0,0,1-1.451-.239,31.538,31.538,0,0,0-11.3-2.225,26.365,26.365,0,0,0-7.816,1.18,34.035,34.035,0,0,0-7.042,3.118,95.577,95.577,0,0,0-12.855,9.517l-.016.013c-2.236,1.854-4.549,3.772-6.894,5.534,1.031,2,2.056,4,2.936,5.716l.136.266c2.161,4.211,4.2,8.189,6.4,12.386a24.348,24.348,0,0,1-4.984,3.6,9.714,9.714,0,0,1-4.4,1.268,4.717,4.717,0,0,1-3.777-1.739,10.459,10.459,0,0,1-1.984-5.5c-.568-4.862-1.269-8.512-3.005-11.682-1.977-3.6-5.143-6.211-9.966-8.2-2.424,2.631-4.836,5.432-7.167,8.14l-.012.014c-5.205,6.044-10.588,12.295-16.773,17.5a23.613,23.613,0,0,1-5.589,3.148,22.692,22.692,0,0,0-5.787,3.32,11.544,11.544,0,0,0-3.675,6.691c-1.775,8.74-4.516,17.181-7.416,26.119l0,.011c-1.181,3.633-2.519,7.751-3.753,11.833a95.41,95.41,0,0,0-16.633-1.583,66.954,66.954,0,0,0-12.076,1.055,55.458,55.458,0,0,0-11.132,3.262h-63.391a67.005,67.005,0,0,1-6.131-14.487c-1.623-5.34-2.816-10.983-3.771-15.8-1.17-5.779-2.461-9.448-4.185-11.894a8.437,8.437,0,0,0-7.444-3.812,27.737,27.737,0,0,0-9.388,2.171c-7.364,2.769-14.386,7.066-21.177,11.221l-.027.017c-2.015,1.232-4.1,2.507-6.157,3.721-6.156,3.608-12.176,7.383-18.549,11.381-3.106,1.948-6.623,4.155-10.138,6.323a128.9,128.9,0,0,1-2.572-22.791c-.229-7.472.02-14.977.261-22.236v-.007c.341-10.286.693-20.923-.243-32.029-2.781,1.691-5.389,3.16-7.912,4.581-5.4,3.038-10.054,5.66-14.052,9.145-.656.566-1.327,1.14-1.975,1.7l-.148.126c-5.757,4.927-11.709,10.02-15.713,16.183a31.166,31.166,0,0,0-4.4,10.269,34.393,34.393,0,0,0-.3,12.913c.394,2.557-.6,5.688-3.053,9.568a90.2,90.2,0,0,1-7.422,9.625l-.208.246-.771.913a71.89,71.89,0,0,1-10.384,9.387c-1.458,1.157-2.966,2.352-4.411,3.573h-77.311c-5.627-6.389-9.193-14.5-10.9-24.793-1.526-9.286-4-18.236-6.868-28.6l-.005-.017-.035-.128c-1.385-5.007-2.817-10.185-4.263-15.845,1.415-1.949,3.211-4.109,5.112-6.4l.005-.006c4.851-5.838,10.887-13.1,14.289-21.339a52.643,52.643,0,0,1,7.963-13.517,56.821,56.821,0,0,1,10.474-9.881c7.637-5.649,16.578-9.766,25.223-13.747l.009,0c4.089-1.884,8.318-3.831,12.379-5.925a132.572,132.572,0,0,0,13.183-7.36c4.862-3.223,7.243-5.843,7.079-7.789a20.658,20.658,0,0,1,.588-7.709,14.311,14.311,0,0,1,2.884-5.359c2.515-2.961,6.074-4.891,9.516-6.757l.008,0a53.719,53.719,0,0,0,5.938-3.554,128.571,128.571,0,0,1,20.448-11.974c7.117-3.416,14.631-6.466,21.9-9.416q1.406-.57,2.814-1.144c.836-.339,1.7-.693,2.4-.977l.005,0c7.55-3.092,14.071-5.763,21.482-5.763a30.915,30.915,0,0,1,7.645.968,56.179,56.179,0,0,0,8.677,11.917,47.129,47.129,0,0,0,10.814,8.366,52.256,52.256,0,0,0,12.928,5.064,72.682,72.682,0,0,0,15.013,2.012c2.262-6.836,2.9-12.627,1.941-17.7-1.014-5.379-3.816-10.055-8.568-14.294-2.047-1.826-4.042-3.811-5.971-5.73l-.009-.009c-3.869-3.849-7.869-7.828-12.483-10.735a23.889,23.889,0,0,1-6.084-5.339,17.508,17.508,0,0,1-3.121-6.128c-1.109-3.971-.916-8.581.593-14.094a46.081,46.081,0,0,1,4.511-9.718,70.384,70.384,0,0,0,3.346-6.471c4.531-10.442,11.482-19.831,18.2-28.911,5.419-7.319,11.022-14.887,15.333-22.972a74.378,74.378,0,0,0,5.412-12.68,60.237,60.237,0,0,0,2.707-14.112c.124-1.114,1.195-2.164,2.677-3.619.77-.756,1.643-1.613,2.527-2.627-12.576-5.423-20.284-8.715-26.6-11.362l.251-.773c.806-2.474,1.556-4.773,2.276-6.977,1.541-4.724,2.829-8.673,4.195-12.891,2.3,1.382,3.849,3.964,5.344,6.461a25.6,25.6,0,0,0,3.563,5.016,7.209,7.209,0,0,0,5.269,2.269,12.341,12.341,0,0,0,4.663-1.057c2.253-2.483,3.147-4.9,2.734-7.383-.366-2.2-1.676-4.182-2.943-6.1-1.67-2.527-3.247-4.914-2.534-7.536.421-.372.853-.748,1.311-1.146l.247-.215c4.709-4.094,10.568-9.187,9.8-12.841a25.586,25.586,0,0,1-.211-10.992,20.877,20.877,0,0,1,3.855-8.254c3.6-4.777,8.932-8.286,14.086-11.679l.319-.21c.573-.377,1.165-.768,1.738-1.149,5.484-3.624,10.284-6.974,13.491-11.289,3.536-4.757,4.754-10.194,3.834-17.11a17.37,17.37,0,0,1,1.255-8.451,26.321,26.321,0,0,1,4.52-7.739,99.517,99.517,0,0,0,8.3-11.792l.006-.009c2.875-4.534,5.849-9.222,9.517-13.15a34.852,34.852,0,0,1,6.155-5.291,30.451,30.451,0,0,1,7.826-3.746,8.083,8.083,0,0,0,3.422-2.6,13.813,13.813,0,0,0,2.356-4.023,23.8,23.8,0,0,1,3-5.853,26.462,26.462,0,0,1,4.073-4.53,64.778,64.778,0,0,1,9.92-6.854l.012-.008a80.031,80.031,0,0,0,8.169-5.392,27.155,27.155,0,0,0,6.633-7.28c1.59,1.39,3.228,2.719,4.543,3.786-4.869,7.352-9.679,14.709-14.294,21.869,3.407,3.777,7.057,5.858,10.276,5.858s5.679-2.08,6.954-5.858a37.043,37.043,0,0,1,4.584-9.434,39.967,39.967,0,0,1,6.357-7.244c4.712-4.271,10.114-7.509,15.833-10.936l.081-.049c1.877-1.125,3.818-2.289,5.711-3.482,3.885-2.486,7.23-6.018,10.464-9.432,1.57-1.658,3.193-3.371,4.875-4.961a19.84,19.84,0,0,0-6.689-1.236,26.812,26.812,0,0,0-7.44,1.313l-.073.02c-3.213.917-6.484,1.912-9.647,2.873-6.639,2.019-13.5,4.106-20.363,5.645a15.247,15.247,0,0,1-3.251.371,12.5,12.5,0,0,1-8.136-3.073,41.751,41.751,0,0,1-6.083-6.756l0-.006c-.662-.849-1.344-1.725-2.03-2.561a12.318,12.318,0,0,1-2.515-4.739,7.384,7.384,0,0,1,.149-4.051c.8-2.535,2.8-4.778,4.911-7.153q.541-.608,1.053-1.191c1.129-1.254,1.709-3.025,2.589-5.706.453-1.378.964-2.94,1.672-4.8a81.648,81.648,0,0,0-19.709,5.5,90.883,90.883,0,0,0-16.573,9.168c-10.234,7.062-19.182,15.861-27.836,24.369-6.483,6.375-13.186,12.967-20.332,18.716a83.306,83.306,0,0,1,13.447-22.059,63.035,63.035,0,0,1,7.908-7.249,77.587,77.587,0,0,0,6.411-5.648,19.791,19.791,0,0,0,4.425-6.418,46.544,46.544,0,0,1,6.73-12.013,50.429,50.429,0,0,1,9.055-8.969c6.747-5.246,14.655-9.068,22.177-12.532a389.8,389.8,0,0,1,52.733-19.977c15.014-4.4,24.8-11.673,29.919-22.247,4.535-9.383,11.8-14.148,19.481-19.193l.037-.024c1.578-1.036,3.21-2.107,4.813-3.22a80.343,80.343,0,0,0,20.165-20.734,14.673,14.673,0,0,0,2.528-5.663,8.581,8.581,0,0,0-.473-4.958c-1.472-3.5-5.363-5.953-10.955-6.893a82.815,82.815,0,0,0-10.269-.771c-5.6-.189-11.387-.386-16.334-2.448a48.869,48.869,0,0,0-19.335-3.916,68.79,68.79,0,0,0-16.851,2.318c-5.6,1.411-11.158,3.307-16.832,5.288-1.549-.844-3.1-1.866-4.749-2.948l-.008-.005c-3.911-2.568-7.954-5.223-12.284-5.757-7.355-.972-8.193-5.539-9-9.956v-.008c-.459-2.508-.894-4.877-2.449-6.6a20.8,20.8,0,0,0-4.914-3.836,12.022,12.022,0,0,0-5.5-1.842,3.807,3.807,0,0,0-1.234.187,21.642,21.642,0,0,1-7.048,1.251,19.291,19.291,0,0,1-9.794-2.768,60.329,60.329,0,0,1-8.4-6.154c-1.232-1.014-2.629-2.162-4.014-3.217-3.013-2.322-6.588-4.008-10.726-5.96l-.015-.007c-2.084-.984-4.447-2.1-6.962-3.4-.443,3.886-.958,8.02-1.712,11.919a56.645,56.645,0,0,1-3.035,10.659,34.607,34.607,0,0,1-5.464,9.239,35.7,35.7,0,0,1-9.006,7.661c-8.138,5-14.9,11.95-22.724,20-3.714,3.821-7.55,7.769-11.833,11.807l.218-1.558.051-.366c1.048-7.507,1.574-11.275,2.1-15.213-7.736-1.184-14.758-2.312-21.549-3.4l-.1-.016-1.227-.2c-1.981-.318-3.887-.624-5.809-.93.539-7.371,1.016-13.211,1.478-18.858l.009-.117c.1-1.282.209-2.557.314-3.841-1.7-.1-3.121-.3-4.374-.472h-.011a23.08,23.08,0,0,0-2.922-.294,3.428,3.428,0,0,0-1.783.389,57.057,57.057,0,0,1-29.784,7.812,99.31,99.31,0,0,1-20.2-2.321,30.823,30.823,0,0,0-6.174-.649,26.663,26.663,0,0,0-11.8,2.723,39.58,39.58,0,0,0-10.622,7.773,55.213,55.213,0,0,1-9.315,7.586c-3.881,2.467-7.351,3.771-10.033,3.771a7.227,7.227,0,0,1-1.669-.186,29.814,29.814,0,0,0-6.812-.843,23.462,23.462,0,0,0-12.525,3.611,69.539,69.539,0,0,0-10.369,8.246l-.051.046c-1.779,1.6-3.618,3.258-5.556,4.845,1.124,1.687,2.392,3.235,3.618,4.731l.014.018c3.756,4.584,7.3,8.915,6.308,16.459-.457,3.651,4.154,8.012,8.613,12.23l0,0a73.425,73.425,0,0,1,5.586,5.658c-3.274,10.205-6.214,19.3-9.186,28.5l6.736,1.172,1.14.2c9.131,1.587,17.755,3.086,25.641,4.5a51.58,51.58,0,0,1,2.6,13.261,35.331,35.331,0,0,1-1.283,11.591c-2.021,6.989-6.352,13.353-13.242,19.456a106.423,106.423,0,0,0-12.014,13.246c-1.328,1.649-2.7,3.354-3.987,4.835,9,10.274,16.954,19.381,27.456,31.433-2.046,4.839-4.062,9.619-6.2,14.68l-.2.476-1.647,3.9c-1.356,3.213-2.761,6.544-4.262,10.1-4.422-.445-8.957-.537-13.342-.626h-.019a139.123,139.123,0,0,1-14.154-.758,36.454,36.454,0,0,1-12.532-3.537A33.591,33.591,0,0,1,1186,807.238a37.64,37.64,0,0,1-3.694-10.419,44.576,44.576,0,0,1-.647-12.291c-2.194.969-4.211,1.816-5.991,2.564l-.078.032-.013.006a78.239,78.239,0,0,0-10.486,4.973c-3.354,2.071-6.617,4.52-9.773,6.889l-.006,0-.017.014c-2.947,2.211-5.994,4.5-9.074,6.441a41.109,41.109,0,0,1-9.629,4.642c-12.091,3.77-24.843,5.926-37.176,8.011l-.015,0c-5.634.953-11.459,1.937-17.153,3.064-2.9.564-5.912,1.013-8.824,1.447-7.412,1.1-15.076,2.246-21.66,5.368-10.331,4.8-19.932,10.914-29.218,16.827-3.926,2.5-7.635,4.864-11.4,7.126-4-3.191-7.914-6.267-11.7-9.242l-.083-.066-.552-.434c-2.617-2.058-5.089-4-7.454-5.879l-.208.1-.019.01c-3.209,1.6-4.537,2.265-5.924,2.818-2.456,1-4.736,3.206-6.941,5.338a39.809,39.809,0,0,1-4.394,3.861,8.07,8.07,0,0,1-4.606,1.742,7.168,7.168,0,0,1-4.792-2.136c-4.671-4.174-6.491-11.65-8.251-18.88-.584-2.4-1.188-4.881-1.882-7.153-.755-2.653.4-6.116,1.326-8.9,1.31-3.907,2.6-8.023,3.735-11.654l0-.009c3.384-10.806,6.884-21.981,11.979-32.171,3.425-6.852,8.693-12.673,14.271-18.836,2.552-2.821,5.193-5.739,7.692-8.81a14.616,14.616,0,0,0-5.643-1.139,18.958,18.958,0,0,0-7.353,1.662,65.977,65.977,0,0,0-7.049,3.669l-.1.054c-4.631,2.651-9.416,5.389-14.708,5.389-4.119,0-8.111-1.665-12.2-5.089,4.462-1.817,8.722-3.522,12.842-5.171l.117-.047.024-.01c8.421-3.371,16.374-6.554,24.129-9.921.841-.371,1.726-.731,2.664-1.112l.06-.024c4.194-1.706,8.945-3.64,10.339-6.818a38.255,38.255,0,0,1,8.885-12.279,105.079,105.079,0,0,1,11.576-9.107l.01-.008c2.1-1.5,4.266-3.043,6.321-4.639,8.814-6.876,12.3-14.436,11.646-25.279-9.025,3.586-17.973,7.158-25.868,10.309-11.985,4.784-23.3,9.3-35.006,13.928a48.015,48.015,0,0,1,8.952-12.9,50.072,50.072,0,0,1,11.307-8.6c8.141-4.62,17.388-7.345,26.33-9.98l.021-.006c3.591-1.058,7.3-2.152,10.855-3.347.254-10.042,2.249-18.05,5.929-23.8a22.507,22.507,0,0,1,7.556-7.394,25.448,25.448,0,0,1,11.223-3.268,31.926,31.926,0,0,0,9.409-1.889A13.067,13.067,0,0,0,1071.11,621c2.139-2.661,2.843-6.244,2.147-10.958,3.379-1.471,6.566-2.633,9.648-3.758l.057-.021c6.134-2.235,11.431-4.166,15.479-7.581,4.679-4.028,8.219-9.518,11.968-15.329,1.714-2.659,3.487-5.41,5.453-8.148l-5.211-1.134-1.072-.233-.169-.037c-6.156-1.339-11.019-2.4-16.46-3.616,1.663-3.086,3.154-5.866,4.421-8.229l.284-.529c1.791-3.336,3.337-6.217,4.666-8.662a19.051,19.051,0,0,0-5.149-6.8,9.113,9.113,0,0,0-5.621-1.954c-2.684,0-5.7,1.129-9.205,3.453-11.064,7.378-21.888,15.084-31.439,21.884l-.011.008c-3.526,2.511-7.523,5.358-11.059,7.839-1.423,11.445-2.694,21.448-3.924,31.121l-.126.989-.1.822c-.839,6.6-1.632,12.832-2.472,19.514-3.342-1.186-6.242-2.188-8.8-3.073l-.008,0-.087-.031c-4.228-1.462-7.567-2.617-10.891-3.9a111.609,111.609,0,0,0-10.841-3.754,31.549,31.549,0,0,0-8.257-1.322,14.771,14.771,0,0,0-11.078,4.771c-3.01,2.986-6.034,7.491-10.44,15.548a10.342,10.342,0,0,1-3.321,3.032l-.014.01c-.664.464-1.351.943-2.058,1.5-2.795-3.11-5.507-6.059-7.9-8.661l-.491-.534c-1.19-1.3-2.421-2.634-3.634-3.965-13.474,6.79-23.834,12.014-34.463,17.421q-3.163-2.711-6.149-5.267l-1.029-.881c-7.469-6.395-14.525-12.435-21.7-18.657-5.355,4.035-10.392,7.817-15.263,11.474l-.467.35,0,0q-11.116,8.345-21,15.816c3.151,8.154,5.643,14.666,8.333,21.775,4.491-.769,9.106-2.746,13.568-4.656l.009,0c5.9-2.524,11.993-5.134,18.06-5.134a19.15,19.15,0,0,1,9.614,2.52,31.56,31.56,0,0,1,9.681,9.074c-1.953,2.328-4.135,4.641-6.244,6.878l-.008.008c-4.929,5.229-10.025,10.637-13.061,16.972-2.971,6.076-3.839,13.289-4.678,20.266-.365,3.033-.742,6.168-1.287,9.175-.568-.142-1.157-.261-1.676-.366a19.845,19.845,0,0,1-2.679-.671c-1.891-.721-3.8-1.619-5.656-2.488l-.013-.006c-3.992-1.874-8.121-3.811-12.319-4.134-.379-.029-.746-.043-1.092-.043a5.448,5.448,0,0,0-4.1,1.324c-1.4,1.444-1.316,3.925-1.237,6.324v.009c.065,1.949.132,3.965-.579,5.449-.912,1.828-2.761,3.283-4.735,4.736-18.059,13.508-36.151,25.991-53.774,37.1-18.907,11.92-38.051,22.754-56.9,32.2-4.1,1.987-7.454,2.953-10.269,2.953-.2,0-.411-.006-.615-.016-.554-.023-1.115-.034-1.666-.034a35.023,35.023,0,0,0-19.634,5.834c-4.926,3.2-9.619,7.733-14.771,14.269-.407.542-.133,1.624.086,2.494a7.937,7.937,0,0,1,.2.914c4.065-1.218,8.1-2.5,11.654-3.628l.113-.036.53-.168,1.052-.334c.622,11.652,1.283,22.932,2.082,35.5-.307.009-.629.012-.958.012-2.073,0-4.229-.169-6.315-.334l-.026,0H706c-2.1-.167-4.268-.338-6.366-.338a20.457,20.457,0,0,0-8.894,1.671,16.876,16.876,0,0,0-7.441,7.229c-.623,1.092-2.826,1.157-5.159,1.227a16.263,16.263,0,0,0-5.54.762c-1.119.444-2.272.865-3.492,1.311l-.013.005c-5.268,1.923-10.716,3.912-13.251,7.679a79.913,79.913,0,0,1-8.661,10.748,103.646,103.646,0,0,1-9.935,9.084A260.653,260.653,0,0,1,615.2,918.067c-2.533,1.646-5.151,3.346-7.729,5.065a78.145,78.145,0,0,1-12.1,6.919,30.291,30.291,0,0,1-12.2,2.833,25.838,25.838,0,0,1-14.044-4.357c-2.006,1.872-3.777,3.651-5.491,5.372l-.013.013a75.7,75.7,0,0,1-8.983,8.153c-5.191,3.711-10.412,7.606-15.462,11.372l-.067.049-.011.008c-7.318,5.459-14.885,11.1-22.507,16.3A214.479,214.479,0,0,1,493,984.006c-5.972,3.037-10.916,5.6-15.644,8.614a64.281,64.281,0,0,0-13.514,11.172c-3.462,3.849-6.987,7.742-10.4,11.508l-.208.229c-9.832,10.856-20,22.082-29.726,33.421-9.3,10.874-18.774,21.882-27.933,32.527-29.042,33.756-59.073,68.661-87.662,103.8-20.473,25.211-40.5,50.77-59.516,75.967-19.535,25.882-38.584,52.143-56.621,78.054H148.819c23.734-31.174,48.193-62.318,72.695-92.568s49.705-60.422,74.936-89.706,51.178-58.482,77.126-86.787,52.625-56.515,79.263-83.813,54-54.474,81.348-80.783,55.4-52.451,83.381-77.7c28.013-25.276,56.733-50.359,85.362-74.555,28.668-24.229,58.036-48.237,87.289-71.358,68.143-53.86,138.817-105.409,210.057-153.216,71.66-48.089,145.778-93.653,220.3-135.424,75.051-42.068,152.44-81.371,230.016-116.82,78.221-35.742,158.7-68.511,239.206-97.4,81.239-29.151,164.637-55.115,247.877-77.172,84.083-22.28,170.221-41.164,256.019-56.127,86.715-15.126,175.417-26.657,263.641-34.272C2546.53,3.907,2637.618,0,2728.069,0s181.593,3.9,270.887,11.606c88.321,7.616,177.168,19.147,264.073,34.272,86.005,14.969,172.372,33.853,256.7,56.127,83.518,22.061,167.22,48.026,248.783,77.172,80.84,28.888,161.692,61.658,240.311,97.4,77.98,35.453,155.8,74.757,231.287,116.82,74.97,41.772,149.566,87.336,221.714,135.424,71.75,47.82,142.938,99.369,211.587,153.216,29.5,23.138,59.116,47.159,88.024,71.4,28.87,24.206,57.835,49.3,86.091,74.58s56.547,51.423,84.107,77.709c27.581,26.306,55.193,53.486,82.072,80.785s53.8,55.508,79.984,83.806c26.21,28.328,52.4,57.522,77.844,86.771,25.472,29.281,50.925,59.454,75.653,89.682,24.743,30.247,49.442,61.381,73.409,92.538ZM1324.106,1201.721c-3.971,6.045-7.906,11.833-11.231,16.7,1.234-.829,2.659-1.6,4.036-2.349,2.8-1.519,5.693-3.088,7.313-5.273a6.48,6.48,0,0,0,1.344-3.83,10.9,10.9,0,0,0-1.462-5.245Zm129.929-30.168c-1.81.083-3.648.164-5.426.243l-.185.009c-10.737.477-21.841.97-32.639,1.824a303.558,303.558,0,0,0-31.879,4.022,176.075,176.075,0,0,0-30.635,8.43,142.793,142.793,0,0,0-14.7,6.559,134.86,134.86,0,0,0-14.209,8.491c.92.074,1.878.206,2.8.334h.012a31.572,31.572,0,0,0,4.206.4,8.1,8.1,0,0,0,3.268-.581,157.058,157.058,0,0,1,17.886-6.419,171.342,171.342,0,0,1,18.267-4.244,214.364,214.364,0,0,1,37.5-3.064c1.837,0,3.92,1.042,5.935,2.05,1.823.911,3.544,1.772,4.919,1.772a2.409,2.409,0,0,0,1.074-.226c8.4-4.1,16.574-9.1,24.479-13.948C1447.75,1175.342,1450.89,1173.418,1454.035,1171.553Zm-130.273,29.538c.113.2.229.41.344.63l.082-.124.145-.222a2.921,2.921,0,0,1-.561-.278l.406.161.067-.047.052-.035.064-.044C1324.2,1201.118,1324.019,1201.105,1323.762,1201.091Zm201.612-56.464a49.533,49.533,0,0,0-21.3,4.262c-7.418,3.188-16.194,8.494-28.735,16.226a32.405,32.405,0,0,0,8.539,7.321,18.923,18.923,0,0,0,9.331,2.539,20.584,20.584,0,0,0,6.528-1.12,31.041,31.041,0,0,0,6.936-3.437c11.109-7.284,22.329-14.41,36.536-23.432l.036-.023,1.676-1.064h.094C1536.5,1145.093,1530.554,1144.627,1525.374,1144.627ZM778.636,733.406l-.1.095a69.278,69.278,0,0,0-13.817,3.333,182.015,182.015,0,0,0-17.423,6.856,192.582,192.582,0,0,0-17.351,8.863A91.557,91.557,0,0,0,716.34,761.9c-13.8,11.987-27.668,24.334-41.079,36.274l-.1.092c-15.968,14.218-32.48,28.918-49.041,43.158-3.834,3.308-6.052,6.514-6.781,9.8-.736,3.311,0,6.887,2.235,10.934-8.2,6.493-17.121,12.206-25.746,17.73l-.012.008c-9.949,6.371-20.237,12.959-29.215,20.655a101.412,101.412,0,0,0-12.5,12.626,81.313,81.313,0,0,0-10.062,15.444c5.131-1.736,9.663-4.439,14.046-7.053,1.741-1.039,3.715-2.218,5.645-3.269,4.513-2.456,8.641-5.991,12.634-9.41l.007-.006.007-.006a83.377,83.377,0,0,1,11.767-8.936,31,31,0,0,1,6.612-2.952,25.209,25.209,0,0,1,7.472-1.12,30.174,30.174,0,0,1,8.269,1.224,1.791,1.791,0,0,0,.429.05c1.825,0,4.491-2.469,6.844-4.649l.058-.054c.622-.575,1.209-1.119,1.76-1.6,3.23-2.9,6.526-5.831,9.714-8.665l.079-.071c9.571-8.508,19.468-17.306,28.833-26.387,6.1-5.858,9.986-11.368,11.549-16.379a38.1,38.1,0,0,1,5.226-10.573,45.07,45.07,0,0,1,7.484-8.172c5.547-4.809,12-8.5,18.245-12.062l.009,0c2.235-1.277,4.346-2.483,6.431-3.744,4.792-2.911,9.774-5.694,14.591-8.387l.043-.024c5.857-3.273,11.914-6.657,17.582-10.246a115.9,115.9,0,0,0,15.918-11.848,69.4,69.4,0,0,0,12.764-15.147,63.813,63.813,0,0,0,4.734-9.343,69.948,69.948,0,0,0,3.385-10.8,15.259,15.259,0,0,1,1.52-3.671l.021-.042C778.02,734.681,778.338,734.063,778.636,733.406Zm771.87-.757c-1.046,3.232-2.1,6.579-3.128,9.815l-.056.175c-1.116,3.527-2.269,7.174-3.632,11.406,6.369-1,10.126-2.779,11.485-5.45,1.651-3.248-.461-7.359-2.5-11.334A46.439,46.439,0,0,1,1550.506,732.649ZM870.563,696.482c-13.53,1.972-23.1,3.316-33.224,4.739l-1.994.28c-4.494,8.179-8.243,15.015-14.107,25.751,5.166-2.944,10.313-5.384,15.289-7.743l.018-.008C848.677,713.748,860.132,708.317,870.563,696.482Zm645.009,16.191-17.894,2.556c.21,1,.423,1.986.629,2.941.2.921.361,1.671.507,2.361,3.164-.778,6.416-1.541,9.562-2.279l.019-.005.082-.019c2.572-.6,5.232-1.228,7.851-1.862-.181-1.185-.453-2.369-.716-3.515Zm87.667-73.088c-1.21,1.7-2.548,3.361-3.841,4.968-3.009,3.742-6.121,7.612-7.711,11.979-4.85,13.138-9.082,26.381-13.562,40.4-1.789,5.6-3.639,11.384-5.559,17.254h.189c6.5-2.621,13.094-5.286,19.474-7.862l3.427-1.384,3.164-1.278c7.842-3.168,15.951-6.444,24.112-9.734.8.474,1.723,1.014,2.7,1.586l.049.029c2.319,1.357,5.494,3.216,9.747,5.771l.539-.795.172-.254c3.476-5.13,7.071-10.434,10.177-15.047,5.357,2.785,9.65,5.043,14.195,7.434l.2.1,5.111,2.687V676.7a43.744,43.744,0,0,1-10.168,1.672,9.335,9.335,0,0,1-4.8-1.082,7.378,7.378,0,0,1-2.971-3.535c-1.358-3.032-1.975-7.719-2.131-16.178-9.569,5.527-16.4,9.467-23.005,13.254-3.723-1.692-7.435-3.357-10.71-4.827l-.283-.127c-2.44-1.095-4.745-2.129-7.092-3.19.535-3.595,1.1-7.25,1.606-10.474.536-3.445,1.089-7.008,1.615-10.542-.963-.4-1.9-.829-2.8-1.247l-.014-.006C1604.464,640.135,1603.845,639.849,1603.239,639.584Zm1452.966,38.479c-3.1,0-6.039,1.451-8.725,4.313,2.47-.254,4.654-.487,7.049-.744,3.237-.346,6.294-.673,9.331-.959A14.217,14.217,0,0,0,3056.205,678.063ZM1127.323,630.085c-.217,0-.442.011-.668.032-14.817,1.526-29.7,4.634-44.1,7.641l-.846.177-1.545.323a154.488,154.488,0,0,0-16.273,4.846l-.021.008c-3,1.005-6.406,2.145-10.309,3.384h.1c2.3,11.152,4.726,22.608,6.815,32.471,9.788.375,16.332.658,24.143,1.042a83.307,83.307,0,0,1,10.316-15.164A73.654,73.654,0,0,1,1108,652.921a76.514,76.514,0,0,1,15.837-8.605,92.591,92.591,0,0,1,18.624-5.206c-.367-.3-.739-.614-1.1-.918l-.29-.242-.007-.006a73.466,73.466,0,0,0-7.033-5.417C1131.457,630.884,1129.262,630.085,1127.323,630.085Zm1613.89-11.14h0l-1.136,4.257c3.516,1.407,6.929,2.768,10.542,4.21l.067.027c7.016,2.8,14.271,5.693,22.053,8.829.5-1.968.974-3.8,1.326-5.175l.121-.471c1.1-4.314,2.06-8.039,3-11.677h-35.975Zm-58.721-41.279a10.658,10.658,0,0,0-5.712,2.369,10.413,10.413,0,0,0-3.921,4.826c-1.166,3.691-.956,7.835-.712,12.634v.016c.116,2.271.236,4.62.236,7.234h.1a53.894,53.894,0,0,0,11.752-4.008,14.475,14.475,0,0,0,6.172-5.262c1.479-2.516,1.686-5.585.631-9.381-.929-3.443-5.349-8.331-8.426-8.427ZM1261.666,514.3a16.8,16.8,0,0,0-11.97,4.871c-2.984,2.809-5.361,6.493-8.013,11.159,2.14,1.775,3.968,3.332,5.9,4.98,1.584,1.348,3.221,2.742,5.079,4.3-2.306,1.547-4.549,2.931-6.718,4.269l-.019.012a83.83,83.83,0,0,0-11.065,7.649,81.741,81.741,0,0,0-9.346,10.263l-.049.06c-1.7,2.074-3.448,4.219-5.469,6.527a47.762,47.762,0,0,0-10.053,2.841,29.448,29.448,0,0,0-7.628,4.545,22.681,22.681,0,0,0-5.2,6.249,25.14,25.14,0,0,0-2.775,7.953,24.851,24.851,0,0,0,5.552.654,21.987,21.987,0,0,0,6.613-1.013,28.049,28.049,0,0,0,5.934-2.681,79.3,79.3,0,0,0,10.866-8.252l.007-.006.392-.334.461-.393c6.859-5.8,15.028-12.4,23.6-17.265,9.376-5.326,17.967-7.914,26.263-7.914a39.439,39.439,0,0,1,14.134,2.647,45.033,45.033,0,0,0,16.2,3.093c6.771,0,12.907-1.544,19.4-3.179,1.9-.477,3.863-.971,5.863-1.429.56-.133,1.129-.276,1.71-.423a30.357,30.357,0,0,1,7.156-1.223,10.071,10.071,0,0,1,2.21.226,38.1,38.1,0,0,0,8.708.984c8.524,0,16.648-2.7,24.5-5.319,4.261-1.419,8.664-2.886,13.084-3.9,1.39-.331,3.583-2.312,6.342-5.731a113.282,113.282,0,0,0,8.036-11.641,116.129,116.129,0,0,0,6.669-12.423c1.776-3.971,2.552-6.763,2.241-8.074-.836-3.761-2.677-8.473-5.111-9.374-1.142-.4-2.311-.837-3.61-1.322-5.341-1.988-11.392-4.24-16.569-4.24a14.273,14.273,0,0,0-4.059.546,38.345,38.345,0,0,1-11.039,1.656,42.283,42.283,0,0,1-15.006-2.956,126.446,126.446,0,0,1-13.879-6.564c-2.221-1.162-4.517-2.364-6.844-3.5a34.025,34.025,0,0,1,7.263-9.1,33.338,33.338,0,0,1,8.741-5.489c6.206-2.724,13.137-3.856,19.842-4.951a103.53,103.53,0,0,0,15.436-3.326,37.781,37.781,0,0,0,7.034-3.062,29.057,29.057,0,0,0,6.252-4.749c6.342,3.787,11.5,6.846,15.339,9.09l1.514-1.929c6.949-8.853,14.136-18.008,21.584-27.609-.949-.217-1.841-.44-2.7-.654a43.9,43.9,0,0,0-6.2-1.24,22.306,22.306,0,0,0-2.492-.135,53.759,53.759,0,0,0-11.594,1.762l-.037.009a53.934,53.934,0,0,1-11.681,1.774c-5.93,0-10.666-2.136-14.906-6.723a1.577,1.577,0,0,0-1.1-.292,14.128,14.128,0,0,0-7.036,2.563,44.624,44.624,0,0,1-16.057,8.751,59.683,59.683,0,0,1-17.312,2.256,207.693,207.693,0,0,1-21.169-1.508h-.013c-3.209-.335-6.528-.682-9.923-.977l4.039-2.762,2.163-1.477c5.236-3.577,9.372-6.4,13.4-9.2-.179-.388-.35-.771-.516-1.141l-.061-.137-.011-.024c-.339-.759-.659-1.476-1.02-2.2-12.959,5.314-25.818,10.678-41.28,17.137.588-2.184,1.118-4.145,1.613-5.972,1.149-4.249,2.142-7.918,3.216-12.016-6.434-2.816-11.609-5.073-18.46-8.048-4.131,6.253-7.965,12.107-11.673,17.769q-4.232,6.461-8.778,13.38c-4.606-1.152-9.387-2.315-14.449-3.546l-.312-.076c-2.429-.59-4.815-1.17-7.294-1.776V412.084l-2.814,4.658-.522.864-.016.027c-3.706,6.138-6.384,10.573-9.337,15.373a52.822,52.822,0,0,1-7.184-.684,53.193,53.193,0,0,0-7.261-.689,13.822,13.822,0,0,0-8.529,2.446c-2.8,2.034-4.942,5.4-6.562,10.286a22.935,22.935,0,0,0-5.824-7.715,9.7,9.7,0,0,0-6.176-2.234,13.517,13.517,0,0,0-4.932,1.037,31.508,31.508,0,0,0-5.126,2.666l-.268.166c-42.827,26.569-87.109,54.042-130.949,80.589-4.186,2.558-7.016,5.394-8.414,8.428a11.975,11.975,0,0,0-.108,9.563c-5.245,3.175-10.271,6.185-14.706,8.841-4.346,2.6-8.841,5.294-12.844,7.726a30.017,30.017,0,0,0-6.874-.839,25,25,0,0,0-7.232,1.05,29.836,29.836,0,0,0-6.359,2.774,79.266,79.266,0,0,0-11.323,8.475,78.337,78.337,0,0,1-12.142,8.988l.191-.094c10.7,5.349,18.131,8.445,24.473,8.445,4.346,0,8.219-1.438,12.561-4.664s9.081-8.2,14.846-14.669c3.682-.864,6.951-1.484,10.113-2.084,6-1.139,11.184-2.123,15.828-4.257,7.632-3.515,15.172-7.574,22.464-11.5,6.461-3.478,13.141-7.074,19.856-10.276,5.542-2.608,9.1-5.318,11.207-8.532,2.549-3.9,3.032-8.66,1.478-14.567,7.082-1.427,13.616-2.739,21.246-4.271l1.68-.337c5.411-1.086,10.523-2.112,15.7-3.156-.126-.784-.248-1.539-.366-2.274l-.133-.821c-.67-4.174-1.3-8.117-2.341-14.419,22.679,1.213,44.1,2.358,65.611,3.219l.209.01.029,0c1.194.057,2.429.117,3.686.117,2.308,0,5.591-.18,7.435-1.74,4.9-4.1,10.442-6.013,17.443-6.013a82.031,82.031,0,0,1,12.309,1.257h.005l.121.018.014,0a81.338,81.338,0,0,0,12.036,1.236q.242,0,.485,0h.106c2.254,0,4.629.9,7.472,2.819a79.407,79.407,0,0,1,7.883,6.49l.006.005a106.386,106.386,0,0,0,8.485,7.065c3.662-1.512,7.035-4.335,10.607-7.324l.006,0h0a66.363,66.363,0,0,1,9.547-7.062,23.283,23.283,0,0,1,11.72-3.312,26.585,26.585,0,0,1,9.969,2.084c-1.484,1.3-2.966,2.446-4.4,3.557l-.006,0c-2.965,2.3-5.766,4.478-7.621,7.229a50.761,50.761,0,0,1-6.6,8.146,37.222,37.222,0,0,1-7.584,5.828,34.166,34.166,0,0,1-8.686,3.5,40.61,40.61,0,0,1-9.9,1.169h-.016a52.458,52.458,0,0,1-5.277-.278A21.367,21.367,0,0,0,1261.666,514.3ZM2683.747,550.59c-1.157.1-2.391.219-3.883.359l-2.271.211c.606,4.666,1.146,9.541,1.623,13.842l.176,1.589c1.436-.1,2.956-.188,4.355-.188ZM1668.374,422.1c2.427,0,5.029,1.123,7.954,3.431-.254,12.029.991,18.688,4.3,22.984,3.292,4.274,8.531,6.211,16.461,9.142,1.633.6,3.484,1.288,5.462,2.051,1.427.556,2.948,1.036,4.417,1.5l.041.012a52.963,52.963,0,0,1,6.05,2.181,25.2,25.2,0,0,0,10.435,2.688c4.4,0,8.384-1.777,12.193-5.434,3.6-3.472,7.145-5.233,10.523-5.233a11.558,11.558,0,0,1,7.457,3.012,28.749,28.749,0,0,1,6.068,7.617c7.456-2.318,13.079-4.769,17.189-7.5,4.277-2.837,6.969-6,8.231-9.672,1.318-3.831,1.083-8.237-.718-13.469-1.746-5.081-5-11.008-9.934-18.119q2.528-2.216,5.111-4.476l1.178-1.031c6.145-5.379,13.11-11.474,20.029-17.592-3.147-9.2-4.5-14.629-3.135-18.735a11.121,11.121,0,0,1,4.348-5.483,46.821,46.821,0,0,1,9.486-4.942,38.984,38.984,0,0,0,11.243-7.017,54.615,54.615,0,0,0,8.261-9.645,5.22,5.22,0,0,1,2.545-1.564,18.8,18.8,0,0,0,1.81-.8c.963.815,1.916,1.639,3.021,2.592l.061.052c1.683,1.454,3.591,3.1,6.1,5.212,3.456-2.461,7.4-4.769,11.215-7l.014-.008c8.611-5.038,17.514-10.246,22.286-17.891a81.576,81.576,0,0,1,11.877-14.874,78.234,78.234,0,0,1,13.981-10.888,92.4,92.4,0,0,1,15.772-7.641,132.565,132.565,0,0,1,17.256-5.129c24.334-5.578,45.027-17.9,66.935-30.935l.053-.032c7.821-4.654,15.907-9.467,24.371-14.1-3.667-.256-7.212-.387-10.537-.387a96.578,96.578,0,0,0-22.849,2.5,79.645,79.645,0,0,0-20.2,7.926c-6.241,3.454-10.264,5.552-13.5,5.553-2.251,0-4.206-1-6.539-3.339a107.484,107.484,0,0,1-8.522-10.691l-.314-.422c3.73-2.059,7.545-4.122,10.611-5.78l.079-.043c1.8-.974,3.659-1.981,5.5-2.982-2.2-1.335-4.182-2.583-7.462-4.651l-.069-.044c-1.328-.838-2.909-1.835-4.871-3.068,4.188-.695,8.248-1.533,12.175-2.342,7.862-1.622,15.288-3.154,21.979-3.154a32.541,32.541,0,0,1,8.393.995,23.449,23.449,0,0,1,7.533,3.461c5.944,4.194,11.753,6.147,18.281,6.147,4.981,0,9.807-1.108,14.916-2.282,1.846-.424,3.935-.9,6-1.312a43.023,43.023,0,0,0-4.8-9.627,25.384,25.384,0,0,0-15.03-10.633,42.3,42.3,0,0,0-10.955-1.278c-6.533,0-14.424,1.069-24.124,3.269-4.648-4.169-10.19-9.107-16.473-14.677,1.905-1.556,3.631-3.21,5.3-4.809,3.3-3.159,6.412-6.142,10.131-7.592a59.406,59.406,0,0,0,9.449-5.258l.008-.005c5.03-3.192,10.231-6.494,14.882-6.494a8.991,8.991,0,0,1,6.905,3.236c3.782,4.166,6.782,6.024,9.73,6.024a13.44,13.44,0,0,0,5.287-1.486l.005,0c.736-.318,1.5-.646,2.3-.937-1.148-1.676-2.628-3.418-4.058-5.1-2.931-3.452-5.7-6.714-4.935-8.627,1.338-3.474,5.077-6.081,8.692-8.6l.005,0,.007-.006c1.489-1.038,3.028-2.111,4.36-3.222-1.646-.808-3.838-1.661-5.958-2.487l-.014-.006c-4.65-1.81-9.459-3.682-9.459-5.364.1-3.112.916-5.231,2.5-6.477,1.264-1,2.964-1.444,5.512-1.444,1.205,0,2.463.1,3.68.191l.093.007c1.191.091,2.421.183,3.568.183a14.624,14.624,0,0,0,2.07-.129c4.024-.619,8.074-.871,12.762-1.162h.037c2.475-.154,5.035-.313,7.839-.541a14.665,14.665,0,0,0-6.27-6.334,16.506,16.506,0,0,0-7.51-1.5c-2.007,0-4.082.205-6.088.4h-.006l-.022,0c-1.994.2-4.057.4-6.024.4a14.961,14.961,0,0,1-8.008-1.888c-2.633-1.588-4.665-4.246-6.213-8.126l1.19-.24.245-.049c14.033-2.825,27.287-5.493,42.211-8.514a20.3,20.3,0,0,0-8.847-1.942,48.168,48.168,0,0,0-11.236,1.8l-.018,0a48.2,48.2,0,0,1-11.191,1.792,20.465,20.465,0,0,1-5.573-.737,20.757,20.757,0,0,1-5.737-2.622,66.287,66.287,0,0,1,11.591-6.792,83.2,83.2,0,0,1,12.194-4.446c8.3-2.356,16.7-3.645,25.6-5.01,16.6-2.546,33.759-5.177,49.834-15.275-33.2,6.7-66.625,13.994-99.338,21.675-32.736,7.687-65.677,15.979-97.909,24.646-32.269,8.676-64.759,17.978-96.568,27.647s-63.88,19.991-95.317,30.681c-31.407,10.679-63.084,22.034-94.154,33.747-31.048,11.707-62.365,24.1-93.081,36.847-30.7,12.736-61.683,26.186-92.1,39.977s-61.083,28.3-91.2,43.141c3.984,0,7.674.233,11.242.458h.018c3.124.2,6.074.384,8.871.384A32.512,32.512,0,0,0,1388.9,337.2c8.248-2.672,16.211-6.7,23.911-10.592l.037-.019c4.859-2.457,9.884-5,14.96-7.19,5.178-2.222,10.411-4.6,15.471-6.893l.014-.006c14.544-6.6,29.584-13.427,45.108-17.432a103.455,103.455,0,0,1,26.005-3.549,81.682,81.682,0,0,1,13.737,1.144,76.22,76.22,0,0,1,13.391,3.568,79.011,79.011,0,0,1,12.994,6.194,90.6,90.6,0,0,1,12.546,9.023c6.144,5.257,10.209,10.432,12.792,16.284,2.671,6.047,3.871,13.027,3.776,21.964,3.589-2.8,6.9-5.356,10.1-7.833l.887-.686c4.236-3.278,8.617-6.668,13.158-10.225,3.811,1.395,8.266,1.6,12.983,1.819,4.828.223,9.816.452,14.49,1.99a22.739,22.739,0,0,1,6.692,3.446,24.17,24.17,0,0,1,5.789,6.376c-12.282,2.656-24.606,5.427-36.524,8.106l-5.226,1.174c.237.95.454,1.893.646,2.726.213.925.434,1.882.679,2.858,5.735-1.127,11.4-2.228,17.387-3.394l1.524-.3c10.224-1.989,20.8-4.045,33.347-6.532-3.749,8.849-6.845,16.057-9.84,23.029l-.361.842c-1.5,3.5-2.925,6.811-4.378,10.212l8.228-.383,3.409-.158,2.659-.124c-2.784,3.649-6.01,5.562-9.13,7.413l-.012.008c-1.343.8-2.611,1.551-3.828,2.427-.961.641-.924,2.758-.888,4.805v.009c.013.779.026,1.586-.013,2.307l-.244-.084-.369-.129.472.476.1.282c.016-.154.031-.332.044-.544,1.939.676,3.877,1.371,6.559,2.333l.047.016,1.3.467c-8,7.077-13.722,12.158-21.111,18.746,4.023.265,7.089.439,9.8.592l.024,0c2.154.122,4.014.227,5.9.353.578,1.867,1.137,3.743,1.729,5.729l.012.039.054.181c.665,2.231,1.353,4.537,2.179,7.211a47.322,47.322,0,0,0,5.557-5.681C1660.833,425.739,1664.018,422.1,1668.374,422.1Zm799.851-18.376c-3.321.191-6.755.388-9.421,1.831.5,1.305,1.1,2.55,1.683,3.754,1.249,2.6,2.428,5.047,2.1,7.133-.453,2.531-2.164,4.813-4.146,7.454l-.013.017c-.931,1.243-1.894,2.528-2.845,3.983,3.776,1.016,7.24,1.954,10.191,2.753l.149.041c4.313,1.168,8.387,2.271,12.476,3.361-2.3,2.34-5.479,3.213-8.84,4.138-5.481,1.509-11.147,3.07-12.746,11.482,2.91-.256,5.667-.53,8.334-.8l.069-.007c3.325-.33,6.465-.641,9.678-.9,6.976-.5,13.907-2.188,20.612-3.823h.007c8.051-1.963,16.378-3.994,24.884-3.994a48.227,48.227,0,0,1,9.978,1,8.82,8.82,0,0,0,1.718.156,18.024,18.024,0,0,0,6.966-1.626,12.053,12.053,0,0,0,5.234-3.927c3.989-6.052,6.974-12.857,10.134-20.062l.008-.018.055-.125c1.325-3.021,2.7-6.144,4.193-9.333-3.991-.622-7.7-1.182-10.976-1.676-3.972-.6-7.723-1.166-11.274-1.733a98.343,98.343,0,0,0-12.185-15.772A124.145,124.145,0,0,0,2508.9,373.2a107.121,107.121,0,0,0-16.543-10.465,60.632,60.632,0,0,0-15.753-5.653c3.386-4.495,6.772-8.978,10.846-14.372,2.326-3.079,4.805-6.361,7.521-9.959h-31.9c.671-1.715,1.289-3.335,1.943-5.051l.116-.305c.91-2.391,1.942-5.1,3.24-8.373v-.094a43.218,43.218,0,0,0-14.814,4.386,36.335,36.335,0,0,0-11.314,9.177,47.933,47.933,0,0,0-7.81,13.969,83.033,83.033,0,0,0-4.308,18.762c3.54-.321,6.975-.606,10.613-.908l.2-.017c2.629-.217,5.347-.443,8.122-.684h0c.291,1.482.573,2.9.845,4.272l.2,1.029c.506,2.543,1.03,5.173,1.506,7.668,8.213.092,15.723,1.728,21.147,4.6a19.14,19.14,0,0,1,6.238,4.968,10.381,10.381,0,0,1,2.342,6.238,14.26,14.26,0,0,1-1.017,6.174,7.154,7.154,0,0,1-2.929,3.307c-2.458,1.464-5.713,1.65-9.158,1.847ZM2411.7,377.89a45.13,45.13,0,0,0-9.134.869c-3.87.8-6.684,2.284-8.6,4.531-1.865,2.186-2.984,5.225-3.419,9.29-.136,1.357-3.046,2.471-5.861,3.549l-.022.009c-1.134.434-2.205.844-3.112,1.272-3.165,1.443-6.37,2.784-9.763,4.2-1.19.5-2.577,1.079-3.964,1.666,5.886,7.205,8.853,11.748,8.732,16.581s-3.321,9.876-9.584,18.072c1.875.376,3.7.932,5.462,1.471a27.021,27.021,0,0,0,7.383,1.575,7.544,7.544,0,0,0,2.208-.3c13.723-4.3,28.221-9.085,41.371-16.1,1.375-.753,2.453-2.427,3.294-5.119a61.068,61.068,0,0,0,1.662-7.944c.254-1.539.517-3.131.821-4.545,1.119-5.005,1.786-10.191,2.558-16.2l0-.029c.343-2.67.7-5.431,1.13-8.484l-.095.094C2427.435,379.56,2419.56,377.89,2411.7,377.89Zm-766.806,21.795q-.523.414-1.044.83c-8.2,1.621-14.7,4.445-19.875,8.634q1.563,2.416,3.125,4.829c2.954-2.346,5.934-4.754,8.818-7.083l.02-.016.107-.087c2.553-2.062,5.193-4.2,7.805-6.276.526-.1.992-.191,1.426-.266l-.472-.473Zm-37.2-35.032c2.788,5.007,5.624,7.441,8.669,7.441a7.576,7.576,0,0,0,3.568-1,19.359,19.359,0,0,0,3.573-2.564,4.977,4.977,0,0,0,.955-2.277l.005-.018c.131-.51.267-1.037.461-1.585Zm1123.678-10.7c-3.22,1.61-6.4,3.262-10.082,5.176l-.379.2-2.416,1.254c3.155,3.007,5.756,4.532,7.731,4.532a3.322,3.322,0,0,0,2.313-.9,6.383,6.383,0,0,0,1.522-2.436A26.448,26.448,0,0,0,2731.367,353.954ZM2167.9,266.3c5.351,0,9.794.116,13.983.364,1.272.078,2.569.117,3.854.117a65.994,65.994,0,0,0,13.194-1.351,85.542,85.542,0,0,0,12.429-3.558c8.091-2.946,15.961-6.934,23.572-10.79l.011-.006c6.558-3.323,13.339-6.758,20.216-9.5a41.816,41.816,0,0,0,10.935-6.792,101.946,101.946,0,0,0,9.516-9.208,16.262,16.262,0,0,0,4-7.735,13.212,13.212,0,0,0-.65-7.624,10.811,10.811,0,0,0-3.7-4.712,11.635,11.635,0,0,0-6.28-2.082c-1.327-.065-2.693-.1-4.06-.1a120.242,120.242,0,0,0-18.475,1.6c-6.013.936-11.875,2.145-18.365,3.515-8.526,1.736-16.923,4.836-25.044,7.834-2.061.761-4.193,1.547-6.293,2.3-1.634.574-3.314,1.142-4.938,1.691l-.01,0c-7.254,2.451-14.753,4.986-21.086,9-4.234,2.685-7.346,4.239-10.729,4.239-2.907,0-6.08-1.161-10.289-3.764-5.858-3.642-11.465-5.488-16.663-5.488a21.455,21.455,0,0,0-13.365,4.718c-3.946,3.052-7.476,7.579-10.492,13.454,11.4-1.121,23.339-2.259,38.72-3.692-2.648,3.12-3.8,5.651-3.512,7.74.248,1.809,1.52,3,2.643,4.05.974.913,1.816,1.7,1.816,2.7-.066,3.054-1.706,6.046-3.442,9.213-.733,1.337-1.491,2.719-2.142,4.134h.094c4.157,0,8.324-.068,12.354-.134h.052C2159.74,266.37,2163.86,266.3,2167.9,266.3Zm1385.516-71.116h0l.095.092c-.677.633-1.331,1.263-2.054,1.962-.743.719-1.415,1.366-2.109,2.015,3.645,2.707,6.389,4.781,8.9,6.723.779-.91,1.608-1.78,2.409-2.622l.087-.092c.36-.379.733-.771,1.1-1.166-1.4-1.122-2.807-2.288-4.164-3.416l-.031-.026C3556.272,197.516,3554.849,196.333,3553.416,195.187Zm-185.276-19.406c-.222.579-.427,1.189-.624,1.78l-.025.075c-.2.6-.429,1.287-.677,1.931,1.045.409,2.1.842,3.129,1.261l.115.048a73.568,73.568,0,0,0,9.916,3.518.732.732,0,0,0,.177.022c.7,0,1.664-.932,2.994-2.221l0,0c.851-.827,1.815-1.765,2.98-2.718-3.529-.733-6.611-1.359-9.33-1.911l-.2-.041C3373.665,176.924,3370.891,176.36,3368.139,175.781Zm110.16-63.033a23.009,23.009,0,0,0-9.809,2.093,30.2,30.2,0,0,0-9.558,7.259,15.328,15.328,0,0,1-6.233,3.787,74.137,74.137,0,0,1-8.4,2.291l-.01,0c-2.889.673-5.876,1.368-8.836,2.344a75.479,75.479,0,0,0,12.924,6.394c6.046,2.528,11.754,4.916,15.654,8.961a16.613,16.613,0,0,1,4.23,7.5,26.353,26.353,0,0,1,.139,11.225c10.993,3.052,21.228,5.837,32.064,8.786l.139.037c4.938,1.344,10.534,2.866,16.269,4.434v-.191c-2.639-3.463-5.117-6.62-7.514-9.674l-.054-.069-.026-.033c-5.532-7.049-10.309-13.136-14.464-19.666a17.152,17.152,0,0,1-2.794-7.913,17.54,17.54,0,0,1,1.1-7.461c1.794-4.991,5.409-9.711,8.6-13.876l0-.006c-4.59-1.788-8.4-3.245-12.17-4.354A39.577,39.577,0,0,0,3478.3,112.748ZM3216.1,56.68V56.7l-.1.022-.043.009-.161.034.115.011h.378c-1.019,1.487-2,2.936-3.177,4.676-1.494,2.208-2.99,4.416-4.868,7.16,3.766.6,7.408.851,10.93,1.091,7.038.481,13.116.9,17.469,3.926a47.9,47.9,0,0,0,13.081,6.571,42.631,42.631,0,0,0,13.029,1.966,64.347,64.347,0,0,0,16.956-2.547,178.525,178.525,0,0,0,18.092-6.276c-10.069-2.052-19.6-4-30.126-6.154l-.409-.084c-17.645-3.608-34.311-7.016-51.071-10.4V56.68l-.046.009-.016,0ZM2721.559,22.029c2.054,0,4.143,1.388,7.3,3.489l.014.01c1.814,1.206,4.071,2.706,6.845,4.266-13.436,2.209-24.91,4.1-36.007,5.937l-.459.076-.546.09c-6.1,1.007-12.053,1.991-18.088,2.986,5.544,1.41,9.862,2.514,14.961,3.88-3.086,3.289-5.381,5.689-7.812,8.231l-.079.083-.187.2c-.921.963-1.874,1.96-2.905,3.042,5.534,2.388,11.3,2.755,16.878,3.111h.007c4.522.288,8.791.559,12.671,1.874a18.41,18.41,0,0,1,5.464,2.886,19.286,19.286,0,0,1,4.615,5.235l-.013.012-.013.012-.034.03h.093c-.01-.019-.022-.037-.033-.054,11.582-9.851,22.283-18.983,32.631-27.813l.349-.3.279-.238c7.566-6.456,14.713-12.554,21.874-18.653H2653.072a23.921,23.921,0,0,0,8.873,6.489,25.2,25.2,0,0,0,9.767,1.786c5.856,0,11.92-1.474,18.34-3.034l.133-.032c10.5-2.552,21.687-3.251,31.241-3.6Zm436.406,29.254h0c-.038.624-.076,1.264-.115,1.906-.055.906-.112,1.841-.168,2.732a190.451,190.451,0,0,0,33.377,3.283,120.275,120.275,0,0,0,24.731-2.441c-10.246-.949-20.9-1.969-30.292-2.868C3176.514,53.035,3167.225,52.146,3157.965,51.283ZM2839.254,34.4c4.5,0,8.674,2.039,12.711,4.011l.125.062.006,0c3.981,1.942,8.1,3.95,12.359,3.95a14.515,14.515,0,0,0,8.732-3.074V39.26c-2.067-1.484-4.117-3.026-6.1-4.517l-.053-.04a147.529,147.529,0,0,0-13.729-9.549,16.177,16.177,0,0,0-7.843-2.584c-4.959,0-8.433,4.1-10.62,12.524A14.257,14.257,0,0,1,2839.254,34.4Zm1051.53,1304.9h0l-677.962,0c2.118-3.954,4.271-7.772,6.4-11.348a50.538,50.538,0,0,0,5.031-10.887,31.439,31.439,0,0,0,1.5-9.823c-.066-5.829-1.817-11.735-5.681-19.15h-.188c-1,.346-1.824.586-2.551.8l-.042.012a10.115,10.115,0,0,0-2.8,1.084,6.553,6.553,0,0,0-1.512,1.682,7.363,7.363,0,0,1-1.424,1.633c-2.536,1.906-5.056,3.931-7.494,5.889-5.734,4.607-11.663,9.372-18.17,12.882a49.646,49.646,0,0,1-10.353,4.238,43.764,43.764,0,0,1-11.887,1.606c-8.729,0-15.038,2.086-18.751,6.2-3.212,3.558-4.5,8.666-3.831,15.183H3017.436c-.009-.061-.019-.123-.029-.184s-.019-.122-.029-.183c2.951-1.162,5.865-2.021,8.684-2.853,5.7-1.68,10.618-3.132,13.658-6.425a40.651,40.651,0,0,1,15.869-10.721c6.122-2.323,12.786-3.349,18.5-4.047a33.383,33.383,0,0,0,18.366-8.225c4.977-4.523,7.868-10.243,8.141-16.108.2-4.564.821-9.291,1.417-13.862.973-7.451,1.979-15.154,1.32-22.68a42.4,42.4,0,0,0-2.438-11.182,39.291,39.291,0,0,0-6.169-10.877c-2.666-3.4-2.325-9.264-2-14.936.137-2.366.28-4.812.2-7.029a39.53,39.53,0,0,1,.279-5.739c.357-3.7.694-7.2-.844-9.6a19.951,19.951,0,0,1-3.1-7.671,15.019,15.019,0,0,1,.49-6.756c1.266-4.23,4.193-8.129,7.338-12.083a167.76,167.76,0,0,1,17.595-18.767,179.851,179.851,0,0,1,19.848-15.706,202.322,202.322,0,0,1,21.7-12.883,234.022,234.022,0,0,1,23.132-10.3,198.792,198.792,0,0,0,30.571-14.8,208.279,208.279,0,0,0,26.814-19.055c15.693-13.1,30.4-29.031,44.957-48.7,2.593-3.457,3.842-6.394,3.93-9.243a11.478,11.478,0,0,0-.893-4.723,21.062,21.062,0,0,0-3.131-5.157h-.113c-6.191,0-12.583.051-18.763.1h-.134c-6.369.051-12.954.1-19.475.1-10.095,0-18.384-.126-26.084-.4l-2.025-.071c-17.516-.612-35.627-1.246-47.2-18.292q-.872-1.311-1.749-2.621l-.524-.787a36.449,36.449,0,0,0,1.278-9.635c-.078-3.381-.89-6-2.414-7.786-4.577-5.421-10.087-10.153-15.415-14.729-3.062-2.629-6.228-5.349-9.2-8.182-1.332-1.268-2.783-2.544-4.187-3.778l0,0c-4.756-4.185-9.674-8.513-11.715-13.828-.334-.873-.668-1.76-.992-2.618l-.239-.634c-4.691-12.448-9.121-24.206-20.446-33.007-2.407-1.95-2.854-6.5-3.287-10.907v-.011a53.722,53.722,0,0,0-.784-5.837,78.984,78.984,0,0,1-1.188-8.938l0-.032,0-.03a71.529,71.529,0,0,0-1.336-9.569c-.785-3.249-1.971-5.506-3.626-6.9a49.617,49.617,0,0,1-10.152-12.171,133.7,133.7,0,0,1-6.95-13.637l-.006-.013a130.416,130.416,0,0,0-7.033-13.753c-3.147-5.1-5.308-10.9-7.4-16.507a128.468,128.468,0,0,0-5.193-12.556c-3.364-6.8-7.411-13.406-11.325-19.8l-.134-.218c-1.564-2.556-3.181-5.2-4.733-7.82.193-.1.39-.2.6-.308.42-.219.854-.446,1.3-.636,2.729,2.182,5.548,4.45,8.034,6.451,3.592,2.89,7.662,6.165,11.565,9.264,5.227-6,8.736-10,11.831-13.525l.1-.11a29.518,29.518,0,0,0-.859,6.594,18.177,18.177,0,0,0,.8,5.538c.992,3.194,2.907,6.248,6.4,10.214,6.7,7.6,11.992,16.662,17.113,25.428l.01.016.008.014c2.4,4.112,4.885,8.364,7.483,12.41.274.422.552.852.825,1.274l.194.3c2.476,3.84,5.034,7.807,8.45,10.637a38.651,38.651,0,0,1,10.969,14.1,50.74,50.74,0,0,1,4.084,17.431,37.18,37.18,0,0,0,2.129,9.741,22.425,22.425,0,0,0,4.97,8.25c12.84,12.534,22.374,25.006,29.148,38.128a111.479,111.479,0,0,1,8.57,21.994,113.205,113.205,0,0,1,3.751,24.515,36.468,36.468,0,0,0,1.294,8.74,15.589,15.589,0,0,0,3.07,5.932,11.713,11.713,0,0,0,4.982,3.376,20.342,20.342,0,0,0,7.024,1.07,51.166,51.166,0,0,0,9.472-1.037l.909-.182.909-.182a218.583,218.583,0,0,1,22.514-3.705c11.239-.991,22.629-1.854,33.644-2.689,11.1-.841,22.584-1.71,33.859-2.708a36.593,36.593,0,0,0,8.383-2.122l.041-.014c1.426-.482,2.9-.98,4.359-1.369,2.632-.723,5.319-1.7,7.918-2.641,5.174-1.878,10.524-3.819,15.6-3.819a18.7,18.7,0,0,1,2.139.12,51.856,51.856,0,0,0,5.964.343,64.684,64.684,0,0,0,15.5-2.045c5.006-1.228,9.979-2.9,14.788-4.511l.024-.008c2.685-.9,5.461-1.832,8.222-2.679,2.065-.617,4.3-1.06,6.452-1.488l.009,0c4.458-.884,9.063-1.8,12.379-4.287,7.769-5.924,14.951-12.724,22.554-19.922l.019-.018.034-.033c3.357-3.179,6.828-6.466,10.528-9.849-1.666-1.928-3.206-4.1-4.837-6.409l-.006-.009,0-.006c-3.567-5.039-7.254-10.25-12.291-12.6a72.245,72.245,0,0,1-11.468-6.531,35.248,35.248,0,0,1-8.424-8.216c-4.706-6.636-6.127-14.756-4.343-24.827-2.8,1.364-5.346,2.551-7.593,3.6l-.015.008c-4.167,1.94-7.765,3.615-11.139,5.578a42.227,42.227,0,0,1-21.911,5.76c-8.367,0-16.879-2.05-24.1-4.055a23.032,23.032,0,0,1-6.1-2.533,9.1,9.1,0,0,1-3.741-4.132,7.973,7.973,0,0,1-.435-4.307,16.726,16.726,0,0,1,2.133-5.6c.872-1.5.883-3.5.9-6.043V845.6c.007-1.316.016-2.808.146-4.454-6.107,2.756-10.295,4.663-16,7.291a54.433,54.433,0,0,0-5.467-20.06,48.11,48.11,0,0,0-12.709-15.444,19.517,19.517,0,0,1-4.641-5.471,20.364,20.364,0,0,1-2.307-6.482,29.5,29.5,0,0,1,1.363-14.366c6.115-.506,10.109-.722,13.356-.722,13.573,0,16.068,3.919,24.334,16.9l.367.576a164.083,164.083,0,0,0,11.719,16.371,88.323,88.323,0,0,0,13.7,13.591,64.8,64.8,0,0,0,7.846,5.274,57.293,57.293,0,0,0,8.643,4,56.047,56.047,0,0,0,9.537,2.543,61.447,61.447,0,0,0,10.534.891c1.952,0,3.968-.088,5.991-.261,1.581-.147,3.438-.3,5.228-.3a15.445,15.445,0,0,1,7.354,1.455,8.423,8.423,0,0,1,4.272,6.135,27.094,27.094,0,0,0,4.076,10,25.04,25.04,0,0,0,6.666,6.6c5.108,3.514,11.417,5.532,17.518,7.483l1.086.348c34.093,10.772,64.534,19.846,93.064,27.739a37.181,37.181,0,0,1,13.171,6.226,29.17,29.17,0,0,1,8.7,11.193,68.257,68.257,0,0,0,6.506,11.209,62.943,62.943,0,0,0,8.263,9.372,65.218,65.218,0,0,0,9.968,7.578,74.918,74.918,0,0,0,11.618,5.829c.366.183.378,1.173.391,2.318a18.222,18.222,0,0,0,.081,1.849c-1.738.356-3.474.7-5.311,1.058l-.138.027-.021,0c-2.5.491-5.328,1.047-8.732,1.751,1.785,2.338,3.329,4.809,4.822,7.2a69.757,69.757,0,0,0,4.626,6.818,14.612,14.612,0,0,0,5.323,4.442c6.716,3.028,14.29,4.179,22.309,5.4,3.49.53,7.1,1.078,10.732,1.8-.117,1.355-.265,2.709-.407,4.018l0,.024a80.014,80.014,0,0,0-.633,8.74c-.056,5.973-.315,12.043-.566,17.914v.024c-.6,14.018-1.213,28.514.851,42.369,2.7,18.145,7.216,36.348,11.584,53.953,2.376,9.571,4.833,19.469,6.972,29.262a40.111,40.111,0,0,0,2.49,7.913,18.675,18.675,0,0,0,3.619,5.515,13.256,13.256,0,0,0,4.981,3.228,18.745,18.745,0,0,0,6.575,1.051,39.717,39.717,0,0,0,8.087-.948,44.161,44.161,0,0,0,14.411-5.9,50.441,50.441,0,0,0,11.908-10.54,58.106,58.106,0,0,0,8.642-14.251,64.247,64.247,0,0,0,4.613-17.029c1-8.142,2.043-13.11,4.685-16.046,2.526-2.807,6.525-3.781,13.49-4.687,31.064-4.076,62-8.734,90.792-13.16,2.662-.379,5.728-2.081,9.373-5.206a32.023,32.023,0,0,1,7.353-5,17.181,17.181,0,0,1,7.427-1.769c4.266,0,8.536,1.749,13.054,5.347,6.051,4.843,12.508,7.97,18.178,8.806a4.736,4.736,0,0,0,.669.046c2.5,0,5.278-1.821,8.794-4.126,1.827-1.2,3.9-2.555,6.158-3.779,3.022,7.557,6.382,15.866,9.846,24.425,1.018,2.466,1.946,5.036,2.844,7.519,1.872,5.179,3.808,10.535,6.623,15.2a93.441,93.441,0,0,1,7.007,13.661,53.477,53.477,0,0,1,3.679,13.759,39.82,39.82,0,0,1-.742,13.918,44.551,44.551,0,0,1-6.254,14.141c6.815,7.6,14.879,11.3,24.652,11.3a58.768,58.768,0,0,0,16.91-2.872c.632,1.264,1.278,2.356,1.8,3.233l0,.005c1.043,1.764,1.8,3.038,1.8,4.336.018,3.142.054,6.341.089,9.434v.031c.148,13.039.3,26.521-.848,39.671a40.82,40.82,0,0,1-2.969,11.479c-1.542,3.888-3.546,7.842-5.156,11.019l-.016.032a128,128,0,0,1-9.291,14.517l-.006.008c-1.512,2.146-3.075,4.366-4.621,6.684,1.568,2.869,3.321,5.7,5.016,8.433l.007.011c3.769,6.088,7.666,12.384,9.561,19.106,1.723,6.038,1.772,12.611,1.82,18.968.015,2.034.03,4.136.1,6.2h-27.157c-3.995-7.6-8.036-14.914-13.544-20.787a40.06,40.06,0,0,0-9.7-7.693,40.5,40.5,0,0,0-13.063-4.55,13.729,13.729,0,0,1-.554,1.261l0,.008c-.459.961-.935,1.956-.673,2.611.117.3.234.608.351.912l.006.014c1.5,3.907,3.059,7.948,5.511,11.194a137.8,137.8,0,0,1,10.936,17.029Zm-201.7-174.756c-6.644,4.746-11.092,9.774-13.6,15.372a28.358,28.358,0,0,0-2.259,8.152,38.461,38.461,0,0,0-.05,8.57,13.764,13.764,0,0,0,1.46,5.268,9.063,9.063,0,0,0,2.925,3.248c2.094,1.412,4.92,2.1,8.64,2.1,1.168,0,2.421-.066,3.831-.2,3.363-.287,5.8-1.477,7.255-3.537,1.607-2.28,1.914-5.541.886-9.431-1.6-5.9-3.426-11.607-5.541-18.214-1.076-3.36-2.3-7.169-3.548-11.229ZM619.018,1339.3h-27.33l3.644-1.224c8.351-2.806,15.351-5.157,22.371-7.509-.143.254-.259.463-.39.7l.213-.214-.094.169-.026.046c.385-.178.789-.349,1.2-.509a16.328,16.328,0,0,0-.8,4.605,6.477,6.477,0,0,0,1.214,3.936Zm-50.261,0h0l-19.371,0c2.026-1.076,3.931-2.1,5.771-3.1l.068-.036c5.426-2.932,10.111-5.465,15.035-7.646a29.816,29.816,0,0,1,8.1-1.9c.994-.137,2.121-.292,3.2-.484-.051.083-.1.169-.161.265l-.081.132-.081.132-.183.148.052-.008.019,0,.033-.005a.107.107,0,0,0-.007.011l0,.005c.031,0,.064-.009.094-.015l.016,0c-1.7,1.7-3.449,3.451-5.229,5.232Zm-22.495,0H387.592a22.2,22.2,0,0,1,9.424-6.016,33.689,33.689,0,0,1,10.747-1.611,51.711,51.711,0,0,1,8.937.823,51.562,51.562,0,0,0,9.29.853,55.889,55.889,0,0,0,12.578-1.5c4.047-.914,7.969-2.135,12.308-3.521l.946-.3.048-.016c4.2-1.357,8.174-2.639,12.649-2.639a25.994,25.994,0,0,1,10.972,2.581c6.96,3.241,13.407,4.884,19.162,4.884a24.8,24.8,0,0,0,15.206-4.884,8.849,8.849,0,0,1,5.073-1.244,11.265,11.265,0,0,1,5.529,1.244,15.308,15.308,0,0,0,8.051,2.61c5.365,0,9.675-3.862,13.629-7.818.759-.759,2.079-.971,3.475-1.194a20.081,20.081,0,0,0,2.109-.416c-.267,3.136-.491,5.986-.727,9l-.013.161c-.194,2.485-.437,5.577-.723,9Zm71.443-8.733v0c.572-1.012,1.186-2.065,1.9-3.284l.083-.143c1.011-1.735,2.269-3.894,4.053-7.03h.007l.1-.014c-3.351,5.732-4.759,8.17-6.026,10.436l-.059.021-.052.018Zm9.692-3.435h0a5.42,5.42,0,0,0,1.372-1.451,9.856,9.856,0,0,1,2.852-3.149,11.106,11.106,0,0,0-2.187,2.675A5.807,5.807,0,0,1,627.4,1327.135Zm19.576-2.891h0a41.743,41.743,0,0,0-.041-9.843,11.329,11.329,0,0,0-2.533-6.115c-1.6-1.752-3.926-2.6-7.107-2.6a31.181,31.181,0,0,0-7.671,1.157,73.9,73.9,0,0,1-18.942,2.347,117.2,117.2,0,0,1-17.451-1.444l.323-.522a118,118,0,0,0,17.756,1.492,74.544,74.544,0,0,0,18.976-2.346,30.85,30.85,0,0,1,7.626-1.159c3.161,0,5.476.85,7.078,2.6a11.507,11.507,0,0,1,2.571,6.216,43.191,43.191,0,0,1,.051,10.049A4.681,4.681,0,0,1,646.972,1324.244Zm2382.048-47.037,0,0-.094-.093a30.942,30.942,0,0,1-7.287-8.079,25.254,25.254,0,0,1-3.239-8.489c-1.109-5.774-.4-11.858.284-17.741v-.009c.856-7.374,1.741-15-.835-22.294a31.8,31.8,0,0,1,8.969,12.487,32.076,32.076,0,0,0-8.876-12.394c2.036,5.76,3.788,11.232,5.334,16.061l.008.024c2.508,7.828,4.32,13.484,5.209,13.484.216,0,.373-.319.479-.977-.128,5.488-.075,11.076-.02,16.993v.094c.033,3.494.067,7.108.067,10.932Zm-43.737-72.329,0,0a51.364,51.364,0,0,1-22.294-25.489,62.693,62.693,0,0,1-4.225-17.272,82.985,82.985,0,0,1,.392-19.436c7.057,5.509,7.637,12.688,8.2,19.629.3,3.751.591,7.294,1.835,10.569,2.552,6.637,5.979,13,9.948,20.371,1.953,3.625,3.972,7.373,6.147,11.627Zm31.24-70.532h0c-5.971-.595-12.673-1.271-21.207-2.177,1.276-9.656,2.543-19.036,3.5-26.13,5.471-1.4,11.309-2.692,16.945-2.692a30.136,30.136,0,0,1,18.462,6.006c-3.738,5.246-7.279,10.254-11.028,15.557-1.968,2.784-4.268,6.039-6.676,9.436ZM494.617,1078.673h0v-.091c3.406-8.6,5.517-13.882,9.038-22.591l.019-.013.032-.021c-2.2,5.487-3.816,9.538-5.557,13.892Zm-20.975-8.949h0l-.009-.007a.411.411,0,0,1-.033-.032c1.858-2.294,3.733-4.644,5.547-6.916l.1-.122.066-.082c2.851-3.572,5.8-7.266,8.772-10.866,2.842-3.425,5.758-6.953,8.269-9.991,8.159-9.871,16.6-20.077,25.055-29.96.172-.2.343-.405.512-.606l.007-.009a34.982,34.982,0,0,1,6.017-6.08,13.772,13.772,0,0,1,8.414-2.634,22.216,22.216,0,0,1,3.7.332,7.413,7.413,0,0,0,1.225.1,13.99,13.99,0,0,0,6.2-1.816,78.857,78.857,0,0,0,6.961-4.184c2.6-1.682,5.294-3.42,8.143-4.891a22.5,22.5,0,0,1,1.719,8.226,22.187,22.187,0,0,0-1.719-8.134c-2.844,1.469-5.535,3.208-8.137,4.889l-.039.026a78.643,78.643,0,0,1-6.925,4.161,14,14,0,0,1-6.205,1.819,7.4,7.4,0,0,1-1.226-.1,22.274,22.274,0,0,0-3.7-.332,13.784,13.784,0,0,0-8.417,2.633,34.911,34.911,0,0,0-6.014,6.072l-.011.013q-.254.3-.513.608c-8.406,9.821-16.791,19.966-24.9,29.777l-.056.067c-2.828,3.422-5.6,6.77-8.368,10.111-3.814,4.544-7.583,9.3-11.229,13.89l-.057.071c-.936,1.181-2.044,2.576-3.154,3.971ZM636.184,1059.6a18.884,18.884,0,0,1-4.459-.981c-1.521-.441-3.246-.941-5.126-1.316l.031-.054.071-.113c1.776.384,3.4.854,4.838,1.269a19.646,19.646,0,0,0,4.612,1.015,1.916,1.916,0,0,0,1.231-.339c3.5-2.974,7.446-5.869,11.258-8.669l.007-.005a161.387,161.387,0,0,0,14.327-11.372,52.184,52.184,0,0,0,5.824-6.292,31.885,31.885,0,0,0,4.18-6.99c5.414-12.83,13.135-24.064,20.6-34.927l.006-.009.011-.016c4.522-6.579,9.2-13.384,13.276-20.431,3.357-5.718,7.189-11.248,10.893-16.6l.005-.007.02-.029c1.883-2.717,3.828-5.526,5.691-8.329l.06-.014.043-.009.044-.009c-1.545,2.265-3.194,4.628-4.519,6.526-4.193,6.007-8.528,12.217-12.237,18.657-4.129,7.171-8.856,14.046-13.429,20.7-7.415,10.783-15.082,21.934-20.465,34.688a31.484,31.484,0,0,1-4.165,7.024,51.58,51.58,0,0,1-5.843,6.32,160.335,160.335,0,0,1-14.432,11.429c-3.768,2.759-7.664,5.612-11.156,8.553A1.864,1.864,0,0,1,636.184,1059.6Zm7.176-29.641h0c-3.2-2.245-6.073-4.289-9.4-6.655-1.381-.982-2.737-1.945-4.148-2.946l.058-.034.014-.008.072-.043,3.976,2.824c3.21,2.281,6.242,4.436,9.511,6.732l-.04.066-.04.065Zm539.88-19.914a28.016,28.016,0,0,1-8.989-1.249,13.92,13.92,0,0,1-5.913-3.708,16.053,16.053,0,0,1-3.426-6.106,36.83,36.83,0,0,1-1.523-8.446c-.789-9.416-.169-16.8,1.951-23.241a38.154,38.154,0,0,1,13.669-18.7c5.125-3.892,8.811-9.682,11.269-17.7-.993.447-2,.9-2.968,1.341l-.046.021-.034.016c-4.728,2.139-9.616,4.351-14.466,6.384-2.837,1.159-5.779,2.226-8.624,3.259-5.989,2.173-12.178,4.42-17.7,7.631a64.328,64.328,0,0,0-9.9,7.039,42.264,42.264,0,0,0-7.906,8.959,62.672,62.672,0,0,1-15.359,16.971,66.5,66.5,0,0,1-22.319,10.579c.74-1.881,1.35-3.616,1.94-5.294l.023-.065a46.891,46.891,0,0,1,3.811-8.937c6.482-10.291,13.184-20.58,19.667-30.53,3.06-4.7,6.529-10.021,9.872-15.2,4.377-6.765,8.893-11.672,13.808-15a32.749,32.749,0,0,1,18.977-5.644,46.66,46.66,0,0,1,6.5.477,38.241,38.241,0,0,0,5.429.344c1.994,0,4.024-.106,5.987-.209l.064,0c1.984-.1,4.036-.214,6.067-.214a33.322,33.322,0,0,1,8.38.914,22.8,22.8,0,0,1,8.156,3.9,3.492,3.492,0,0,0,2.141.577c2.41,0,5.775-1.286,8.744-2.421.668-.255,1.3-.5,1.9-.714,4.958-1.841,9.926-3.857,14.731-5.806l.028-.011c4.808-1.951,9.779-3.969,14.781-5.826,5.395-2.056,8.59-3.219,11.52-3.219,2.41,0,4.623.775,7.636,2.674,2.946,1.854,6.685,4.821,11.861,8.928l.052.041.247.2c-3.811.841-7.829,1.749-11.058,2.478l-.5.112c-3.414.77-6.944,1.567-10.391,2.327v34.27c5.619-2.528,13.329-7.533,20.119-13.064a91.18,91.18,0,0,0,9.117-8.423,30.945,30.945,0,0,0,5.6-7.765,42.083,42.083,0,0,1,6.239-10.029,47.527,47.527,0,0,1,8.13-7.588c5.963-4.454,12.93-7.9,20.306-11.553l.042-.021c2.9-1.437,5.906-2.924,8.928-4.514-.088,12.6-6.819,17.325-13.328,21.894q-.742.52-1.442,1.017a115.2,115.2,0,0,0-14.911,12.331,63.778,63.778,0,0,0-11.787,16.449c-5.652,11.229-16.211,20.28-26.422,29.033l-.078.066c-2.552,2.189-5.191,4.451-7.677,6.689-2.075,1.885-5.727,2.063-9.956,2.269-2.126.1-4.536.219-6.993.571l.078-.2c.244-.622.488-1.247.728-1.853,2.088-5.314,4.06-10.334,4.376-14.941a14.255,14.255,0,0,0-.958-6.583,14.768,14.768,0,0,0-4.6-5.866,6.845,6.845,0,0,0-4.391-1.117,46.541,46.541,0,0,0-4.707.346,53.475,53.475,0,0,1-5.576.394V934.775c-1.792-.088-3.909-.179-6.019-.179-5.223,0-9.016.575-12.3,1.864a20.654,20.654,0,0,0-9.8,8.16c-5.281,7.919-7.975,15-8.237,21.645a26.1,26.1,0,0,0,1.846,10.747,35.167,35.167,0,0,0,6.959,10.686c-3.576,7.5-6.841,14.212-10,20.706l-.211.433-.586,1.2C1183.633,1010.044,1183.438,1010.045,1183.24,1010.045ZM991.208,990.153h0l-.013-.021-.013-.02c-.009-.013-.018-.027-.026-.04l-.011-.019c1.121-.206,2.256-.446,3.257-.658l.071-.015c.877-.185,1.783-.376,2.669-.544,0-1.658.167-3.408.328-5.1.358-3.776.729-7.679-.709-10.617a9.98,9.98,0,0,0-1.334-2.039,10.07,10.07,0,0,1,1.428,2.133c1.438,2.939,1.068,6.843.709,10.618v.006c-.161,1.7-.327,3.45-.327,5.093-1.141.208-2.251.443-3.324.671C993.073,989.777,992.123,989.978,991.208,990.153Zm-7.362-11.834h0c-3.429-.481-6.85-.913-10.158-1.33-8.689-1.1-16.9-2.132-25.112-3.966a10.389,10.389,0,0,1-4.542-2.958,10.3,10.3,0,0,0,4.449,2.863c8.188,1.826,16.368,2.86,25.029,3.954l.02,0c3.17.4,6.762.853,10.264,1.346l.036.059.006.01.01.017ZM3747.4,871.059h0c-2.969-7.32-5.262-13.011-7.669-19.027,3.718-2.049,6.969-3.045,9.938-3.045,7.394,0,11.992,6.2,17.234,14.31h-.094c-2.184.874-4.252,1.7-6.255,2.507l-.256.1c-4.384,1.758-8.524,3.418-12.9,5.153Zm523.971-36.3h0A98.244,98.244,0,0,1,4255.23,833c-5.708-1.024-11.7-1.036-17.5-1.049h-.017c-4.4-.009-8.942-.019-13.346-.468-2.59-.265-5.074-1.95-7.478-3.579l-.02-.014c-1.017-.689-2.066-1.4-3.108-1.992.149-.8.27-1.6.4-2.455l0-.025c.11-.737.224-1.5.357-2.253v-.1c4.473-.029,9.028-.189,13.434-.344h.033c4.869-.171,9.9-.349,14.875-.349a139.017,139.017,0,0,1,14.734.694,58.3,58.3,0,0,0,6.234.366,30.314,30.314,0,0,0,10.766-1.758,27.39,27.39,0,0,0,9.6-6.276c.441-.425.877-.856,1.36-1.335l0,0a37.977,37.977,0,0,1,5.012-4.421,10.429,10.429,0,0,1,5.966-2.081,11.641,11.641,0,0,1,6.6,2.349c-6.061,11.095-10.328,17.186-14.728,21.023C4283.733,833.016,4278.639,834.757,4271.373,834.757ZM3363.9,710.725a57.219,57.219,0,0,1-14.9-2.012,79.532,79.532,0,0,1-14.034-5.3c-9.129-4.385-18-10.317-26.578-16.054l-.8-.538-1.834-1.224c-3.05-2.068-4.818-4.56-5.253-7.407a11.781,11.781,0,0,1,.9-6.205,25.039,25.039,0,0,1,3.685-6.08,117.258,117.258,0,0,1,9.8-10.609l.02-.019.011-.011c1.2-1.185,2.228-2.208,3.051-3.086-6.506-12.158-12.9-24.08-18.9-35.249l-1.53-2.852c-5.684-10.593-11.561-21.546-17.538-32.716,3.158-1.687,6.044-3.536,8.834-5.324l.019-.012c5.706-3.656,10.631-6.811,15.952-7.443,23.025-2.75,36.522-4.306,46.178-4.306a48.858,48.858,0,0,1,16.068,2.3c4.753,1.567,9.533,3.977,16.149,7.313l.751.378v.094c-2.457,1.867-4.726,3.964-6.728,5.813l-.009.009c-3.614,3.338-6.469,5.975-8.8,5.975a2.773,2.773,0,0,1-.561-.056,22.108,22.108,0,0,0-4.691-.534,18.237,18.237,0,0,0-9.963,3,62.256,62.256,0,0,0-8.712,7.1l-.006.005c-1.479,1.354-3.008,2.754-4.652,4.154,7.878,9.3,16.466,19.428,27.172,32-.093.359-.6,4.186-1.146,8.238l-.01.082-.078.579c2.253.243,4.5.291,6.677.337,4.616.1,8.975.194,12.259,2.126,2.831,1.721,4.575,5.192,6.989,9.995l.006.011c1.3,2.6,2.784,5.543,4.744,8.832-8.243-1.674-14.43-2.881-20.413-4.046-3.129-.611-6.365-1.241-9.787-1.919.638,6.729,3.392,13.017,6.054,19.1l0,.01,0,.011c2.484,5.674,4.831,11.034,5.6,16.712a25.142,25.142,0,0,1-.27,8.71,27.519,27.519,0,0,1-3.912,9.232A55.091,55.091,0,0,1,3363.9,710.725Zm417.484-2.559a8.679,8.679,0,0,1-2.835-.419c-11.228-3.867-22.125-8.654-33.229-13.632l-.348-.155-.562-.251c-3.264-1.461-6.639-2.972-9.929-4.086a30.469,30.469,0,0,0-9.722-1.854,17.485,17.485,0,0,0-8.989,2.374,26.664,26.664,0,0,0-8.512,8.423c-3.34-4.066-5.7-6.864-7.775-9.333l-.017-.021c-.613-.727-1.193-1.417-1.76-2.092l-.007-.009c.524-.787.92-1.5,1.269-2.129l.012-.021c.641-1.157,1.1-1.992,1.841-2.3a49.045,49.045,0,0,1,9.509-3.35,40.935,40.935,0,0,1,9.338-1.1c7.664,0,15.465,2.2,23.849,6.719,10.01,5.424,20.82,9.486,33.338,14.189l.021.008c5.911,2.221,12.023,4.517,18.714,7.2-3.2.309-5.8.736-8.09,1.112A40.341,40.341,0,0,1,3781.384,708.166ZM1527.879,639.3v0a27.032,27.032,0,0,1,2.117-7.829,12.91,12.91,0,0,1,3.812-4.831c3.1-2.389,7.356-3.484,13.669-4.569-1.942,1.711-3.632,3.2-5.266,4.646l-.673.594-.036.032c-4.677,4.129-8.372,7.391-13.621,11.959ZM3493.1,637.027c-5.528-.757-10.039-1.318-15.261-1.967l-.073-.009-.188-.024-3.693-.46c1.014-3.549,1.908-6.574,2.695-9.244l.036-.123.188-.636c.6-2.05,1.174-3.986,1.722-5.9l-.762-.674c-.613-.541-1.136-1-1.7-1.5-2.148,1.984-4.291,4-6.56,6.124l-.144.134-.056.052c-1.562,1.467-3.179,2.984-4.887,4.577-2.542-2.035-3.849-4.266-3.885-6.631a8.158,8.158,0,0,1,1.329-4.384,15.956,15.956,0,0,1,3.315-3.753,31.7,31.7,0,0,1,8.662-5.379,24.184,24.184,0,0,1,9.087-1.8,27.277,27.277,0,0,1,13.873,4.057c-.609,4.2-1.188,8.349-1.748,12.357-.641,4.592-1.3,9.339-2.135,15.1l.186.091ZM2988.5,327.447h0c-.371-.7-.75-1.409-1.118-2.1l-.2-.378c-1.991-3.711-4.048-7.549-5.685-11.444,0-.008,0-.019.011-.037a13.292,13.292,0,0,1,2.52-1.85,9.515,9.515,0,0,1,3.874-1.549,1.731,1.731,0,0,1,.317.028c3.341.692,5.31,1.917,6.02,3.746,1.318,3.4-1.961,8.361-5.736,13.579Zm-239.192-16.955c-3.146,0-7.131-1.111-12.543-3.5,9.986-3.63,16.456-6.007,23.29-8.522-.889,4.239-2.179,7.244-3.941,9.188A8.675,8.675,0,0,1,2749.307,310.492Zm301.771-.462v0c-5.752-9.15-10.919-17.382-15.9-25.467,5.913-6.028,11.642-8.957,17.512-8.957a19.4,19.4,0,0,1,6.928,1.34,30.546,30.546,0,0,1,7.143,4.029c4.825,3.564,9.823,8.856,15.28,16.179a15.975,15.975,0,0,1-3.058,5.592,10.716,10.716,0,0,1-4.075,2.881c-2.989,1.219-6.387,1.233-9.985,1.247-4.819.019-9.8.038-13.843,3.156Zm82.273-9.186h0c-4.359-4.311-8.371-8.247-12.25-12.054l-.55-.539c-3.718-3.646-6.828-6.7-10.159-9.985,1.351-1.291,2.837-2.706,4.544-4.328,3.094-2.944,6.6-6.281,10.178-9.732a14.272,14.272,0,0,1,5.686,2.073,10.511,10.511,0,0,1,3.333,3.557c1.612,2.758,2.188,6.238,2.744,9.6.654,3.945,1.329,8.021,3.67,10.99.587.719-1.927,3.809-4.359,6.8-1.094,1.345-2.127,2.615-2.834,3.617Z" transform="translate(-11895.261 1986.351)" fill="#ffc800"/>
    <g id="Group_193" data-name="Group 193" transform="translate(-9391.669 2767.788)">
      <g id="Group_5" data-name="Group 5" transform="translate(122.849 13.161)">
        <path id="Path_9" data-name="Path 9" d="M256.567,75.69l-7.014,21.447h-5.334L239.5,82.616l-4.87,14.521h-5.3L222.28,75.69h5.146l4.842,15.073L237.32,75.69h4.6l4.9,15.2,4.991-15.2h4.748Z" transform="translate(-222.28 -75.325)" fill="#002538"/>
        <path id="Path_10" data-name="Path 10" d="M311.536,95.769a10.707,10.707,0,0,1-4.2-3.969,11.381,11.381,0,0,1,0-11.365,10.655,10.655,0,0,1,4.2-3.963,13.256,13.256,0,0,1,12.028,0,10.884,10.884,0,0,1,4.2,3.963,11.309,11.309,0,0,1,0,11.365,10.857,10.857,0,0,1-4.2,3.969,13.3,13.3,0,0,1-12.028,0Zm9.447-3.665a6.217,6.217,0,0,0,2.4-2.438,7.669,7.669,0,0,0,0-7.108,6.291,6.291,0,0,0-2.4-2.438,7.183,7.183,0,0,0-6.865,0,6.253,6.253,0,0,0-2.4,2.438,7.667,7.667,0,0,0,0,7.108,6.327,6.327,0,0,0,2.4,2.438,7.182,7.182,0,0,0,6.865,0Z" transform="translate(-259.643 -75.03)" fill="#002538"/>
        <path id="Path_11" data-name="Path 11" d="M388.1,97.137l-4.134-5.975H379.4v5.975H374.44V75.69h9.286a11.949,11.949,0,0,1,4.947.951,7.081,7.081,0,0,1,4.361,6.832,6.977,6.977,0,0,1-4.411,6.771l4.809,6.893H388.1ZM386.844,80.7a5.183,5.183,0,0,0-3.4-.967H379.4v7.479h4.04a5.153,5.153,0,0,0,3.4-.978,3.864,3.864,0,0,0,0-5.533Z" transform="translate(-290.334 -75.325)" fill="#002538"/>
        <path id="Path_12" data-name="Path 12" d="M434.58,75.686h4.964v17.4H450.3v4.041H434.586V75.68Z" transform="translate(-317.232 -75.321)" fill="#002538"/>
        <path id="Path_13" data-name="Path 13" d="M487.45,75.69h9.739a13.766,13.766,0,0,1,6.174,1.332,10.026,10.026,0,0,1,4.168,3.753,11.434,11.434,0,0,1,0,11.276,10.026,10.026,0,0,1-4.168,3.753,13.693,13.693,0,0,1-6.174,1.332H487.45Zm9.5,17.367a7.206,7.206,0,0,0,5.13-1.791,7.114,7.114,0,0,0,0-9.717,7.206,7.206,0,0,0-5.13-1.791h-4.538V93.052h4.538Z" transform="translate(-340.878 -75.325)" fill="#002538"/>
      </g>
      <g id="Group_6" data-name="Group 6" transform="translate(0 0)">
        <path id="Path_14" data-name="Path 14" d="M9.012,173.884a70.047,70.047,0,0,0,17.074,6.92,66.68,66.68,0,0,0,16.61,2.31q8.847,0,12.962-2.819a8.859,8.859,0,0,0,4.118-7.694,10.768,10.768,0,0,0-.5-3.162,8.7,8.7,0,0,0-1.924-3.206,18.881,18.881,0,0,0-3.925-3.162,37.031,37.031,0,0,0-6.5-3.118l-13.763-5.212Q18.387,149.1,10.93,139.486a36.214,36.214,0,0,1-7.457-22.862A43.126,43.126,0,0,1,6.7,100.174a38.675,38.675,0,0,1,9.773-13.929,47.959,47.959,0,0,1,16.494-9.612A68.858,68.858,0,0,1,56.316,73.04a91.139,91.139,0,0,1,12.691.857,105.479,105.479,0,0,1,11.425,2.222,84.043,84.043,0,0,1,9.806,3.118q4.461,1.749,7.849,3.46L89.78,99.362a35.724,35.724,0,0,0-5.19-2.99,43.734,43.734,0,0,0-5.461-2.139,39.371,39.371,0,0,0-5.345-1.282,30.089,30.089,0,0,0-4.765-.426,17.89,17.89,0,0,0-6.462,1.067A14.33,14.33,0,0,0,57.9,96.41a11.893,11.893,0,0,0-2.847,3.93,10.538,10.538,0,0,0-.962,4.317,8.6,8.6,0,0,0,.807,3.632,10.213,10.213,0,0,0,2.769,3.422,28,28,0,0,0,5.157,3.333,72.34,72.34,0,0,0,7.96,3.46l9.231,3.421q14.991,5.555,22.917,15.3t7.926,23.586a39.656,39.656,0,0,1-3.8,17.351,37.739,37.739,0,0,1-11.348,13.719,55.628,55.628,0,0,1-18.733,8.971,94.714,94.714,0,0,1-25.957,3.206,111.276,111.276,0,0,1-13.653-.813,100.037,100.037,0,0,1-12.846-2.438,97.275,97.275,0,0,1-12.343-4.1A116.171,116.171,0,0,1,.03,190.892l9-17.008Z" transform="translate(-0.03 -60.979)" fill="#002538"/>
        <path id="Path_15" data-name="Path 15" d="M232.11,151.955h36.846l3.687,12.3a63.4,63.4,0,0,1,16.577-10.425,45.661,45.661,0,0,1,17.727-3.5,24.182,24.182,0,0,1,12.691,3.416q5.7,3.416,8.927,10.856a83.5,83.5,0,0,1,7.611-5.384,68.645,68.645,0,0,1,8.579-4.571,53,53,0,0,1,9.347-3.162,43.385,43.385,0,0,1,10.077-1.155,25.225,25.225,0,0,1,9.922,1.962,20.869,20.869,0,0,1,8,6.069,29.773,29.773,0,0,1,5.306,10.552,54.446,54.446,0,0,1,1.923,15.427v52.307H347.563V181.439q0-4.444-1.807-6.495a6.565,6.565,0,0,0-5.19-2.051,10.8,10.8,0,0,0-4,.9,20.231,20.231,0,0,0-4.538,2.609v60.255H290.259V181.45q0-4.444-1.763-6.495a6.455,6.455,0,0,0-5.157-2.051,13.938,13.938,0,0,0-4.925,1.028,10.865,10.865,0,0,0-4.538,3.25v59.487H232.11v-84.7Z" transform="translate(-103.828 -95.547)" fill="#002538"/>
        <path id="Path_16" data-name="Path 16" d="M574.338,99a31.221,31.221,0,0,1-9.806-1.365,18.115,18.115,0,0,1-6.732-3.8,15,15,0,0,1-3.847-5.638,20.183,20.183,0,0,1,0-13.891,14.879,14.879,0,0,1,3.847-5.682,18.148,18.148,0,0,1,6.732-3.8,31.221,31.221,0,0,1,9.806-1.365,31.578,31.578,0,0,1,9.85,1.365,18.6,18.6,0,0,1,6.733,3.8A14.775,14.775,0,0,1,594.8,74.3a20.182,20.182,0,0,1,0,13.891,14.833,14.833,0,0,1-3.88,5.638,18.522,18.522,0,0,1-6.733,3.8A31.151,31.151,0,0,1,574.338,99Zm-20.844,14.1H595.26v84.7H553.494Z" transform="translate(-247.221 -56.69)" fill="#002538"/>
        <path id="Path_17" data-name="Path 17" d="M668.65,51.22h41.766V192.326H668.65Z" transform="translate(-299.071 -51.22)" fill="#002538"/>
        <path id="Path_18" data-name="Path 18" d="M774.126,193.827a41.152,41.152,0,0,1,2.078-13.415,38.6,38.6,0,0,1,5.732-10.9,40.083,40.083,0,0,1,8.651-8.418,52.943,52.943,0,0,1,10.845-5.986,62.678,62.678,0,0,1,12.232-3.587,70.135,70.135,0,0,1,12.923-1.2,59.339,59.339,0,0,1,15.654,1.924,48.9,48.9,0,0,1,12.536,5.257,42.678,42.678,0,0,1,9.541,7.777,46.387,46.387,0,0,1,6.694,9.447,43.309,43.309,0,0,1,3.924,10.3,44.344,44.344,0,0,1,1.266,10.342l-58.155,7.777q1.691,9.485,6.771,14.7t14.228,5.212a30.973,30.973,0,0,0,9.348-1.365,21.033,21.033,0,0,0,6.8-3.333l6.152,11.967a62.732,62.732,0,0,1-6.191,3.073,50.6,50.6,0,0,1-7.385,2.521,70.988,70.988,0,0,1-8.922,1.708,83.143,83.143,0,0,1-10.729.641q-14,0-24.155-3.632a48.792,48.792,0,0,1-16.809-9.745,38.2,38.2,0,0,1-9.844-14.145,45.429,45.429,0,0,1-3.2-16.925Zm64.771-7.175q0-11.11-2.5-16.151t-7.423-5.041a8.62,8.62,0,0,0-4.693,1.365,10.955,10.955,0,0,0-3.692,4.273,27.747,27.747,0,0,0-2.46,7.479,60.576,60.576,0,0,0-1,11.072l21.773-2.99Z" transform="translate(-346.242 -95.543)" fill="#002538"/>
      </g>
    </g>
  </g>
</svg>
