<svg id="Group_70" data-name="Group 70" xmlns="http://www.w3.org/2000/svg" xmlns:xlink="http://www.w3.org/1999/xlink" width="106" height="37.766" viewBox="0 0 106 37.766">
  <defs>
    <radialGradient id="radial-gradient" cx="0.5" cy="0.5" r="0.5" gradientTransform="translate(0)" gradientUnits="objectBoundingBox">
      <stop offset="0.18" stop-color="#ffc800"/>
      <stop offset="0.19" stop-color="#ffc802"/>
      <stop offset="0.37" stop-color="#ffd84d"/>
      <stop offset="0.54" stop-color="#ffe68c"/>
      <stop offset="0.69" stop-color="#fff0be"/>
      <stop offset="0.82" stop-color="#fff8e1"/>
      <stop offset="0.93" stop-color="#fffdf7"/>
      <stop offset="1" stop-color="#fff"/>
    </radialGradient>
  </defs>
  <g id="Group_9" data-name="Group 9" transform="translate(58.338 0) rotate(3)">
    <path id="Path_4" data-name="Path 4" d="M30,15A15,15,0,1,1,15,0,15,15,0,0,1,30,15Z" transform="translate(0 0)" opacity="0.7" fill="url(#radial-gradient)" style="mix-blend-mode: multiply;isolation: isolate"/>
    <g id="Group_4" data-name="Group 4" transform="translate(3.748 0.146)">
      <path id="Path_5" data-name="Path 5" d="M17.5,19.5c5.237-3.034,8.565-6.618,8.219-11.629C25.1-1.038,14.944-.31,12.986,4.758A5.97,5.97,0,0,0,8.386.174C4.341-.711.192,1.8.007,7.322-.217,14.013,5.166,17,7.218,18.773c3.2,2.759,2.658,4.416,2.658,4.416s5.676-2.565,7.62-3.691Z" transform="translate(0 0)" fill="#ffc800"/>
      <g id="Group_3" data-name="Group 3" transform="translate(5.532 6.021)">
        <path id="Path_6" data-name="Path 6" d="M1.864,1.8A1.294,1.294,0,0,0,2.01.681,1.026,1.026,0,0,0,.724.059,1.144,1.144,0,0,0,.005,1.227,1.161,1.161,0,0,0,.966,2.241a.787.787,0,0,0,.9-.635.792.792,0,0,0-.635-.9C1.17.7,1.175.7,1.246.716A.321.321,0,0,1,1.4.793l.081.09A.346.346,0,0,1,1.442.815l.1.184A.348.348,0,0,1,1.514.923l.047.2c-.01-.08-.015-.053-.014.081.011-.059.008-.053-.01.017a.318.318,0,0,1-.079.157q-.15.124-.045.052l-.184.1.043-.018-.2.047.046-.009a.491.491,0,0,1-.353-.084.257.257,0,0,1-.1-.084Q.58,1.3.63,1.365l-.1-.184a.472.472,0,0,1,.039.1l-.047-.2c.021.115.037-.16.012-.068S.619.825.552.963c-.033.067-.066.133-.1.2a.779.779,0,0,0-.02.595.792.792,0,0,0,.407.435.782.782,0,0,0,.595.02A.9.9,0,0,0,1.863,1.8h0Z" transform="translate(2.708 0)" fill="#002538"/>
        <path id="Path_7" data-name="Path 7" d="M.029.943A.985.985,0,0,0,.868,2.157a1.192,1.192,0,0,0,1.253-.836A1.058,1.058,0,0,0,1.433.048,1.039,1.039,0,0,0,.208.554a.846.846,0,0,0-.082.58.8.8,0,0,0,.363.483.787.787,0,0,0,.581.081.76.76,0,0,0,.483-.364.247.247,0,0,1,.028-.053l-.128.165a.374.374,0,0,1,.063-.063l-.167.125A.268.268,0,0,1,1.4,1.479l-.188.074A.4.4,0,0,1,1.3,1.531l-.2.023a.243.243,0,0,1,.06,0l-.2-.027a.229.229,0,0,1,.057.018L.837,1.47A.24.24,0,0,1,.888,1.5L.724,1.373a.278.278,0,0,1,.042.042L.641,1.248a.417.417,0,0,1,.045.078L.612,1.139A.271.271,0,0,1,.626,1.2C.619,1.131.611,1.065.6,1a.243.243,0,0,1,0,.06C.613.993.622.928.631.862A.266.266,0,0,1,.614.93L.692.744a.336.336,0,0,1-.04.07L.78.65A.659.659,0,0,1,.666.76L.832.635a.678.678,0,0,1-.1.053L.924.614a.473.473,0,0,1-.1.025l.2-.023H.981l.2.027A.226.226,0,0,1,1.114.629L1.3.707A.209.209,0,0,1,1.248.679l.164.128A.228.228,0,0,1,1.369.765l.125.167a.214.214,0,0,1-.03-.05l.074.188a.162.162,0,0,1-.013-.055c.008.066.016.132.023.2,0-.01,0-.019,0-.028-.009.065-.018.131-.027.2l.007-.028A.789.789,0,0,0,.985.4.79.79,0,0,0,.03.943h0Z" transform="translate(10.209 1.049)" fill="#002538"/>
        <path id="Path_8" data-name="Path 8" d="M.074,1.19A8.221,8.221,0,0,0,6.338,6.163,6.731,6.731,0,0,0,13.026,2.87c.49-.874-.853-1.659-1.343-.785A5.185,5.185,0,0,1,6.169,4.567,6.877,6.877,0,0,1,1.417.406C1.013-.508-.327.283.074,1.19Z" transform="translate(0 4.54)" fill="#002538"/>
      </g>
    </g>
  </g>
  <text id="Benefactor" transform="translate(0 32.766)" fill="#fff" font-size="22" font-family="Helvetica-Bold, Helvetica" font-weight="700" letter-spacing="-0.05em"><tspan x="0" y="0">Benefactor</tspan></text>
  <text id="TM" transform="translate(103.069 19.153)" fill="#fff" font-size="1" font-family="Helvetica-Light, Helvetica" font-weight="300" letter-spacing="-0.05em"><tspan x="0" y="0">TM</tspan></text>
</svg>
