<svg xmlns="http://www.w3.org/2000/svg" xmlns:xlink="http://www.w3.org/1999/xlink" width="1920" height="424.001" viewBox="0 0 1920 424.001">
  <defs>
    <linearGradient id="linear-gradient" x1="0.5" x2="0.343" y2="1.67" gradientUnits="objectBoundingBox">
      <stop offset="0" stop-color="#033b58"/>
      <stop offset="1" stop-color="#06171f"/>
    </linearGradient>
  </defs>
  <g id="Group_207" data-name="Group 207" transform="translate(214 -4125.682)">
    <g id="Group_197" data-name="Group 197">
      <rect id="Rectangle_100" data-name="Rectangle 100" width="1920" height="424" transform="translate(-214 4125.682)" fill="url(#linear-gradient)"/>
      <path id="Subtraction_22" data-name="Subtraction 22" d="M1070,92.031H530.436c9.3-7.2,19.008-14.1,28.843-20.522,9.88-6.45,20.139-12.574,30.493-18.2,10.416-5.661,21.187-10.961,32.016-15.754,10.909-4.828,22.15-9.261,33.41-13.177,11.36-3.951,23.027-7.474,34.676-10.472,11.768-3.029,23.818-5.6,35.814-7.639,12.133-2.063,24.522-3.637,36.824-4.677C774.967.534,787.653,0,800.218,0s25.252.534,37.706,1.588c12.3,1.041,24.691,2.614,36.824,4.677,12,2.04,24.046,4.61,35.814,7.639,11.65,3,23.316,6.522,34.676,10.472,11.26,3.916,22.5,8.349,33.41,13.177,10.829,4.792,21.6,10.093,32.016,15.754,10.354,5.628,20.613,11.752,30.493,18.2,9.837,6.422,19.54,13.327,28.842,20.521Z" transform="translate(-744.436 4457.651)" fill="#ffc800"/>
      <g id="Group_196" data-name="Group 196" transform="translate(1195.34 4191.472)" opacity="0.388" style="mix-blend-mode: overlay;isolation: isolate">
        <path id="Path_6" data-name="Path 6" d="M3166.4,670.807c6.539-11.1,9.621-24.433,4.821-36.877-6.348-16.447-25.131-26.93-42.277-20.429-15.434,5.862-25.22,21.986-23.642,38.392,1.639,16.933,15.082,30.428,31.6,33.309,13.183,2.295,27.767-7.228,29.508-20.884,1.748-13.779-6.814-27.052-20.888-29.508-1.94-.385-1.747-.283.576.283a10.571,10.571,0,0,1,5.208,2.527c.892.98,1.78,1.971,2.668,2.952a11.469,11.469,0,0,1-1.433-2.224q1.619,3.018,3.244,6.034a11.419,11.419,0,0,1-.888-2.5c.514,2.224,1.02,4.458,1.536,6.682-.335-2.618-.486-1.729-.475,2.669.374-1.942.261-1.749-.327.556a10.465,10.465,0,0,1-2.606,5.165q-4.939,4.079-1.486,1.719-3.015,1.623-6.035,3.245c.477-.193.941-.384,1.418-.587-2.226.517-4.458,1.021-6.683,1.537.494-.091,1-.192,1.5-.283a16.145,16.145,0,0,1-11.6-2.769,8.451,8.451,0,0,1-3.4-2.749q-2.528-2.927-.888-.668-1.622-3.016-3.246-6.034a15.384,15.384,0,0,1,1.283,3.164c-.514-2.224-1.018-4.459-1.534-6.682.688,3.791,1.211-5.266.382-2.234-.769,2.77,2.73-5.944.537-1.416-1.068,2.214-2.183,4.357-3.437,6.48-3.115,5.287-2.709,14.071-.648,19.55,2.2,5.863,7.45,11.9,13.364,14.284,6.138,2.477,13.284,3.326,19.551.647,6.6-2.82,10.654-7.217,14.282-13.364h0Z" transform="translate(-3016.125 -611.55)" fill="#fff"/>
        <path id="Path_7" data-name="Path 7" d="M3350.01,676.643c-4.709,19.216,8.26,37.251,27.548,39.919,17.478,2.416,36.665-10.271,41.193-27.5a34.763,34.763,0,0,0-22.6-41.84c-14.536-4.984-33.774,2.295-40.264,16.629-2.831,6.247-4.405,12.2-2.689,19.075,1.548,6.156,6.229,12.868,11.95,15.87,5.765,3.012,12.677,4.59,19.087,2.679,6.206-1.85,13.07-5.782,15.872-11.949a8.177,8.177,0,0,1,.919-1.738c-1.4,1.8-2.81,3.609-4.216,5.408a12.286,12.286,0,0,1,2.084-2.072c-1.832,1.365-3.661,2.739-5.493,4.1a8.736,8.736,0,0,1,1.719-.961c-2.052.809-4.1,1.628-6.165,2.437a13.249,13.249,0,0,1,2.862-.708c-2.165.252-4.33.515-6.49.768a7.966,7.966,0,0,1,1.96.091c-2.162-.3-4.317-.6-6.481-.9a7.509,7.509,0,0,1,1.881.577c-2.043-.849-4.075-1.709-6.118-2.558a7.878,7.878,0,0,1,1.669,1.031c-1.8-1.405-3.609-2.811-5.406-4.215a9.224,9.224,0,0,1,1.393,1.385q-2.047-2.744-4.1-5.489a13.635,13.635,0,0,1,1.468,2.568c-.81-2.052-1.628-4.1-2.438-6.166a8.714,8.714,0,0,1,.485,1.911c-.251-2.164-.514-4.327-.767-6.49a7.985,7.985,0,0,1,.029,1.962c.3-2.164.6-4.316.9-6.48a8.591,8.591,0,0,1-.575,2.234c.849-2.042,1.708-4.073,2.557-6.116a10.942,10.942,0,0,1-1.313,2.315c1.4-1.8,2.81-3.609,4.216-5.408a21.672,21.672,0,0,1-3.762,3.619c1.829-1.365,3.659-2.74,5.486-4.1a22.323,22.323,0,0,1-3.161,1.748c2.054-.809,4.1-1.627,6.167-2.436a15.431,15.431,0,0,1-3.439.809c2.165-.253,4.329-.515,6.489-.768h-1.169c2.161.3,4.317.6,6.479.9a7.4,7.4,0,0,1-2.1-.435c2.041.849,4.072,1.709,6.116,2.558a6.908,6.908,0,0,1-1.718-.941c1.8,1.405,3.607,2.81,5.406,4.215a7.562,7.562,0,0,1-1.412-1.365c1.364,1.83,2.738,3.659,4.1,5.49a7.1,7.1,0,0,1-.979-1.658c.808,2.052,1.628,4.1,2.438,6.167a5.333,5.333,0,0,1-.415-1.82c.25,2.163.513,4.327.768,6.49.01-.313.029-.616.039-.93-.3,2.153-.6,4.316-.9,6.479.078-.313.152-.616.23-.93,3.187-12.98-4.226-28.285-17.932-31.388-13.211-2.992-27.979,4.044-31.387,17.933h0Z" transform="translate(-3013.472 -611.179)" fill="#fff"/>
        <path id="Path_8" data-name="Path 8" d="M3019.515,798.311c36.948,83.65,113.159,151.713,205.9,163.469,87.408,11.079,176.609-31.023,219.854-108.265,16.1-28.74-28.051-54.537-44.133-25.8-35.4,63.221-110.308,95.892-181.273,81.588-72.791-14.669-127.086-70.863-156.209-136.793-13.265-30.023-57.318-4.043-44.137,25.8Z" transform="translate(-3017.082 -609.944)" fill="#fff"/>
      </g>
      <path id="Subtraction_25" data-name="Subtraction 25" d="M596.261,101.289a1296.323,1296.323,0,0,1-131.137-6.657A1279.366,1279.366,0,0,1,337.792,75.1c-41.31-8.5-82.649-19.184-122.869-31.762C175.154,30.9,135.537,16.318,97.172,0H1095.35c-38.383,16.326-78,30.9-117.75,43.334C937.379,55.911,896.04,66.6,854.73,75.1A1279.375,1279.375,0,0,1,727.4,94.632,1296.332,1296.332,0,0,1,596.261,101.289Z" transform="translate(536.739 4125.682)" fill="#ffc800"/>
      <path id="Subtraction_27" data-name="Subtraction 27" d="M483.782,275.342H214c9.3-7.2,19.009-14.1,28.842-20.523,9.878-6.449,20.138-12.573,30.493-18.2,10.413-5.66,21.185-10.96,32.017-15.754,10.908-4.828,22.149-9.262,33.41-13.177,11.351-3.948,23.017-7.471,34.676-10.472,11.775-3.03,23.825-5.6,35.815-7.638,12.123-2.062,24.512-3.636,36.824-4.678,12.459-1.053,25.145-1.588,37.705-1.588v92.031Z" transform="translate(1222.218 4274.341)" fill="#ffc800"/>
    </g>
  </g>
</svg>
