<svg xmlns="http://www.w3.org/2000/svg" width="60" height="24" viewBox="0 0 60 24">
    <path fill="#ffffff"
        d="M12.48 4.44H6.16v15.12h3.16v-6h3.16a4.56 4.56 0 1 0 0-9.12zm0 6h-3.16v-3.16h3.16a1.58 1.58 0 1 1 0 3.16zM18.84 12.28a3.16 3.16 0 0 0-3.16 3.16v4.12h3.16V15.44a1.58 1.58 0 1 1 3.16 0v4.12h3.16v-4.12a3.16 3.16 0 0 0-3.16-3.16zM32 12.28a3.16 3.16 0 0 0-3.16 3.16v3.16h3.16V15.44a1.58 1.58 0 1 1 3.16 0v4.12h3.16v-4.12a3.16 3.16 0 0 0-3.16-3.16zM42.44 12.28a3.16 3.16 0 0 0-3.16 3.16v3.16h3.16V15.44a1.58 1.58 0 1 1 3.16 0v4.12h3.16v-8.28h-3.16v1z" />
</svg>