<svg xmlns="http://www.w3.org/2000/svg" xmlns:xlink="http://www.w3.org/1999/xlink" width="79.574" height="27.147" viewBox="0 0 79.574 27.147">
  <defs>
    <radialGradient id="radial-gradient" cx="0.5" cy="0.5" r="0.5" gradientTransform="translate(0)" gradientUnits="objectBoundingBox">
      <stop offset="0.18" stop-color="#ffc800"/>
      <stop offset="0.19" stop-color="#ffc802"/>
      <stop offset="0.37" stop-color="#ffd84d"/>
      <stop offset="0.54" stop-color="#ffe68c"/>
      <stop offset="0.69" stop-color="#fff0be"/>
      <stop offset="0.82" stop-color="#fff8e1"/>
      <stop offset="0.93" stop-color="#fffdf7"/>
      <stop offset="1" stop-color="#fff"/>
    </radialGradient>
  </defs>
  <g id="Group_212" data-name="Group 212" transform="translate(-7116 -290.853)">
    <text id="Monthly" transform="translate(7116 314)" fill="#002538" font-size="18" font-family="Helvetica-Bold, Helvetica" font-weight="700" letter-spacing="-0.034em"><tspan x="0" y="0">Monthly</tspan></text>
    <g id="Group_82" data-name="Group 82" transform="translate(7171.427 290.853)">
      <g id="Group_9" data-name="Group 9" transform="translate(1.202 0) rotate(3)">
        <path id="Path_4" data-name="Path 4" d="M22.976,11.488A11.488,11.488,0,1,1,11.487,0,11.489,11.489,0,0,1,22.976,11.488Z" transform="translate(0 0)" opacity="0.7" fill="url(#radial-gradient)" style="mix-blend-mode: multiply;isolation: isolate"/>
        <g id="Group_4" data-name="Group 4" transform="translate(2.87 0.112)">
          <path id="Path_5" data-name="Path 5" d="M13.4,14.931c4.01-2.324,6.559-5.069,6.294-8.906-.47-6.821-8.248-6.263-9.748-2.382A4.572,4.572,0,0,0,6.422.133C3.325-.545.147,1.376.005,5.607c-.171,5.124,3.951,7.414,5.523,8.769,2.451,2.113,2.035,3.382,2.035,3.382s4.347-1.964,5.835-2.827Z" transform="translate(0 0)" fill="#ffc800"/>
          <g id="Group_3" data-name="Group 3" transform="translate(4.236 4.611)">
            <path id="Path_6" data-name="Path 6" d="M1.427,1.381A.991.991,0,0,0,1.54.521.786.786,0,0,0,.555.045.876.876,0,0,0,0,.94a.889.889,0,0,0,.736.776.6.6,0,0,0,.688-.487A.607.607,0,0,0,.941.542C.9.533.9.535.954.549a.246.246,0,0,1,.121.059l.062.069A.265.265,0,0,1,1.1.624L1.18.765A.267.267,0,0,1,1.159.707L1.2.862C1.187.8,1.184.822,1.184.925c.009-.045.006-.041-.008.013a.244.244,0,0,1-.061.12q-.115.1-.035.04L.94,1.174.973,1.16.818,1.2l.035-.007a.376.376,0,0,1-.27-.065A.2.2,0,0,1,.5,1.061Q.444.992.483,1.045L.407.9a.361.361,0,0,1,.03.074L.4.822C.417.911.429.7.41.77S.474.632.423.737C.4.789.372.839.343.888a.6.6,0,0,0-.015.455.607.607,0,0,0,.311.333.6.6,0,0,0,.456.015.686.686,0,0,0,.333-.311h0Z" transform="translate(2.074 0)" fill="#002538"/>
            <path id="Path_7" data-name="Path 7" d="M.023.722a.754.754,0,0,0,.642.93.913.913,0,0,0,.96-.641A.81.81,0,0,0,1.1.036.8.8,0,0,0,.159.424.648.648,0,0,0,.1.868a.609.609,0,0,0,.278.37A.6.6,0,0,0,.82,1.3a.582.582,0,0,0,.37-.278.189.189,0,0,1,.021-.04l-.1.126a.286.286,0,0,1,.049-.048l-.128.1a.205.205,0,0,1,.04-.022L.93,1.189A.31.31,0,0,1,1,1.173l-.151.018a.186.186,0,0,1,.046,0L.74,1.172a.175.175,0,0,1,.044.013l-.143-.06A.184.184,0,0,1,.68,1.15l-.126-.1a.213.213,0,0,1,.033.032L.491.956a.319.319,0,0,1,.034.06L.468.872A.207.207,0,0,1,.48.917C.474.866.468.816.462.765a.186.186,0,0,1,0,.046L.484.66A.2.2,0,0,1,.47.712L.53.57A.257.257,0,0,1,.5.624L.6.5A.5.5,0,0,1,.51.582l.128-.1A.519.519,0,0,1,.564.527L.707.47a.362.362,0,0,1-.08.019L.779.471H.751L.9.492A.173.173,0,0,1,.853.482L1,.542A.16.16,0,0,1,.956.52l.126.1A.175.175,0,0,1,1.049.586l.1.128A.164.164,0,0,1,1.122.675l.057.144a.124.124,0,0,1-.01-.042c.006.05.012.1.018.151,0-.007,0-.014,0-.022-.007.05-.014.1-.021.151l.005-.022A.6.6,0,0,0,.754.3.605.605,0,0,0,.023.722h0Z" transform="translate(7.818 0.803)" fill="#002538"/>
            <path id="Path_8" data-name="Path 8" d="M.057.912a6.3,6.3,0,0,0,4.8,3.809A5.155,5.155,0,0,0,9.976,2.2c.375-.67-.654-1.271-1.028-.6A3.971,3.971,0,0,1,4.724,3.5,5.267,5.267,0,0,1,1.085.311C.776-.389-.25.216.057.912Z" transform="translate(0 3.477)" fill="#002538"/>
          </g>
        </g>
      </g>
    </g>
  </g>
</svg>
