<svg xmlns="http://www.w3.org/2000/svg" xmlns:xlink="http://www.w3.org/1999/xlink" width="805.366" height="805.391" viewBox="0 0 805.366 805.391">
  <defs>
    <radialGradient id="radial-gradient" cx="0.5" cy="0.5" r="0.5" gradientTransform="translate(0)" gradientUnits="objectBoundingBox">
      <stop offset="0.18" stop-color="#ffc800"/>
      <stop offset="0.19" stop-color="#ffc802"/>
      <stop offset="0.37" stop-color="#ffd84d"/>
      <stop offset="0.54" stop-color="#ffe68c"/>
      <stop offset="0.69" stop-color="#fff0be"/>
      <stop offset="0.82" stop-color="#fff8e1"/>
      <stop offset="0.93" stop-color="#fffdf7"/>
      <stop offset="1" stop-color="#fff"/>
    </radialGradient>
  </defs>
  <g id="Group_204" data-name="Group 204" transform="translate(-628 -2423.609)">
    <path id="Path_23" data-name="Path 23" d="M3520.706,813.7c0,222.387-180.332,402.7-402.72,402.7S2715.34,1036.082,2715.34,813.7,2895.6,411,3117.987,411,3520.706,591.308,3520.706,813.7Z" transform="translate(-2087.34 2012.609)" fill="url(#radial-gradient)" style="mix-blend-mode: multiply;isolation: isolate"/>
    <g id="Group_14" data-name="Group 14" transform="translate(939.17 2728.863)">
      <path id="Path_6" data-name="Path 6" d="M3131.2,636.762c2.782-4.723,4.093-10.4,2.051-15.69-2.7-7-10.692-11.458-17.988-8.692a16,16,0,0,0-10.059,16.335,16.241,16.241,0,0,0,13.445,14.172c5.609.976,11.814-3.075,12.555-8.886a11.08,11.08,0,0,0-8.887-12.555c-.825-.164-.743-.12.245.12a4.5,4.5,0,0,1,2.216,1.075c.38.417.757.839,1.135,1.256a4.89,4.89,0,0,1-.61-.946q.689,1.284,1.38,2.567a4.861,4.861,0,0,1-.378-1.062c.219.946.434,1.9.654,2.843-.143-1.114-.207-.736-.2,1.136.159-.826.111-.744-.139.236a4.452,4.452,0,0,1-1.109,2.2q-2.1,1.736-.632.731l-2.568,1.381c.2-.082.4-.164.6-.25-.947.22-1.9.434-2.843.654.21-.039.425-.082.637-.12a6.869,6.869,0,0,1-4.935-1.178,3.6,3.6,0,0,1-1.445-1.17q-1.076-1.245-.378-.284-.69-1.283-1.381-2.567a6.558,6.558,0,0,1,.546,1.346c-.219-.946-.433-1.9-.653-2.843.293,1.613.515-2.241.163-.951-.327,1.179,1.162-2.529.228-.6-.455.942-.929,1.854-1.462,2.757-1.325,2.249-1.153,5.987-.276,8.318a11.076,11.076,0,0,0,5.686,6.078,10.936,10.936,0,0,0,8.318.275,12.519,12.519,0,0,0,6.077-5.686h0Z" transform="translate(-3067.264 -611.55)" fill="#002538"/>
      <path id="Path_7" data-name="Path 7" d="M3349.453,658.843a13.771,13.771,0,0,0,11.721,16.985c7.436,1.028,15.6-4.37,17.527-11.7a14.791,14.791,0,0,0-9.617-17.8c-6.185-2.12-14.37.976-17.131,7.075-1.2,2.658-1.874,5.191-1.144,8.116a10.872,10.872,0,0,0,13.205,7.892c2.64-.787,5.561-2.46,6.753-5.084a3.476,3.476,0,0,1,.391-.74c-.6.766-1.2,1.535-1.794,2.3a5.225,5.225,0,0,1,.887-.882c-.779.581-1.558,1.165-2.337,1.746a3.714,3.714,0,0,1,.731-.409c-.873.344-1.745.693-2.623,1.037a5.636,5.636,0,0,1,1.218-.3c-.921.107-1.842.219-2.761.327a3.387,3.387,0,0,1,.834.039c-.92-.129-1.837-.254-2.758-.383a3.19,3.19,0,0,1,.8.245c-.869-.361-1.734-.727-2.6-1.088a3.349,3.349,0,0,1,.71.439c-.765-.6-1.536-1.2-2.3-1.793a3.918,3.918,0,0,1,.593.589q-.871-1.168-1.747-2.335a5.8,5.8,0,0,1,.625,1.092c-.344-.873-.693-1.746-1.037-2.624a3.7,3.7,0,0,1,.207.813c-.107-.921-.219-1.841-.326-2.761a3.383,3.383,0,0,1,.012.835c.129-.921.254-1.836.383-2.757a3.651,3.651,0,0,1-.245.951c.361-.869.727-1.733,1.088-2.6a4.66,4.66,0,0,1-.559.985c.6-.766,1.2-1.535,1.794-2.3a9.221,9.221,0,0,1-1.6,1.54c.778-.581,1.557-1.166,2.334-1.746a9.5,9.5,0,0,1-1.345.744c.874-.344,1.747-.692,2.624-1.036a6.57,6.57,0,0,1-1.463.344c.921-.108,1.842-.219,2.761-.327h-.5c.919.129,1.837.254,2.757.383a3.146,3.146,0,0,1-.895-.185c.868.361,1.733.727,2.6,1.088a2.938,2.938,0,0,1-.731-.4c.765.6,1.535,1.2,2.3,1.793a3.222,3.222,0,0,1-.6-.581c.581.779,1.165,1.557,1.745,2.336a3.021,3.021,0,0,1-.417-.705c.344.873.693,1.746,1.037,2.624a2.27,2.27,0,0,1-.177-.774c.107.92.219,1.841.327,2.761,0-.133.012-.262.017-.4-.129.916-.253,1.836-.382,2.757.033-.133.065-.262.1-.4,1.356-5.523-1.8-12.034-7.629-13.355-5.621-1.273-11.9,1.72-13.354,7.63h0Z" transform="translate(-3206.265 -630.99)" fill="#002538"/>
      <path id="Path_8" data-name="Path 8" d="M3018.117,775.831c15.72,35.591,48.146,64.55,87.6,69.552,37.19,4.714,75.143-13.2,93.542-46.064,6.848-12.228-11.935-23.2-18.777-10.976-15.062,26.9-46.933,40.8-77.127,34.714-30.97-6.241-54.072-30.15-66.463-58.2-5.644-12.774-24.387-1.72-18.779,10.976Z" transform="translate(-3017.082 -695.685)" fill="#002538"/>
    </g>
  </g>
</svg>
