<svg xmlns="http://www.w3.org/2000/svg" width="129.773" height="35.036" viewBox="0 0 129.773 35.036">
  <g id="Group_152" data-name="Group 152" transform="translate(-0.03 -51.22)">
    <g id="Group_5" data-name="Group 5" transform="translate(30.112 54.443)">
      <path id="Path_9" data-name="Path 9" d="M230.676,75.69l-1.718,5.252h-1.306L226.5,77.386,225.3,80.942h-1.3L222.28,75.69h1.26l1.186,3.691,1.237-3.691h1.126l1.2,3.721,1.222-3.721h1.163Z" transform="translate(-222.28 -75.601)" fill="#002538"/>
      <path id="Path_10" data-name="Path 10" d="M307.22,80.108a2.622,2.622,0,0,1-1.027-.972,2.787,2.787,0,0,1,0-2.783,2.609,2.609,0,0,1,1.027-.97,3.246,3.246,0,0,1,2.945,0,2.665,2.665,0,0,1,1.027.97,2.769,2.769,0,0,1,0,2.783,2.659,2.659,0,0,1-1.027.972,3.257,3.257,0,0,1-2.945,0Zm2.313-.9a1.523,1.523,0,0,0,.589-.6,1.878,1.878,0,0,0,0-1.741,1.541,1.541,0,0,0-.589-.6,1.759,1.759,0,0,0-1.681,0,1.531,1.531,0,0,0-.589.6,1.878,1.878,0,0,0,0,1.741,1.549,1.549,0,0,0,.589.6,1.759,1.759,0,0,0,1.681,0Z" transform="translate(-294.513 -75.03)" fill="#002538"/>
      <path id="Path_11" data-name="Path 11" d="M377.786,80.942l-1.012-1.463h-1.118v1.463H374.44V75.69h2.274a2.926,2.926,0,0,1,1.211.233,1.734,1.734,0,0,1,1.068,1.673,1.708,1.708,0,0,1-1.08,1.658l1.178,1.688h-1.306Zm-.309-4.025a1.269,1.269,0,0,0-.832-.237h-.989v1.831h.989a1.262,1.262,0,0,0,.832-.24.946.946,0,0,0,0-1.355Z" transform="translate(-353.845 -75.601)" fill="#002538"/>
      <path id="Path_12" data-name="Path 12" d="M434.58,75.681H435.8v4.261h2.634v.989h-3.848V75.68Z" transform="translate(-405.845 -75.592)" fill="#002538"/>
      <path id="Path_13" data-name="Path 13" d="M487.45,75.69h2.385a3.371,3.371,0,0,1,1.512.326,2.455,2.455,0,0,1,1.021.919,2.8,2.8,0,0,1,0,2.761,2.455,2.455,0,0,1-1.021.919,3.353,3.353,0,0,1-1.512.326H487.45Zm2.327,4.253a1.765,1.765,0,0,0,1.256-.439,1.742,1.742,0,0,0,0-2.38,1.765,1.765,0,0,0-1.256-.439h-1.111v3.255h1.111Z" transform="translate(-451.558 -75.601)" fill="#002538"/>
    </g>
    <g id="Group_6" data-name="Group 6" transform="translate(0.03 51.22)">
      <path id="Path_14" data-name="Path 14" d="M2.229,97.734a17.153,17.153,0,0,0,4.181,1.695,16.328,16.328,0,0,0,4.067.566,5.717,5.717,0,0,0,3.174-.69A2.169,2.169,0,0,0,14.66,97.42a2.637,2.637,0,0,0-.123-.774,2.129,2.129,0,0,0-.471-.785,4.624,4.624,0,0,0-.961-.774,9.068,9.068,0,0,0-1.592-.763l-3.37-1.276A12.168,12.168,0,0,1,2.7,89.311a8.868,8.868,0,0,1-1.826-5.6,10.56,10.56,0,0,1,.79-4.028,9.47,9.47,0,0,1,2.393-3.411A11.744,11.744,0,0,1,8.1,73.92a16.862,16.862,0,0,1,5.717-.88,22.318,22.318,0,0,1,3.108.21,25.829,25.829,0,0,1,2.8.544,20.579,20.579,0,0,1,2.4.763q1.092.428,1.922.847l-2.034,4.081a8.749,8.749,0,0,0-1.271-.732,10.709,10.709,0,0,0-1.337-.524,9.641,9.641,0,0,0-1.309-.314,7.368,7.368,0,0,0-1.167-.1,4.381,4.381,0,0,0-1.582.261,3.509,3.509,0,0,0-1.14.69,2.912,2.912,0,0,0-.7.962,2.58,2.58,0,0,0-.236,1.057,2.107,2.107,0,0,0,.2.889,2.5,2.5,0,0,0,.678.838,6.856,6.856,0,0,0,1.263.816,17.714,17.714,0,0,0,1.949.847l2.26.838a12.723,12.723,0,0,1,5.612,3.747,8.857,8.857,0,0,1,1.941,5.776,9.711,9.711,0,0,1-.931,4.249,9.241,9.241,0,0,1-2.779,3.359,13.622,13.622,0,0,1-4.587,2.2,23.193,23.193,0,0,1-6.356.785,27.247,27.247,0,0,1-3.343-.2,24.5,24.5,0,0,1-3.146-.6,23.819,23.819,0,0,1-3.022-1A28.448,28.448,0,0,1,.03,101.9l2.2-4.165Z" transform="translate(-0.03 -70.087)" fill="#002538"/>
      <path id="Path_15" data-name="Path 15" d="M232.11,150.728h9.023l.9,3.013a15.526,15.526,0,0,1,4.059-2.553,11.181,11.181,0,0,1,4.341-.858,5.922,5.922,0,0,1,3.108.837,5.548,5.548,0,0,1,2.186,2.658,20.444,20.444,0,0,1,1.864-1.318,16.81,16.81,0,0,1,2.1-1.119,12.978,12.978,0,0,1,2.289-.774,10.624,10.624,0,0,1,2.467-.283,6.177,6.177,0,0,1,2.43.48,5.11,5.11,0,0,1,1.959,1.486,7.29,7.29,0,0,1,1.3,2.584,13.332,13.332,0,0,1,.471,3.778v12.809H260.381V157.948a2.368,2.368,0,0,0-.443-1.59,1.608,1.608,0,0,0-1.271-.5,2.644,2.644,0,0,0-.98.221,4.954,4.954,0,0,0-1.111.639V171.47H246.349V157.95a2.407,2.407,0,0,0-.432-1.59,1.581,1.581,0,0,0-1.263-.5,3.413,3.413,0,0,0-1.206.252,2.661,2.661,0,0,0-1.111.8v14.567H232.11v-20.74Z" transform="translate(-200.697 -136.915)" fill="#002538"/>
      <path id="Path_16" data-name="Path 16" d="M558.014,72.155a7.645,7.645,0,0,1-2.4-.334,4.435,4.435,0,0,1-1.649-.931,3.674,3.674,0,0,1-.942-1.381,4.943,4.943,0,0,1,0-3.4,3.644,3.644,0,0,1,.942-1.391,4.444,4.444,0,0,1,1.649-.931,7.645,7.645,0,0,1,2.4-.334,7.733,7.733,0,0,1,2.412.334,4.555,4.555,0,0,1,1.649.931,3.618,3.618,0,0,1,.95,1.391,4.943,4.943,0,0,1,0,3.4,3.632,3.632,0,0,1-.95,1.381,4.536,4.536,0,0,1-1.649.931A7.628,7.628,0,0,1,558.014,72.155Zm-5.1,3.453h10.227v20.74H552.91Z" transform="translate(-477.911 -61.795)" fill="#002538"/>
      <path id="Path_17" data-name="Path 17" d="M668.65,51.22h10.227V85.773H668.65Z" transform="translate(-578.15 -51.22)" fill="#002538"/>
      <path id="Path_18" data-name="Path 18" d="M774.121,160.974a10.075,10.075,0,0,1,.509-3.285,9.453,9.453,0,0,1,1.4-2.669,9.817,9.817,0,0,1,2.118-2.061,12.967,12.967,0,0,1,2.656-1.466,15.348,15.348,0,0,1,3-.878,17.175,17.175,0,0,1,3.165-.294,14.531,14.531,0,0,1,3.833.471,11.977,11.977,0,0,1,3.07,1.287,10.453,10.453,0,0,1,2.336,1.9,11.356,11.356,0,0,1,1.639,2.313,10.6,10.6,0,0,1,.961,2.522,10.858,10.858,0,0,1,.31,2.532l-14.241,1.9a6.715,6.715,0,0,0,1.658,3.6,4.636,4.636,0,0,0,3.484,1.276,7.584,7.584,0,0,0,2.289-.334,5.15,5.15,0,0,0,1.666-.816l1.507,2.93a15.353,15.353,0,0,1-1.516.753,12.392,12.392,0,0,1-1.808.617,17.382,17.382,0,0,1-2.185.418,20.359,20.359,0,0,1-2.627.157,17.6,17.6,0,0,1-5.915-.889,11.948,11.948,0,0,1-4.116-2.386,9.354,9.354,0,0,1-2.411-3.464,11.122,11.122,0,0,1-.782-4.145Zm15.861-1.757a9.462,9.462,0,0,0-.612-3.955,1.947,1.947,0,0,0-1.818-1.234,2.111,2.111,0,0,0-1.149.334,2.683,2.683,0,0,0-.9,1.046,6.792,6.792,0,0,0-.6,1.831,14.826,14.826,0,0,0-.245,2.711l5.332-.732Z" transform="translate(-669.344 -136.906)" fill="#002538"/>
    </g>
  </g>
</svg>
